<ttFont>
          <CharString index="0">
            rmoveto
            20 callgsubr
            -163 642 rlineto
            17 -5 -17 8 -33 hhcurveto
            -53 hlineto
            -31 -19 -8 -17 -4 hvcurveto
            -164 -642 rlineto
            -1 -7 -1 -5 -5 vvcurveto
            -10 callsubr
            134 262 rmoveto
            return
          </CharString>
          <CharString index="1">
            rmoveto
            42 18 -70 callsubr
            56 vlineto
            19 -19 10 -42 -41 -19 -10 -19 vhcurveto
            -56 vlineto
            -19 19 -10 42 vhcurveto
            return
          </CharString>
          <CharString index="2">
            -29 7 6 -25 23 hhcurveto
            21 71 7 22 hvcurveto
            15 -12 28 95 vvcurveto
            199 vlineto
            99 -56 66 -132 -82 -81 -31 -32 -18 28 -52 18 vhcurveto
            13 36 32 60 hhcurveto
            51 19 -27 -41 hvcurveto
            -27 vlineto
            -177 -68 -79 -106 hvcurveto
            return
          </CharString>
          <CharString index="3">
            26 123 callgsubr
            -18 vhcurveto
            -194 190 172 hlineto
            18 8 13 30 hvcurveto
            26 128 callgsubr
            -172 174 193 hlineto
            18 8 13 30 hvcurveto
            26 128 callgsubr
            -292 -75 callsubr
            return
          </CharString>
          <CharString index="4">
            rmoveto
            82 44 52 58 20 -14 7 -18 -14 -7 -8 -11 -4 hvcurveto
            -16 -8 -11 -19 -49 hhcurveto
            -47 -11 17 17 -9 hvcurveto
            12 -6 -6 8 -15 hhcurveto
            -18 -14 -7 -20 -59 44 -51 81 hvcurveto
            return
          </CharString>
          <CharString index="5">
            rmoveto
            78 callsubr
            56 vlineto
            19 -15 10 -36 -60 callgsubr
            vhcurveto
            -56 vlineto
            -19 15 -10 37 vhcurveto
            149 hmoveto
            88 callgsubr
            56 94 callgsubr
            -36 -35 -26 callsubr
            vhcurveto
            -56 -51 callsubr
            return
          </CharString>
          <CharString index="6">
            22 callgsubr
            hvcurveto
            1 112 rmoveto
            -81 -42 63 183 183 42 61 81 79 42 -61 -183 -183 -42 -63 -79 hvcurveto
            return
          </CharString>
          <CharString index="7">
            rmoveto
            413 -89 callgsubr
            -351 vlineto
            -25 -13 -23 -22 -30 hhcurveto
            -35 -16 23 40 hvcurveto
            335 -89 callgsubr
            -350 vlineto
            -101 39 -53 85 57 44 37 44 24 vhcurveto
            -40 vlineto
            -96 -40 -48 -68 vhcurveto
            -70 -44 39 -11 hhcurveto
            -8 -5 -14 -26 -10 2 -14 2 -16 hvcurveto
            -32 7 69 -28 84 hhcurveto
            141 62 93 202 -1 hvcurveto
            return
          </CharString>
          <CharString index="8">
            rmoveto
            16 81 49 57 52 -45 25 -59 -35 -44 -18 -13 -14 20 -25 8 hvcurveto
            25 callgsubr
            vhcurveto
            return
          </CharString>
          <CharString index="9">
            hlineto
            -35 -23 callgsubr
            -466 vlineto
            -59 -41 -43 -61 -62 -40 42 60 vhcurveto
            466 -4 callgsubr
            -31 hlineto
            -60 callgsubr
            hvcurveto
            -471 vlineto
            return
          </CharString>
          <CharString index="10">
            300 hlineto
            17 -12 callsubr
            15 vlineto
            31 -8 12 -17 vhcurveto
            -170 hlineto
            189 340 rlineto
            1 4 1 3 7 vvcurveto
            24 -15 44 -9 vhcurveto
            -284 hlineto
            -17 57 callsubr
            -15 -34 callsubr
            17 vhcurveto
            154 hlineto
            -190 -342 rlineto
            -1 -3 -1 -4 -6 vvcurveto
            -24 14 -43 11 vhcurveto
            return
          </CharString>
          <CharString index="11">
            rmoveto
            -22 callsubr
            24 14 23 21 27 hhcurveto
            36 13 107 callgsubr
            15 28 callgsubr
            94 -41 51 -77 -57 -45 -34 -41 -27 vhcurveto
            34 -7 2 33 -31 hhcurveto
            -18 -77 -6 -25 hvcurveto
            -11 10 -30 -93 vvcurveto
            -330 vlineto
            -19 15 -10 35 vhcurveto
            return
          </CharString>
          <CharString index="12">
            -97 callgsubr
            endchar
          </CharString>
          <CharString index="13">
            rmoveto
            148 86 77 132 hvcurveto
            471 -4 callgsubr
            -30 -69 callsubr
            vhcurveto
            return
          </CharString>
          <CharString index="14">
            rmoveto
            131 69 94 174 174 -68 95 -132 -98 callgsubr
            return
          </CharString>
          <CharString index="15">
            387 hlineto
            17 8 13 31 hvcurveto
            24 vlineto
            31 -8 13 -17 vhcurveto
            -252 hlineto
            276 500 rlineto
            1 2 -1 3 5 vvcurveto
            24 -17 54 -15 vhcurveto
            -365 hlineto
            -18 -7 -13 -31 hvcurveto
            -23 vlineto
            -32 7 -13 18 vhcurveto
            230 hlineto
            -277 -501 rlineto
            -1 -2 0 -4 -4 vvcurveto
            -25 18 -52 16 vhcurveto
            return
          </CharString>
          <CharString index="16">
            -89 callsubr
            endchar
          </CharString>
          <CharString index="17">
            -93 callsubr
            endchar
          </CharString>
          <CharString index="18">
            19 callsubr
            277 vlineto
            160 356 15 callsubr
            12 -16 7 -39 vhcurveto
            -32 hlineto
            -25 -20 -3 -14 -5 hvcurveto
            -94 -259 -95 258 rlineto
            15 -5 -19 3 -25 hhcurveto
            -40 hlineto
            -36 -17 -7 -12 -6 3 -8 5 -9 hvcurveto
            159 -353 rlineto
            -280 16 callgsubr
            return
          </CharString>
          <CharString index="19">
            -87 callgsubr
            endchar
          </CharString>
          <CharString index="20">
            -20 hlineto
            -60 callgsubr
            hvcurveto
            -360 vlineto
            -25 3 -25 5 -25 vhcurveto
            -5 -2 -9 24 -9 25 -13 24 rlinecurve
            -198 368 rlineto
            21 -10 -16 4 -21 hhcurveto
            -26 -56 callsubr
            return
          </CharString>
          <CharString index="21">
            rmoveto
            -21 callgsubr
            -78 callsubr
            return
          </CharString>
          <CharString index="22">
            rmoveto
            44 40 9 8 20 hvcurveto
            23 9 4 14 16 vvcurveto
            44 -14 42 -30 -11 vhcurveto
            -8 -22 -21 -7 -33 hhcurveto
            -97 -42 80 162 163 44 78 92 31 24 -7 -7 17 hvcurveto
            26 -11 15 52 34 vvcurveto
            1 19 -5 15 -22 7 rrcurveto
            7 -20 -35 6 -37 hhcurveto
            -182 -86 -116 -240 -246 81 -112 184 hvcurveto
            endchar
          </CharString>
          <CharString index="23">
            rmoveto
            193 hlineto
            19 7 11 26 hvcurveto
            13 vlineto
            26 -7 11 -19 vhcurveto
            -193 hlineto
            -18 -8 -11 -26 hvcurveto
            -13 vlineto
            -26 8 -11 18 vhcurveto
            return
          </CharString>
          <CharString index="24">
            rmoveto
            28 59 71 78 22 -12 16 -30 hvcurveto
            -4 callsubr
            hvcurveto
            -78 -17 -30 -20 vvcurveto
            -14 122 callgsubr
            return
          </CharString>
          <CharString index="25">
            -1 4 5 -1 4 hhcurveto
            10 6 5 11 8 hvcurveto
            17 11 9 3 9 hhcurveto
            return
          </CharString>
          <CharString index="26">
            rmoveto
            55 89 28 34 20 -21 48 -19 -4 -5 -4 -4 -8 hvcurveto
            -8 -15 -24 -13 -36 hhcurveto
            -64 -29 47 122 122 33 44 61 33 23 -13 -8 15 hvcurveto
            -4 7 5 -3 4 hhcurveto
            17 23 49 19 33 -69 28 -69 -138 -75 -81 -188 -185 72 -83 139 hvcurveto
            endchar
          </CharString>
          <CharString index="27">
            -73 callgsubr
            100 return
          </CharString>
          <CharString index="28">
            rmoveto
            -159 hlineto
            100 callsubr
            -26 22 callsubr
            63 -173 hlineto
            -5 -17 -19 -2 -22 hhcurveto
            -88 -42 79 165 159 40 81 100 hvcurveto
            70 32 -31 12 hhcurveto
            21 32 55 23 32 -86 36 -87 -183 -88 -116 -242 -244 87 -112 179 79 110 26 51 hvcurveto
            294 vlineto
            25 -11 11 -23 vhcurveto
            return
          </CharString>
          <CharString index="29">
            469 -89 callgsubr
            -469 -16 callgsubr
            return
          </CharString>
          <CharString index="30">
            -94 callgsubr
            vhcurveto
            endchar
          </CharString>
          <CharString index="31">
            40 hlineto
            22 18 5 14 3 hvcurveto
            32 137 rlineto
            174 hlineto
            return
          </CharString>
          <CharString index="32">
            -58 callgsubr
            -39 callsubr
            return
          </CharString>
          <CharString index="33">
            42 callgsubr
            -15 11 -35 vhcurveto
            -33 hlineto
            -36 -15 -11 -19 hvcurveto
            -646 vlineto
            -19 15 -11 36 vhcurveto
            return
          </CharString>
          <CharString index="34">
            -43 -69 callsubr
            148 86 77 132 vhcurveto
            return
          </CharString>
          <CharString index="35">
            -46 callgsubr
            -20 callsubr
            return
          </CharString>
          <CharString index="36">
            21 -19 -36 31 -50 hhcurveto
            -98 -66 -92 -170 -127 36 -138 120 43 35 22 39 22 hvcurveto
            -23 vlineto
            -105 1 -30 -47 -65 -66 -38 38 -13 hhcurveto
            -8 -6 -10 -25 -13 2 -15 3 -14 hvcurveto
            -33 7 69 -29 84 hhcurveto
            130 56 87 207 hvcurveto
            return
          </CharString>
          <CharString index="37">
            10 19 hvcurveto
            return
          </CharString>
          <CharString index="38">
            -98 callsubr
            -17 callgsubr
            return
          </CharString>
          <CharString index="39">
            hlineto
            36 -47 callsubr
            return
          </CharString>
          <CharString index="40">
            59 35 39 55 55 -35 39 -59 -57 -36 -39 -55 -55 36 -39 57 hvcurveto
            1 53 rmoveto
            -26 -14 14 26 -1 hvcurveto
            26 1 14 16 26 hhcurveto
            25 15 -16 -26 -26 -15 -14 -25 hvcurveto
            return
          </CharString>
          <CharString index="41">
            269 hlineto
            18 8 13 30 hvcurveto
            26 128 callgsubr
            -170 561 hlineto
            19 -14 10 -37 vhcurveto
            -31 hlineto
            -60 callgsubr
            hvcurveto
            -636 vlineto
            -39 callsubr
            return
          </CharString>
          <CharString index="42">
            65 6 30 35 51 vvcurveto
            29 -21 51 -25 -5 -5 -1 -4 -5 vhcurveto
            -29 -20 rlineto
            -7 -5 -3 -6 -7 -12 27 -18 -28 vvcurveto
            -18 -13 -14 -25 -15 -15 5 6 -13 vhcurveto
            return
          </CharString>
          <CharString index="43">
            hvcurveto
            -52 -97 rlineto
            -3 -6 -2 -6 -5 vvcurveto
            -7 5 -4 15 vhcurveto
            return
          </CharString>
          <CharString index="44">
            vvcurveto
            -26 9 -66 86 21 21 5 9 18 vhcurveto
            11 7 4 10 13 vvcurveto
            21 -9 7 -17 vhcurveto
            return
          </CharString>
          <CharString index="45">
            -29 5 5 -36 28 hhcurveto
            20 74 7 22 hvcurveto
            16 -12 27 95 vvcurveto
            559 vlineto
            18 -16 10 -36 vhcurveto
            -22 hlineto
            -37 79 callsubr
            -231 vlineto
            20 -21 -28 16 -42 hhcurveto
            -102 -64 -95 -171 hvcurveto
            return
          </CharString>
          <CharString index="46">
            rmoveto
            24 hlineto
            17 16 2 15 9 hvcurveto
            26 9 callsubr
            15 44 callgsubr
            -52 1 callgsubr
            128 -580 70 callsubr
            return
          </CharString>
          <CharString index="47">
            -21 156 106 304 138 0 -20 return
          </CharString>
          <CharString index="48">
            -11 -34 -34 -58 hhcurveto
            -57 -32 32 85 -4 hvcurveto
            return
          </CharString>
          <CharString index="49">
            182 hlineto
            167 86 108 242 241 -86 109 -167 hvcurveto
            -182 -75 callsubr
            return
          </CharString>
          <CharString index="50">
            -752 -107 callsubr
            return
          </CharString>
          <CharString index="51">
            hlineto
            -60 callgsubr
            hvcurveto
            -646 -51 callsubr
            return
          </CharString>
          <CharString index="52">
            39 12 11 22 vhcurveto
            13 11 -5 7 hhcurveto
            18 10 55 8 34 -57 10 -30 -74 -58 -40 -110 hvcurveto
            -86 -18 127 callsubr
            -15 22 callsubr
            18 return
          </CharString>
          <CharString index="53">
            rmoveto
            66 callsubr
            561 122 vlineto
            19 8 -72 callsubr
            -8 13 -19 vhcurveto
            -378 hlineto
            100 callsubr
            -26 22 callsubr
            122 -561 hlineto
            -45 callgsubr
            return
          </CharString>
          <CharString index="54">
            -102 -52 callgsubr
            return
          </CharString>
          <CharString index="55">
            0 109 486 112 hstem
            41 136 245 137 vstem
            549 109 rmoveto
            -26 -33 -11 -2 -5 hvcurveto
            50 63 24 89 109 vvcurveto
            228 -94 122 -165 -166 -93 -122 -228 -109 24 -89 49 -63 vhcurveto
            2 -5 -33 11 -25 hhcurveto
            100 callsubr
            -23 22 callsubr
            199 77 callgsubr
            18 vlineto
            18 -2 8 -10 5 vhcurveto
            -55 22 -32 83 154 vvcurveto
            160 42 84 81 80 42 -84 -160 -154 -33 -82 -54 -23 vhcurveto
            -8 -6 -3 -7 -18 vvcurveto
            -18 vlineto
            -30 7 -13 19 vhcurveto
            199 hlineto
            18 7 -46 callgsubr
            23 123 callgsubr
            -18 vhcurveto
            endchar
          </CharString>
          <CharString index="56">
            vlineto
            -45 callgsubr
            return
          </CharString>
          <CharString index="57">
            16 12 15 18 18 -12 15 -16 -16 -12 -15 -18 -18 12 -15 16 hvcurveto
            return
          </CharString>
          <CharString index="58">
            132 573 -107 callgsubr
            127 -580 -97 callgsubr
            return
          </CharString>
          <CharString index="59">
            135 vstem
            201 -11 callsubr
            71 callgsubr
            -249 93 -109 165 hvcurveto
            1 112 rmoveto
            -81 -42 63 183 183 42 61 81 79 42 -61 -183 -183 -42 -63 -79 hvcurveto
            return
          </CharString>
          <CharString index="60">
            15 -70 callsubr
            return
          </CharString>
          <CharString index="61">
            37 callsubr
            23 27 32 hhcurveto
            36 15 107 callgsubr
            14 28 callgsubr
            99 -47 46 -71 return
          </CharString>
          <CharString index="62">
            rmoveto
            24 hlineto
            23 8 5 12 10 hvcurveto
            28 46 27 -46 rlineto
            -12 9 9 -5 23 hhcurveto
            25 hlineto
            13 7 5 7 3 -3 9 -5 8 hvcurveto
            -50 71 rlineto
            15 -10 4 callgsubr
            return
          </CharString>
          <CharString index="63">
            32 14 24 29 42 vvcurveto
            63 -43 39 -68 -47 -52 -14 -25 -14 16 -25 10 vhcurveto
            8 13 18 38 hhcurveto
            36 15 -24 -26 -29 -20 -30 -43 hvcurveto
            -17 hlineto
            -11 -5 -7 -18 hvcurveto
            -9 vlineto
            return
          </CharString>
          <CharString index="64">
            21 hhcurveto
            25 hlineto
            12 return
          </CharString>
          <CharString index="65">
            19 -60 callsubr
            return
          </CharString>
          <CharString index="66">
            -186 -21 222 -21 26 -21 526 -20 hstemhm
            45 128 99 128 hintmask 10111100
            400 166 rmoveto
            330 129 callgsubr
            -26 hlineto
            -60 callgsubr
            hvcurveto
            -336 vlineto
            -30 -7 -18 -32 -32 hhcurveto
            -32 -10 27 47 hvcurveto
            324 -17 callsubr
            -27 hlineto
            -60 callgsubr
            hvcurveto
            -674 -51 callsubr
            27 38 callgsubr
            hintmask 11011100
            172 vlineto
            48 5 39 32 19 37 rrcurveto
            hintmask 10111100
            -27 5 0 -42 27 hhcurveto
            22 76 7 22 hvcurveto
            15 -9 28 95 vvcurveto
            endchar
          </CharString>
          <CharString index="67">
            -30 -30 callsubr
            return
          </CharString>
          <CharString index="68">
            -26 10 -11 24 vhcurveto
            return
          </CharString>
          <CharString index="69">
            88 -27 callsubr
            return
          </CharString>
          <CharString index="70">
            5 2 -12 callgsubr
            return
          </CharString>
          <CharString index="71">
            112 490 112 return
          </CharString>
          <CharString index="72">
            112 rmoveto
            476 77 vlineto
            79 42 -64 -174 -174 -42 -64 -79 hvcurveto
            return
          </CharString>
          <CharString index="73">
            vlineto
            -30 8 -13 return
          </CharString>
          <CharString index="74">
            39 128 143 129 return
          </CharString>
          <CharString index="75">
            -19 16 -10 37 vhcurveto
            return
          </CharString>
          <CharString index="76">
            16 -70 callsubr
            return
          </CharString>
          <CharString index="77">
            -7 -21 callsubr
            return
          </CharString>
          <CharString index="78">
            42 136 244 135 return
          </CharString>
          <CharString index="79">
            344 -1 rmoveto
            15 hlineto
            21 8 6 11 hvcurveto
            72 22 vlineto
            14 callgsubr
            -22 245 hlineto
            11 -8 6 -21 vhcurveto
            -23 hlineto
            -14 -12 -1 -11 -5 hvcurveto
            -136 -257 rlineto
            -1 -1 -3 -3 vvcurveto
            -14 10 -31 9 vhcurveto
            128 -72 hlineto
            -11 9 -6 20 vhcurveto
            -105 148 rmoveto
            79 155 2 -1 rlineto
            -3 -27 -2 -22 -28 vvcurveto
            -77 vlineto
            endchar
          </CharString>
          <CharString index="80">
            -7 -36 callsubr
            return
          </CharString>
          <CharString index="81">
            -15 -10 -19 return
          </CharString>
          <CharString index="82">
            25 2 51 69 75 vvcurveto
            22 -15 16 -31 vhcurveto
            -16 hlineto
            -32 -14 -16 -24 hvcurveto
            -47 -7 -37 -40 vvcurveto
            return
          </CharString>
          <CharString index="83">
            0 109 424 177 hstem
            30 519 vstem
            58 hmoveto
            462 hlineto
            19 10 12 21 hvcurveto
            35 vlineto
            15 -2 11 -5 14 vhcurveto
            -192 576 rlineto
            19 -6 -12 7 -16 hhcurveto
            -53 hlineto
            -17 -12 -8 -18 -5 hvcurveto
            -192 -576 rlineto
            -5 -14 -2 -11 -16 vvcurveto
            -34 vlineto
            -22 10 -11 18 vhcurveto
            104 109 rmoveto
            122 424 rlineto
            9 hlineto
            123 -424 rlineto
            endchar
          </CharString>
          <CharString index="84">
            17 8 -72 callsubr
            -8 13 -17 vhcurveto
            return
          </CharString>
          <CharString index="85">
            26 hlineto
            35 16 9 20 hvcurveto
            353 vlineto
            return
          </CharString>
          <CharString index="86">
            97 -70 -21 253 82 95 101 return
          </CharString>
          <CharString index="87">
            26 vlineto
            30 return
          </CharString>
          <CharString index="88">
            134 vstem
            115 -2 -11 callgsubr
            return
          </CharString>
          <CharString index="89">
            29 callgsubr
            155 -15 callsubr
            return
          </CharString>
          <CharString index="90">
            vlineto
            -1 callsubr
            return
          </CharString>
          <CharString index="91">
            26 callsubr
            157 hmoveto
            -55 callgsubr
            endchar
          </CharString>
          <CharString index="92">
            hstem
            -29 callsubr
            vstem
            return
          </CharString>
          <CharString index="93">
            -7 -9 -5 -14 hhcurveto
            -22 -27 6 38 return
          </CharString>
          <CharString index="94">
            -83 callgsubr
            -51 return
          </CharString>
          <CharString index="95">
            8 -46 callgsubr
            return
          </CharString>
          <CharString index="96">
            750 -107 callgsubr
            99 -757 rmoveto
            return
          </CharString>
          <CharString index="97">
            -12 13 -8 31 vhcurveto
            return
          </CharString>
          <CharString index="98">
            12 hlineto
            18 9 7 17 3 hvcurveto
            8 61 14 113 8 vvcurveto
            19 -16 10 -37 vhcurveto
            -10 hlineto
            -37 -23 callgsubr
            -7 vlineto
            22 -175 rlineto
            -17 return
          </CharString>
          <CharString index="99">
            23 callgsubr
            48 155 hstem
            -33 callsubr
            vstem
            return
          </CharString>
          <CharString index="100">
            859 rmoveto
            13 22 13 9 11 hvcurveto
            19 16 10 16 21 vvcurveto
            44 -40 23 -50 -35 -44 -15 -13 -13 19 -26 8 vhcurveto
            8 11 16 32 hhcurveto
            return
          </CharString>
          <CharString index="101">
            5 -19 -20 2 -20 hhcurveto
            -106 -70 -60 -116 -72 27 -50 46 -28 hvcurveto
            return
          </CharString>
          <CharString index="102">
            -7 -26 callgsubr
            return
          </CharString>
          <CharString index="103">
            -16 hlineto
            -36 -15 -16 -24 return
          </CharString>
          <CharString index="104">
            385 rmoveto
            28 hlineto
            36 15 10 18 hvcurveto
            83 -4 callgsubr
            -28 hlineto
            -60 callgsubr
            hvcurveto
            -83 vlineto
            -18 -30 callgsubr
            return
          </CharString>
          <CharString index="105">
            584 -72 callgsubr
            return
          </CharString>
          <CharString index="106">
            19 56 callgsubr
            return
          </CharString>
          <CharString index="107">
            852 rmoveto
            18 6 3 10 9 -8 21 -27 68 hvcurveto
            21 -9 -29 6 -32 hhcurveto
            -27 -12 -4 -14 -10 8 -9 62 -83 hvcurveto
            -10 return
          </CharString>
          <CharString index="108">
            28 -68 callsubr
            83 vlineto
            18 67 callsubr
            -28 16 callsubr
            -83 -51 callsubr
            endchar
          </CharString>
          <CharString index="109">
            -97 50 -59 90 vhcurveto
            35 97 rmoveto
            -39 -19 26 41 hvcurveto
            return
          </CharString>
          <CharString index="110">
            47 23 -13 7 -19 -14 -6 -8 -11 -5 hvcurveto
            -14 -7 -11 -24 -50 hhcurveto
            -47 -13 return
          </CharString>
          <CharString index="111">
            rmoveto
            -41 -19 -10 -19 hvcurveto
            -56 vlineto
            -19 19 -10 42 42 18 10 19 vhcurveto
            56 vlineto
            19 -19 10 -42 vhcurveto
            endchar
          </CharString>
          <CharString index="112">
            -28 callgsubr
            endchar
          </CharString>
          <CharString index="113">
            39 127 140 119 return
          </CharString>
          <CharString index="114">
            19 7 -46 callgsubr
            12 108 callsubr
            -103 161 hlineto
            19 -12 10 -29 vhcurveto
            -15 hlineto
            -28 -12 -10 -19 hvcurveto
            -161 -104 127 callsubr
            -12 22 callsubr
            104 return
          </CharString>
          <CharString index="115">
            16 11 15 18 18 -11 15 -16 -16 -12 -15 -18 -18 12 -15 16 hvcurveto
            return
          </CharString>
          <CharString index="116">
            55 27 -55 rlineto
            -11 6 return
          </CharString>
          <CharString index="117">
            hstemhm
            54 127 114 127 return
          </CharString>
          <CharString index="118">
            rmoveto
            hintmask 11101000
            16 81 49 57 52 -45 25 -59 -35 -44 -18 -13 -14 20 -25 8 hvcurveto
            7 11 12 25 hhcurveto
            17 17 -8 -16 hvcurveto
            hintmask 11110000
            -37 -66 -22 -21 vvcurveto
            -9 28 -12 19 vhcurveto
            return
          </CharString>
          <CharString index="119">
            -40 -212 101 114 104 322 101 -5 -20 return
          </CharString>
          <CharString index="120">
            rmoveto
            129 75 59 101 89 -59 29 -68 14 hvcurveto
            return
          </CharString>
          <CharString index="121">
            -13 -9 102 116 105 387 -20 return
          </CharString>
          <CharString index="122">
            rlineto
            4 10 3 7 6 vvcurveto
            return
          </CharString>
          <CharString index="123">
            hlineto
            -36 79 callsubr
            return
          </CharString>
          <CharString index="124">
            -7 62 callgsubr
            return
          </CharString>
          <CharString index="125">
            56 43 34 41 27 return
          </CharString>
          <CharString index="126">
            rmoveto
            26 callgsubr
            return
          </CharString>
          <CharString index="127">
            -140 -418 rmoveto
            -55 -11 74 86 113 23 49 53 25 18 -14 -13 13 hvcurveto
            -1 -14 -2 -23 -25 vvcurveto
            -163 vlineto
            -49 -14 -24 -21 -25 hhcurveto
            endchar
          </CharString>
          <CharString index="128">
            rmoveto
            35 27 23 40 41 -27 23 -35 -35 -26 -23 -41 -40 26 -23 35 hvcurveto
            endchar
          </CharString>
          <CharString index="129">
            -34 callsubr
            18 vhcurveto
            return
          </CharString>
          <CharString index="130">
            hhcurveto
            -38 -27 -27 -42 -15 hvcurveto
            -2 83 callsubr
            return
          </CharString>
          <CharString index="131">
            101 -35 callsubr
            return
          </CharString>
          <CharString index="132">
            -21 22 -21 275 122 192 112 return
          </CharString>
          <CharString index="133">
            rmoveto
            -55 callgsubr
            return
          </CharString>
          <CharString index="134">
            rmoveto
            71 52 44 79 54 -28 37 -41 15 hvcurveto
            2 vlineto
            return
          </CharString>
          <CharString index="135">
            -53 callgsubr
            50 145 return
          </CharString>
          <CharString index="136">
            hstem
            64 135 198 136 vstem
            return
          </CharString>
          <CharString index="137">
            56 callsubr
            vhcurveto
            -121 vlineto
            return
          </CharString>
          <CharString index="138">
            133 204 132 return
          </CharString>
          <CharString index="139">
            -212 92 551 92 -79 79 -79 86 return
          </CharString>
          <CharString index="140">
            192 -7 rmoveto
            47 40 28 43 23 hvcurveto
            return
          </CharString>
          <CharString index="141">
            59 122 228 122 return
          </CharString>
          <CharString index="142">
            72 -7 87 callsubr
            return
          </CharString>
          <CharString index="143">
            12 hlineto
            32 12 -70 callsubr
            324 vlineto
            19 -12 10 -32 vhcurveto
            -12 hlineto
            -31 -13 -10 -19 hvcurveto
            -324 vlineto
            -19 13 -10 31 vhcurveto
            return
          </CharString>
          <CharString index="144">
            -22 callsubr
            18 9 return
          </CharString>
          <CharString index="145">
            17 7 -46 callgsubr
            9 123 callgsubr
            -17 vhcurveto
            -335 hlineto
            -17 -7 -13 -30 hvcurveto
            -9 vlineto
            -30 7 -13 17 vhcurveto
            endchar
          </CharString>
          <CharString index="146">
            4 6 vvcurveto
            9 return
          </CharString>
          <CharString index="147">
            hlineto
            -17 -7 -13 -30 hvcurveto
            -7 vlineto
            0 -12 1 -9 2 -6 -2 -7 -1 -9 -12 flex1
            -7 vlineto
            -29 7 -14 17 vhcurveto
            return
          </CharString>
          <CharString index="148">
            -52 -7 116 483 115 return
          </CharString>
          <CharString index="149">
            1 112 rmoveto
            -81 -42 63 183 183 42 61 81 79 42 -61 -183 -183 -42 -63 -79 hvcurveto
            endchar
          </CharString>
          <CharString index="150">
            -20 54 callsubr
            return
          </CharString>
          <CharString index="151">
            5 vhcurveto
            -8 3 rlineto
            1 119 callsubr
            -10 return
          </CharString>
          <CharString index="152">
            -20 hstemhm
            39 129 128 126 return
          </CharString>
          <CharString index="153">
            4 vhcurveto
            -8 109 callsubr
            return
          </CharString>
          <CharString index="154">
            59 -7 87 callgsubr
            return
          </CharString>
          <CharString index="155">
            60 127 113 128 return
          </CharString>
          <CharString index="156">
            57 31 callsubr
            return
          </CharString>
          <CharString index="157">
            hlineto
            -37 -16 -10 -18 hvcurveto
            return
          </CharString>
          <CharString index="158">
            -4 1 -4 hhcurveto
            return
          </CharString>
          <CharString index="159">
            -71 84 callgsubr
            -5 155 90 callgsubr
            hintmask 11101110
            return
          </CharString>
          <CharString index="160">
            -20 73 callgsubr
            68 return
          </CharString>
          <CharString index="161">
            19 64 callgsubr
            return
          </CharString>
          <CharString index="162">
            0 28 callsubr
            return
          </CharString>
          <CharString index="163">
            69 51 26 77 return
          </CharString>
          <CharString index="164">
            -8 -13 -30 hvcurveto
            return
          </CharString>
          <CharString index="165">
            -7 75 callsubr
            return
          </CharString>
          <CharString index="166">
            rmoveto
            -14 callsubr
            return
          </CharString>
          <CharString index="167">
            hstemhm
            47 127 114 127 4 73 return
          </CharString>
          <CharString index="168">
            hstemhm
            43 117 return
          </CharString>
          <CharString index="169">
            -7 73 -49 -21 254 75 50 73 184 75 -4 -20 hstemhm
            37 90 86 89 85 89 87 89 return
          </CharString>
          <CharString index="170">
            -14 callsubr
            20 6 28 13 return
          </CharString>
          <CharString index="171">
            6 2 4 3 vvcurveto
            7 -5 3 return
          </CharString>
          <CharString index="172">
            hstemhm
            38 108 -94 107 -82 106 return
          </CharString>
          <CharString index="173">
            32 -68 callsubr
            return
          </CharString>
          <CharString index="174">
            -15 10 -36 vhcurveto
            return
          </CharString>
          <CharString index="175">
            241 18 callgsubr
            73 155 hstem
            10.62 732.38 vstem
            return
          </CharString>
          <CharString index="176">
            -1 27 49 -32 132 callsubr
            39 callsubr
            -4 8 return
          </CharString>
          <CharString index="177">
            rmoveto
            -42 callgsubr
            -59 callsubr
            return
          </CharString>
          <CharString index="178">
            -7 45 callgsubr
            return
          </CharString>
          <CharString index="179">
            174 -68 95 -132 -132 -68 -95 -174 return
          </CharString>
          <CharString index="180">
            hstem
            6 callsubr
            vstem
            return
          </CharString>
          <CharString index="181">
            rmoveto
            -43 callgsubr
            hvcurveto
            return
          </CharString>
          <CharString index="182">
            -36 callsubr
            43 145 return
          </CharString>
          <CharString index="183">
            142 callgsubr
            hintmask 11011100
            return
          </CharString>
          <CharString index="184">
            112 476 112 return
          </CharString>
          <CharString index="185">
            35 -47 callsubr
            return
          </CharString>
          <CharString index="186">
            -15 -10 -18 hvcurveto
            return
          </CharString>
          <CharString index="187">
            54 10 24 33 46 vvcurveto
            endchar
          </CharString>
          <CharString index="188">
            89 callsubr
            hvcurveto
            return
          </CharString>
          <CharString index="189">
            150 155 hstem
            32 385 vstem
            417 262 rmoveto
            30 -7 13 -16 vhcurveto
            return
          </CharString>
          <CharString index="190">
            -7 -1 -4 -4 vvcurveto
            -8 5 -9 12 -4 vhcurveto
            return
          </CharString>
          <CharString index="191">
            -106 -186 -21 732 -20 return
          </CharString>
          <CharString index="192">
            53 126 117 126 return
          </CharString>
          <CharString index="193">
            -21 424 101 134 102 return
          </CharString>
          <CharString index="194">
            112 597 -20 return
          </CharString>
          <CharString index="195">
            hstem
            64 126 vstem
            return
          </CharString>
          <CharString index="196">
            -34 callgsubr
            72 callsubr
            return
          </CharString>
          <CharString index="197">
            hhcurveto
            -47 callgsubr
            return
          </CharString>
          <CharString index="198">
            vvcurveto
            67 callgsubr
            return
          </CharString>
          <CharString index="199">
            118 -22 87 -41 58 return
          </CharString>
          <CharString index="200">
            hstem
            64 133 return
          </CharString>
          <CharString index="201">
            33 hlineto
            35 15 return
          </CharString>
          <CharString index="202">
            13 5 10 0 15 0 15 -5 10 13 flex1
            -102 155 rlineto
            10 return
          </CharString>
          <CharString index="203">
            -20 callgsubr
            hintmask 01111110
            return
          </CharString>
          <CharString index="204">
            hstemhm
            39 128 16 121 6 129 return
          </CharString>
          <CharString index="205">
            -54 105 callgsubr
            return
          </CharString>
          <CharString index="206">
            19 102 callgsubr
            return
          </CharString>
          <CharString index="207">
            -18 57 callsubr
            return
          </CharString>
          <CharString index="208">
            -35 38 -9 51 vhcurveto
            endchar
          </CharString>
          <CharString index="209">
            235 0 112 42 112 36 112 174 112 return
          </CharString>
          <CharString index="210">
            -14 callsubr
            20 6 29 14 27 hvcurveto
            return
          </CharString>
          <CharString index="211">
            -580 -36 callgsubr
            return
          </CharString>
          <CharString index="212">
            -10 hvcurveto
            -12 -6 -9 -7 -5 vvcurveto
            -10 return
          </CharString>
          <CharString index="213">
            hhcurveto
            -132 -68 -95 -174 return
          </CharString>
          <CharString index="214">
            -20 22 -20 hstemhm
            110 74 return
          </CharString>
          <CharString index="215">
            123 callgsubr
            -19 vhcurveto
            return
          </CharString>
          <CharString index="216">
            3 rlineto
            2 -4 -4 1 return
          </CharString>
          <CharString index="217">
            126 -122 121 return
          </CharString>
          <CharString index="218">
            578 155 hstem
            return
          </CharString>
          <CharString index="219">
            61 callsubr
            -17 53 81 53 -42 126 hintmask 0000000000000000
            return
          </CharString>
          <CharString index="220">
            vlineto
            44 141 25 190 185 -121 26 -73 hvcurveto
            return
          </CharString>
          <CharString index="221">
            116 callsubr
            hvcurveto
            return
          </CharString>
          <CharString index="222">
            vlineto
            18 -15 10 return
          </CharString>
          <CharString index="223">
            27 -37 -46 16 -62 90 callsubr
            return
          </CharString>
          <CharString index="224">
            3 -8 hhcurveto
            -17 -35 -18 -21 -6 3 -7 5 -8 hvcurveto
            return
          </CharString>
          <CharString index="225">
            hlineto
            19 8 10 23 hvcurveto
            7 vlineto
            23 -8 9 -19 vhcurveto
            return
          </CharString>
          <CharString index="226">
            -4 51 callsubr
            -9 -7 -6 return
          </CharString>
          <CharString index="227">
            19 -21 527 -20 return
          </CharString>
          <CharString index="228">
            3 -24 hhcurveto
            -7 hlineto
            return
          </CharString>
          <CharString index="229">
            vlineto
            -19 16 -10 return
          </CharString>
          <CharString index="230">
            -20 73 155 return
          </CharString>
          <CharString index="231">
            93 callgsubr
            110 callsubr
            return
          </CharString>
          <CharString index="232">
            -18 -8 -12 -31 hvcurveto
            -15 22 callsubr
            return
          </CharString>
          <CharString index="233">
            -20 -42 callsubr
            return
          </CharString>
          <CharString index="234">
            vlineto
            100 callsubr
            return
          </CharString>
          <CharString index="235">
            -103 17 callsubr
            return
          </CharString>
          <CharString index="236">
            -21 525 -20 return
          </CharString>
          <CharString index="237">
            28 -16 42 hhcurveto
            102 64 95 171 171 return
          </CharString>
          <CharString index="238">
            58 hstemhm
            39 128 109 78 -44 129 return
          </CharString>
          <CharString index="239">
            34 hhcurveto
            37 28 28 41 15 hvcurveto
            1 5 1 return
          </CharString>
          <CharString index="240">
            62 callgsubr
            43 145 return
          </CharString>
          <CharString index="241">
            19 hvcurveto
            42 callgsubr
            -15 return
          </CharString>
          <CharString index="242">
            -20 hstemhm
            59 126 return
          </CharString>
          <CharString index="243">
            hstemhm
            62 132 136 129 hintmask 01111110
            return
          </CharString>
          <CharString index="244">
            -21 590 112 hstemhm
            160 134 return
          </CharString>
          <CharString index="245">
            471 0 101 -101 112 310 101 return
          </CharString>
          <CharString index="246">
            89 21 -21 217 94 217 -20 hstem
            return
          </CharString>
          <CharString index="247">
            18 33 19 19 7 -3 7 -4 8 hvcurveto
            return
          </CharString>
          <CharString index="248">
            175 134 return
          </CharString>
          <CharString index="249">
            -7 101 -80 -21 return
          </CharString>
        <CharString name=".notdef">
          3 0 50 600 50 hstem
          7 49 400 51 vstem
          7 hmoveto
          500 700 -500 hlineto
          250 -305 rmoveto
          -171 255 rlineto
          340 hlineto
          -370 -555 rmoveto
          510 vlineto
          171 -255 rlineto
          229 -255 rmoveto
          -169 255 169 255 rlineto
          -369 -555 rmoveto
          169 255 171 -255 rlineto
          endchar
        </CharString>
        <CharString name="A">
          -6 -42 callsubr
          142 callgsubr
          hintmask 11011000
          50 -2 -107 callsubr
          hintmask 11101000
          -91 callgsubr
          endchar
        </CharString>
        <CharString name="AE">
          102 callsubr
          hstem
          2 696 vstem
          54 -2 -48 callgsubr
        </CharString>
        <CharString name="AEacute">
          102 callsubr
          55 155 hstem
          2 696 vstem
          378 755 rmoveto
          -106 callgsubr
          -324 -757 -48 callgsubr
        </CharString>
        <CharString name="Aacute">
          -6 73 callgsubr
          155 76 callsubr
          237 755 rmoveto
          -106 callgsubr
          -187 -757 -93 callgsubr
        </CharString>
        <CharString name="Abreve">
          -6 73 callgsubr
          83 76 callsubr
          252 755 -103 callsubr
          -202 -757 -93 callgsubr
        </CharString>
        <CharString name="Acircumflex">
          -6 54 callsubr
          76 callsubr
          154 750 -107 callgsubr
          -104 -752 -93 callgsubr
        </CharString>
        <CharString name="Adieresis">
          -6 -42 callsubr
          83 114 hstemhm
          128 102 48 102 hintmask 11011110
          180 765 -102 callsubr
          -279 -767 -107 callsubr
          hintmask 11101110
          -91 callgsubr
          endchar
        </CharString>
        <CharString name="Agrave">
          -6 73 callgsubr
          155 76 callsubr
          271 755 -102 callgsubr
          -221 -757 -93 callgsubr
        </CharString>
        <CharString name="Amacron">
          -6 -42 callsubr
          97 87 76 callsubr
          158 779 -84 callsubr
          -108 -781 -93 callgsubr
        </CharString>
        <CharString name="Aogonek">
          -6 -170 67 122 -60 callsubr
          hstemhm
          341 65 hintmask 11101100
          485 -98 59 callsubr
          15 4 21 8 21 hvcurveto
          40 hlineto
          29 12 8 12 5 -1 5 -1 7 hvcurveto
          -163 642 rlineto
          17 -5 -17 8 -33 hhcurveto
          -53 hlineto
          -31 -19 -8 -17 -4 hvcurveto
          -164 -642 rlineto
          -1 -7 -1 -5 -5 vvcurveto
          -10 callsubr
          -76 callsubr
          31 -133 rlineto
          -22 -37 -7 -39 -23 -63 callsubr
          -301 358 rmoveto
          hintmask 11110100
          -91 callgsubr
          endchar
        </CharString>
        <CharString name="Aring">
          -6 -42 callsubr
          50 53 82 53 hstemhm
          158 53 81 53 hintmask 00000000
          hintmask 11011111
          251 732 rmoveto
          -67 callsubr
          -202 -787 rmoveto
          20 callgsubr
          hintmask 11010111
          -163 642 rlineto
          17 -5 -17 8 -33 hhcurveto
          -53 hlineto
          -31 -19 -8 -17 -4 hvcurveto
          -164 -642 rlineto
          -1 -7 -1 -5 -5 vvcurveto
          hintmask 11011111
          -10 callsubr
          134 262 rmoveto
          hintmask 11100111
          -91 callgsubr
          endchar
        </CharString>
        <CharString name="Aringacute">
          -6 19 -21 156 106 539 53 hstem
          159 53 81 53 vstem
          239 872 rmoveto
          29 11 -8 callgsubr
          -10 vhcurveto
          -28 -69 -10 -20 -9 vvcurveto
          -10 6 -3 16 vhcurveto
          258 -837 rmoveto
          -163 642 -2 6 -3 6 -6 3 rlinecurve
          15 17 8 23 26 vvcurveto
          55 -35 39 -59 -57 -36 -39 -55 -27 8 -22 15 -17 vhcurveto
          -5 -4 -4 -5 -1 -6 -164 -642 rcurveline
          -1 -7 -1 -5 -5 vvcurveto
          -10 callsubr
          20 callgsubr
          -244 764 rmoveto
          25 15 -16 -26 -26 -15 -14 -25 -26 -14 14 26 -1 hvcurveto
          26 1 14 16 26 hhcurveto
          -69 -539 rmoveto
          -91 callgsubr
          endchar
        </CharString>
        <CharString name="Atilde">
          -6 -42 callsubr
          80 75 -42 75 142 callgsubr
          hintmask 11010110
          124 -1 callgsubr
          hintmask 11011010
          -103 callgsubr
          hintmask 11010110
          -88 callgsubr
          -64 -767 -107 callsubr
          hintmask 11100110
          -91 callgsubr
          endchar
        </CharString>
        <CharString name="B">
          28 0 105 200 104 186 105 hstemhm
          64 128 158 128 -109 130 hintmask 11110100
          98 hmoveto
          179 hlineto
          150 72 76 122 100 -58 50 -53 16 hvcurveto
          4 vlineto
          hintmask 11111000
          51 26 39 57 77 vvcurveto
          107 -63 65 -140 vhcurveto
          -177 hlineto
          -24 -10 -11 -25 hvcurveto
          -627 vlineto
          hintmask 11110100
          -39 callsubr
          94 409 rmoveto
          186 vlineto
          hintmask 11111000
          82 hlineto
          52 24 -26 -64 -61 -27 -35 -50 hvcurveto
          -81 -304 rmoveto
          200 vlineto
          hintmask 11110100
          90 hlineto
          58 29 -30 -66 -70 -29 -34 -53 hvcurveto
          endchar
        </CharString>
        <CharString name="C">
          41 callsubr
          hstem
          41 137 vstem
          306 -7 -85 callsubr
        </CharString>
        <CharString name="CR">
          -271 endchar
        </CharString>
        <CharString name="Cacute">
          41 callsubr
          48 155 hstem
          41 137 vstem
          281 755 rmoveto
          -106 callgsubr
          25 -762 -85 callsubr
        </CharString>
        <CharString name="Cacute.loclPLK">
          41 callsubr
          48 155 hstem
          41 137 vstem
          282 755 -82 callgsubr
          24 -762 -85 callsubr
        </CharString>
        <CharString name="Ccaron">
          41 callsubr
          46 144 hstem
          41 137 vstem
          293 753 -105 callgsubr
          13 -760 -85 callsubr
        </CharString>
        <CharString name="Ccedilla">
          -52 -211 64 141 115 483 115 hstem
          41 137 125 84 vstem
          393 124 rmoveto
          -8 -22 -21 -7 -33 hhcurveto
          -97 -42 80 162 163 44 78 92 31 24 -7 -7 17 hvcurveto
          26 -11 15 52 34 vvcurveto
          1 19 -5 15 -22 7 rrcurveto
          7 -20 -35 6 -37 hhcurveto
          -182 -86 -116 -240 -232 72 -113 163 -12 hvcurveto
          -18 -50 -5 -15 -8 100 callgsubr
          -56 callgsubr
          12 46 34 3 28 7 16 6 rlinecurve
          23 9 4 14 16 vvcurveto
          44 -14 42 -30 -11 vhcurveto
          endchar
        </CharString>
        <CharString name="Ccircumflex">
          41 callsubr
          43 145 hstem
          41 137 vstem
          198 750 -107 callgsubr
          108 -757 -85 callsubr
        </CharString>
        <CharString name="Cdotaccent">
          41 callsubr
          58 114 hstem
          41 137 59 121 vstem
          298 765 -106 callsubr
          8 -772 -85 callsubr
        </CharString>
        <CharString name="D">
          66 49 callgsubr
          29 callsubr
          98 hmoveto
          -58 callsubr
          101 21 callgsubr
        </CharString>
        <CharString name="Dcaron">
          66 49 callgsubr
          53 144 29 callsubr
          275 753 -105 callgsubr
          -177 -753 rmoveto
          -58 callsubr
          101 21 callgsubr
        </CharString>
        <CharString name="Dcroat">
          -40 callgsubr
        </CharString>
        <CharString name="E">
          -37 callgsubr
          78 callgsubr
          98 hmoveto
          -104 callgsubr
          endchar
        </CharString>
        <CharString name="Eacute">
          -37 callgsubr
          55 155 78 callgsubr
          231 755 rmoveto
          -106 callgsubr
          -133 -755 rmoveto
          -104 callgsubr
          endchar
        </CharString>
        <CharString name="Ebreve">
          -37 callgsubr
          55 83 78 callgsubr
          246 755 -103 callsubr
          -148 -755 rmoveto
          -104 callgsubr
          endchar
        </CharString>
        <CharString name="Ecaron">
          -37 callgsubr
          53 144 78 callgsubr
          243 753 -105 callgsubr
          -145 -753 rmoveto
          -104 callgsubr
          endchar
        </CharString>
        <CharString name="Ecircumflex">
          -54 55 callsubr
          78 callgsubr
          148 750 -107 callgsubr
          -50 -750 rmoveto
          -104 callgsubr
          endchar
        </CharString>
        <CharString name="Edieresis">
          -37 callgsubr
          65 114 136 callgsubr
          -75 102 48 102 hintmask 00000000
          hintmask 11110110
          174 765 -102 callsubr
          hintmask 11101010
          -225 -765 rmoveto
          -104 callgsubr
          endchar
        </CharString>
        <CharString name="Edotaccent">
          -37 callgsubr
          65 114 136 callgsubr
          -10 121 hintmask 00000000
          hintmask 11110100
          248 765 -106 callsubr
          hintmask 11101000
          -150 -765 rmoveto
          -104 callgsubr
          endchar
        </CharString>
        <CharString name="Egrave">
          -37 callgsubr
          55 155 78 callgsubr
          265 755 -102 callgsubr
          -167 -755 rmoveto
          -104 callgsubr
          endchar
        </CharString>
        <CharString name="Emacron">
          -37 callgsubr
          79 87 78 callgsubr
          152 779 -84 callsubr
          -54 -779 rmoveto
          -104 callgsubr
          endchar
        </CharString>
        <CharString name="Eng">
          79 -212 101 130 52 callgsubr
          hstem
          34 callsubr
          vstem
          480 702 rmoveto
          -87 callsubr
          20 -68 callsubr
          370 vlineto
          23 -3 22 -5 23 vhcurveto
          5 2 8 -21 8 -22 11 -20 rlinecurve
          205 -379 rlineto
          -84 vlineto
          -39 -11 -13 -23 vhcurveto
          -15 -11 5 -6 hhcurveto
          -19 -9 -44 -18 -35 39 -9 50 65 61 42 110 hvcurveto
          733 129 callgsubr
          endchar
        </CharString>
        <CharString name="Eogonek">
          -54 -177 67 110 -53 callgsubr
          93 callsubr
          128 65 vstem
          469 -105 54 callgsubr
          27 hvcurveto
          5 7 2 11 16 vvcurveto
          -104 callsubr
          248 hlineto
          -16 -33 -5 -32 -20 -63 callsubr
          endchar
        </CharString>
        <CharString name="Eth">
          -40 callgsubr
        </CharString>
        <CharString name="Euro">
          -8 -7 115 126 72 82 72 132 115 hstem
          57 136 vstem
          310 -7 rmoveto
          94 79 43 37 15 -22 57 -29 hvcurveto
          -15 -34 -37 -66 hhcurveto
          -59 -40 40 86 -16 hvcurveto
          189 118 callsubr
          -198 hlineto
          -1 15 0 14 0 16 0 12 0 13 12 flex1
          198 118 callsubr
          -191 hlineto
          91 16 39 41 63 64 29 -31 12 hhcurveto
          21 32 55 24 27 -72 40 -90 -145 -83 -81 -166 -23 hvcurveto
          -35 116 callgsubr
          29 hlineto
          -1 -12 0 -12 0 -13 0 -15 0 -15 -15 flex1
          -29 116 callgsubr
          35 hlineto
          -165 23 79 -76 145 hhcurveto
          endchar
        </CharString>
        <CharString name="F">
          -88 19 -21 304 112 174 112 78 callgsubr
          115 -2 rmoveto
          31 hlineto
          37 14 -70 callsubr
          275 159 vlineto
          -23 callsubr
          -159 174 171 hlineto
          -23 callsubr
          -270 hlineto
          -24 -10 -11 -26 hvcurveto
          -636 -51 callsubr
          endchar
        </CharString>
        <CharString name="G">
          41 -7 34 callgsubr
          104 callgsubr
          462 400 -79 callsubr
          endchar
        </CharString>
        <CharString name="Gbreve">
          41 -7 34 callgsubr
          48 83 104 callgsubr
          295 755 -103 callsubr
          167 -355 -79 callsubr
          endchar
        </CharString>
        <CharString name="Gcircumflex">
          41 -7 34 callgsubr
          43 145 104 callgsubr
          197 750 -107 callgsubr
          265 -350 -79 callsubr
          endchar
        </CharString>
        <CharString name="Gcommaaccent">
          41 -217 -21 231 34 callgsubr
          hstemhm
          41 137 73 109 6 130 hintmask 11111010
          462 400 -79 callsubr
          hintmask 11111100
          -144 -451 rmoveto
          -4 callsubr
          hvcurveto
          -78 -17 -30 -20 vvcurveto
          -14 23 -5 16 28 59 71 78 22 -12 16 -30 vhcurveto
          endchar
        </CharString>
        <CharString name="Gdotaccent">
          41 -7 34 callgsubr
          58 114 hstemhm
          41 137 58 121 9 130 hintmask 00000000
          hintmask 11111110
          297 765 -106 callsubr
          hintmask 11101010
          165 -365 -79 callsubr
          endchar
        </CharString>
        <CharString name="H">
          89 19 -21 303 113 288 -20 130 callgsubr
          203 -19 callsubr
          endchar
        </CharString>
        <CharString name="Hbar">
          75 19 -21 303 113 67 87 134 -20 130 callgsubr
          203 134 vstem
          542 568 rmoveto
          -7 105 hlineto
          39 callgsubr
          -32 hlineto
          -60 callgsubr
          hvcurveto
          -105 -203 105 -17 callsubr
          -33 hlineto
          -60 callgsubr
          hvcurveto
          -105 -18 vlineto
          -18 -8 -11 -26 hvcurveto
          -13 vlineto
          -26 8 -11 18 vhcurveto
          18 -454 hlineto
          -45 callgsubr
          33 38 callgsubr
          274 203 -274 -51 callsubr
          66 callsubr
          454 7 vlineto
          19 7 11 26 hvcurveto
          13 vlineto
          26 -7 11 -19 vhcurveto
          -141 -154 rmoveto
          -203 67 203 hlineto
          endchar
        </CharString>
        <CharString name="Hcircumflex">
          89 19 -21 303 113 288 -20 68 145 130 callgsubr
          203 134 vstem
          201 750 -107 callgsubr
          -86 -752 -11 callgsubr
          endchar
        </CharString>
        <CharString name="I">
          15 callgsubr
          111 callgsubr
          27 callgsubr
          endchar
        </CharString>
        <CharString name="IJ">
          106 -7 114 -89 -21 706 -20 hstemhm
          64 134 223 134 hintmask 01111000
          27 callgsubr
          hintmask 10111000
          261 -4 -63 callgsubr
          endchar
        </CharString>
        <CharString name="Iacute">
          15 callgsubr
          72 155 111 callgsubr
          115 755 rmoveto
          -106 callgsubr
          -758 vmoveto
          -79 callgsubr
          endchar
        </CharString>
        <CharString name="Iacute_J.loclNLD">
          106 -7 114 -89 -21 706 -20 72 155 hstemhm
          64 134 223 134 hintmask 01111100
          115 755 rmoveto
          -106 callgsubr
          356 hmoveto
          -106 callgsubr
          -356 -758 -77 callgsubr
          hintmask 10111100
          261 -4 -63 callgsubr
          endchar
        </CharString>
        <CharString name="Ibreve">
          15 callgsubr
          72 83 111 callgsubr
          130 755 -103 callsubr
          -15 -758 -77 callgsubr
          endchar
        </CharString>
        <CharString name="Icircumflex">
          15 callgsubr
          67 145 111 callgsubr
          32 750 -107 callgsubr
          83 -753 -77 callgsubr
          endchar
        </CharString>
        <CharString name="Idieresis">
          15 callgsubr
          82 114 hstemhm
          6 102 -44 134 -42 102 hintmask 00000000
          hintmask 11110100
          58 765 -102 callsubr
          hintmask 11101000
          -92 -768 -77 callgsubr
          endchar
        </CharString>
        <CharString name="Idotaccent">
          15 callgsubr
          82 114 hstemhm
          64 134 -127 121 hintmask 00000000
          hintmask 11101000
          132 765 -106 callsubr
          hintmask 11110000
          -17 -768 -77 callgsubr
          endchar
        </CharString>
        <CharString name="Igrave">
          15 callgsubr
          72 155 111 callgsubr
          149 755 -102 callgsubr
          -34 -758 -77 callgsubr
          endchar
        </CharString>
        <CharString name="Imacron">
          15 callgsubr
          96 87 111 callgsubr
          36 779 -84 callsubr
          79 -782 -77 callgsubr
          endchar
        </CharString>
        <CharString name="Iogonek">
          -249 -173 67 124 -21 706 -20 111 callgsubr
          253 -101 59 callsubr
          19 5 27 13 26 hvcurveto
          4 4 2 6 7 vvcurveto
          -74 callsubr
          12 hlineto
          -14 -30 -4 -30 -18 -63 callsubr
          endchar
        </CharString>
        <CharString name="Itilde">
          15 callgsubr
          79 95 callgsubr
          64 134 hintmask 00000000
          hintmask 11011000
          2 -1 callgsubr
          hintmask 11101000
          -103 callgsubr
          hintmask 11011000
          -88 callgsubr
          123 -768 -77 callgsubr
          endchar
        </CharString>
        <CharString name="J">
          -156 -7 114 596 -20 hstem
          159 134 vstem
          114 -7 -63 callgsubr
          endchar
        </CharString>
        <CharString name="Jcircumflex">
          -156 -7 114 596 -20 67 145 hstem
          159 134 vstem
          126 750 -107 callgsubr
          -12 -757 -63 callgsubr
          endchar
        </CharString>
        <CharString name="K">
          -1 18 callgsubr
          111 callgsubr
          -33 callgsubr
          endchar
        </CharString>
        <CharString name="Kcommaaccent">
          -1 -217 -21 257 52 callgsubr
          hstemhm
          64 134 8 109 hintmask 11110000
          -33 callgsubr
          hintmask 11111000
          -281 -270 -83 callsubr
          endchar
        </CharString>
        <CharString name="L">
          -103 0 135 callgsubr
          78 callgsubr
          98 hmoveto
          -66 callsubr
          endchar
        </CharString>
        <CharString name="Lacute">
          -103 0 135 callgsubr
          74 155 78 callgsubr
          117 756 rmoveto
          -106 callgsubr
          -19 -756 rmoveto
          -66 callsubr
          endchar
        </CharString>
        <CharString name="Lcaron">
          -103 0 112 588 -20 22 -20 136 callgsubr
          67 108 hintmask 10111000
          98 hmoveto
          -66 callsubr
          198 516 rmoveto
          hintmask 11011000
          -25 callsubr
          hintmask 10111000
          67 callgsubr
          endchar
        </CharString>
        <CharString name="Lcommaaccent">
          -103 -217 -21 238 135 callgsubr
          136 callgsubr
          -30 109 hintmask 11110000
          98 hmoveto
          -66 callsubr
          hintmask 11101000
          91 -238 -83 callsubr
          endchar
        </CharString>
        <CharString name="Ldot">
          -103 0 112 184 127 279 -20 93 callsubr
          48 123 vstem
          98 hmoveto
          -66 callsubr
          208 296 21 callsubr
        </CharString>
        <CharString name="Lslash">
          -103 0 135 callgsubr
          78 callgsubr
          367 112 rmoveto
          -170 304 hlineto
          1 3 1 4 4 vvcurveto
          11 vlineto
          4 -1 2 -1 1 vhcurveto
          228 vlineto
          19 -14 10 -37 vhcurveto
          -31 hlineto
          -60 callgsubr
          hvcurveto
          -636 vlineto
          -39 callsubr
          269 hlineto
          18 8 13 30 hvcurveto
          26 128 callgsubr
          endchar
        </CharString>
        <CharString name="M">
          178 18 callgsubr
          hstem
          59 129 313 128 vstem
          333 229 rmoveto
          23 hlineto
          17 9 6 14 8 hvcurveto
          88 170 10 17 8 19 7 18 rlinecurve
          4 -1 rlineto
          -3 -20 -3 -21 -20 vvcurveto
          -384 vlineto
          -20 15 -9 36 vhcurveto
          26 hlineto
          37 14 9 20 hvcurveto
          646 vlineto
          20 -14 9 -37 vhcurveto
          -27 hlineto
          -28 -15 -7 -18 -10 hvcurveto
          -136 -262 -8 -15 -6 -17 -3 -16 rlinecurve
          -5 16 -5 17 -8 15 -137 262 rcurveline
          18 -9 -15 7 -28 hhcurveto
          -28 hlineto
          -36 -15 -9 -20 hvcurveto
          -646 vlineto
          -20 15 -9 36 vhcurveto
          27 hlineto
          36 15 9 20 hvcurveto
          384 vlineto
          20 -3 21 -3 20 vhcurveto
          4 1 8 -18 7 -19 9 -17 rlinecurve
          89 -170 rlineto
          -14 7 9 -6 18 hhcurveto
          endchar
        </CharString>
        <CharString name="N">
          79 18 callgsubr
          hstem
          34 callsubr
          vstem
          110 -2 -101 callgsubr
          endchar
        </CharString>
        <CharString name="Nacute">
          79 18 callgsubr
          73 155 hstem
          34 callsubr
          vstem
          279 755 rmoveto
          -106 callgsubr
          -169 -757 -101 callgsubr
          endchar
        </CharString>
        <CharString name="Nacute.loclPLK">
          79 18 callgsubr
          73 155 hstem
          34 callsubr
          vstem
          280 755 -82 callgsubr
          -170 -757 -101 callgsubr
          endchar
        </CharString>
        <CharString name="Ncaron">
          79 18 callgsubr
          71 144 hstem
          34 callsubr
          vstem
          291 753 -105 callgsubr
          -181 -755 -101 callgsubr
          endchar
        </CharString>
        <CharString name="Ncommaaccent">
          79 -217 -21 257 52 callgsubr
          hstem
          59 122 59 109 60 122 vstem
          110 -2 -101 callgsubr
          152 -236 -83 callsubr
          endchar
        </CharString>
        <CharString name="Ntilde">
          79 18 callgsubr
          80 95 callgsubr
          34 callsubr
          hintmask 00000000
          hintmask 11011100
          166 -1 callgsubr
          hintmask 11101100
          -103 callgsubr
          hintmask 11011100
          -88 callgsubr
          -46 -767 -101 callgsubr
          endchar
        </CharString>
        <CharString name="O">
          -38 callsubr
          -15 callsubr
          300 -7 -90 callgsubr
        </CharString>
        <CharString name="OE">
          320 -7 112 -105 -53 callgsubr
          -105 112 hstemhm
          41 137 242 134 hintmask 01110110
          765 112 rmoveto
          -211 190 188 hlineto
          19 7 13 30 hvcurveto
          26 108 callsubr
          -188 174 210 hlineto
          18 7 -72 callsubr
          -7 13 -18 vhcurveto
          -309 hlineto
          -24 -10 -11 -24 hvcurveto
          -7 vlineto
          hintmask 10101110
          35 -39 -43 14 -53 hhcurveto
          -153 -92 -107 -249 -249 93 -109 151 53 43 15 35 40 hvcurveto
          -6 vlineto
          hintmask 01110110
          -39 callsubr
          310 hlineto
          -23 callsubr
          hintmask 10101110
          -466 -7 rmoveto
          -80 -41 63 183 184 41 60 80 80 41 -60 -184 -183 -41 -63 -80 hvcurveto
          endchar
        </CharString>
        <CharString name="Oacute">
          0 callgsubr
          16 -762 -90 callgsubr
        </CharString>
        <CharString name="Oacute.loclPLK">
          -18 callsubr
          285 755 -82 callgsubr
          15 -762 -90 callgsubr
        </CharString>
        <CharString name="Obreve">
          29 callgsubr
          83 -15 callsubr
          299 755 -103 callsubr
          1 -762 -90 callgsubr
        </CharString>
        <CharString name="Ocircumflex">
          88 58 callsubr
          hstem
          42 136 244 -48 callsubr
          endchar
        </CharString>
        <CharString name="Odieresis">
          -38 callsubr
          58 114 hstemhm
          42 136 -3 102 48 102 -5 135 hintmask 00000000
          hintmask 11101100
          227 765 -102 callsubr
          hintmask 11110010
          -76 -772 -90 callgsubr
        </CharString>
        <CharString name="Ograve">
          -18 callsubr
          318 755 -102 callgsubr
          -18 -762 -90 callgsubr
        </CharString>
        <CharString name="Ohorn">
          -38 callsubr
          -93 39 60 callgsubr
          hintmask 11011000
          300 -7 74 callsubr
          hintmask 10111000
          92 callsubr
          vhcurveto
          hintmask 10110100
          -66 callgsubr
          hintmask 11011000
          27 -37 -46 16 -62 hhcurveto
          -101 callsubr
          endchar
        </CharString>
        <CharString name="Ohungarumlaut">
          -18 callsubr
          199 755 -13 callsubr
          -762 -90 callgsubr
        </CharString>
        <CharString name="Omacron">
          -38 callsubr
          72 87 -15 callsubr
          205 779 -84 callsubr
          95 -786 -90 callgsubr
        </CharString>
        <CharString name="Oslash">
          -38 callsubr
          -15 callsubr
          498 610 -51 callgsubr
        </CharString>
        <CharString name="Oslashacute">
          0 callgsubr
          214 -145 -51 callgsubr
        </CharString>
        <CharString name="Otilde">
          -38 callsubr
          55 75 -42 75 91 callgsubr
          hintmask 00000000
          hintmask 11011100
          171 -1 callgsubr
          hintmask 11101100
          -103 callgsubr
          hintmask 11011100
          -88 callgsubr
          139 -772 -90 callgsubr
        </CharString>
        <CharString name="P">
          19 -21 276 111 203 112 hstem
          61 132 138 130 vstem
          114 -2 rmoveto
          27 hlineto
          37 -47 callsubr
          247 83 113 callsubr
          -170 hlineto
          -25 -11 -11 -26 hvcurveto
          -636 -16 callgsubr
          78 387 rmoveto
          203 69 vlineto
          31 39 -18 -81 -86 -40 -18 -28 hvcurveto
          endchar
        </CharString>
        <CharString name="Q">
          88 595 112 -15 callsubr
          526 -162 rmoveto
          29 29 70 14 2 hvcurveto
          7 -3 6 -9 4 vhcurveto
          -158 76 rlineto
          4 vlineto
          92 43 49 107 181 vvcurveto
          247 -92 110 -165 -165 -93 -109 -248 -182 49 -106 95 -47 vhcurveto
          -104 211 115 -73 14 hhcurveto
          -225 265 rmoveto
          -81 -42 63 184 183 42 62 81 79 42 -62 -183 -184 -42 -63 -79 hvcurveto
          endchar
        </CharString>
        <CharString name="R">
          117 callgsubr
          hstemhm
          62 132 136 129 hintmask 00000000
          hintmask 10111100
          114 -2 -7 callgsubr
          hintmask 01111100
          -69 callgsubr
          hintmask 10111100
          -636 16 callgsubr
          79 398 rmoveto
          hintmask 01111100
          10 callgsubr
          endchar
        </CharString>
        <CharString name="Racute">
          117 callgsubr
          55 155 136 callsubr
          236 755 rmoveto
          -106 callgsubr
          hintmask 10111110
          -122 -757 -7 callgsubr
          hintmask 01111110
          -69 callgsubr
          hintmask 10111110
          -636 16 callgsubr
          79 398 rmoveto
          hintmask 01111110
          10 callgsubr
          endchar
        </CharString>
        <CharString name="Rcaron">
          117 callgsubr
          53 144 136 callsubr
          248 753 -105 callgsubr
          hintmask 10111110
          -134 -755 -7 callgsubr
          hintmask 01111110
          -69 callgsubr
          hintmask 10111110
          -636 16 callgsubr
          79 398 rmoveto
          hintmask 01111110
          10 callgsubr
          endchar
        </CharString>
        <CharString name="Rcommaaccent">
          2 -217 -21 257 25 callsubr
          hstemhm
          62 132 10 109 17 129 hintmask 00000000
          hintmask 11011101
          114 -2 -7 callgsubr
          hintmask 10111101
          -69 callgsubr
          hintmask 11011101
          -636 16 callgsubr
          79 398 rmoveto
          hintmask 10111101
          10 callgsubr
          hintmask 10111111
          -39 -634 -83 callsubr
          endchar
        </CharString>
        <CharString name="S">
          65 callgsubr
          47 callgsubr
          204 -7 -88 callsubr
        </CharString>
        <CharString name="Sacute">
          65 callgsubr
          46 155 47 callgsubr
          210 755 rmoveto
          -106 callgsubr
          -6 -762 -88 callsubr
        </CharString>
        <CharString name="Sacute.loclPLK">
          65 callgsubr
          46 155 47 callgsubr
          211 755 -82 callgsubr
          -7 -762 -88 callsubr
        </CharString>
        <CharString name="Scaron">
          65 callgsubr
          44 144 47 callgsubr
          222 753 -105 callgsubr
          -18 -760 -88 callsubr
        </CharString>
        <CharString name="Scedilla">
          -74 -211 64 140 113 -92 -21 602 114 hstemhm
          39 132 49 84 -16 130 hintmask 10111010
          418 199 rmoveto
          109 -54 48 -85 47 vhcurveto
          -59 33 -49 21 65 vvcurveto
          39 26 34 59 21 23 -3 -13 31 vhcurveto
          -4 10 8 -3 5 hhcurveto
          21 15 51 25 11 -4 9 -10 7 hvcurveto
          21 -30 -53 13 -45 hhcurveto
          -122 -87 -71 -122 -115 61 -50 92 -49 hvcurveto
          hintmask 11011010
          51 -27 45 -25 -62 vvcurveto
          -60 -46 -22 -45 -33 -31 10 18 -29 vhcurveto
          9 -16 -12 8 -9 hhcurveto
          -22 -18 -48 -29 1 hvcurveto
          -13 5 -8 7 -9 vhcurveto
          hintmask 10111100
          33 -31 61 -18 58 -2 rrcurveto
          -17 -50 -5 -14 -8 100 callgsubr
          -56 callgsubr
          13 49 rlineto
          hintmask 10111010
          110 17 58 83 102 vvcurveto
          endchar
        </CharString>
        <CharString name="Scircumflex">
          65 callgsubr
          41 145 47 callgsubr
          127 750 -107 callgsubr
          77 -757 -88 callsubr
        </CharString>
        <CharString name="Scommaaccent">
          -74 -217 -21 231 113 489 114 hstemhm
          39 132 -7 109 15 130 hintmask 11110100
          204 -7 -87 callgsubr
          hintmask 11101100
          -18 -231 -83 callsubr
          endchar
        </CharString>
        <CharString name="T">
          -57 19 -21 590 112 hstem
          160 134 vstem
          211 -2 -54 callsubr
          endchar
        </CharString>
        <CharString name="Tbar">
          -72 19 -21 310 87 193 112 hstem
          160 134 vstem
          416 700 rmoveto
          -378 hlineto
          100 callsubr
          -26 22 callsubr
          122 -193 -80 hlineto
          -18 -8 -11 -26 hvcurveto
          -13 vlineto
          -26 8 -11 18 vhcurveto
          80 -281 hlineto
          -45 callgsubr
          66 callsubr
          281 68 vlineto
          19 7 11 26 hvcurveto
          13 vlineto
          26 -7 11 -19 vhcurveto
          -68 193 122 hlineto
          19 8 -72 callsubr
          -8 13 -19 vhcurveto
          endchar
        </CharString>
        <CharString name="Tcaron">
          -57 19 -21 590 112 53 144 hstem
          160 134 vstem
          223 753 -105 callgsubr
          -12 -755 -54 callsubr
          endchar
        </CharString>
        <CharString name="Thorn">
          19 -21 163 111 203 112 115 -20 hstem
          61 133 136 131 vstem
          112 -2 19 callsubr
          134 82 113 callsubr
          -73 86 hlineto
          39 callgsubr
          -31 -56 callsubr
          82 274 rmoveto
          203 67 vlineto
          31 38 -18 -81 -86 -39 -18 -28 hvcurveto
          endchar
        </CharString>
        <CharString name="U">
          35 callsubr
          30 callgsubr
          292 -7 -92 callgsubr
        </CharString>
        <CharString name="Uacute">
          35 callsubr
          73 155 30 callgsubr
          276 755 rmoveto
          -106 callgsubr
          16 -762 -92 callgsubr
        </CharString>
        <CharString name="Ubreve">
          35 callsubr
          73 83 30 callgsubr
          291 755 -103 callsubr
          1 -762 -92 callgsubr
        </CharString>
        <CharString name="Ucircumflex">
          35 callsubr
          68 145 30 callgsubr
          193 -11 callsubr
          148 86 77 132 hvcurveto
          471 -4 callgsubr
          -30 -69 callsubr
          vhcurveto
          endchar
        </CharString>
        <CharString name="Udieresis">
          35 callsubr
          83 114 hstemhm
          57 133 -23 102 48 102 -25 132 hintmask 00000000
          hintmask 11101100
          219 765 -102 callsubr
          hintmask 11110010
          -76 -772 -92 callgsubr
        </CharString>
        <CharString name="Ugrave">
          35 callsubr
          73 155 30 callgsubr
          310 755 -102 callgsubr
          -18 -762 -92 callgsubr
        </CharString>
        <CharString name="Uhorn">
          47 callsubr
          hstemhm
          50 31 callsubr
          5 73 hintmask 00000000
          hintmask 10110100
          597 755 rmoveto
          36 callgsubr
          hintmask 10111000
          -73 callsubr
          hintmask 11011000
          464 vlineto
          hintmask 10110100
          80 callsubr
        </CharString>
        <CharString name="Uhungarumlaut">
          35 callsubr
          73 155 30 callgsubr
          191 755 -13 callsubr
          -762 -92 callgsubr
        </CharString>
        <CharString name="Umacron">
          35 callsubr
          97 87 30 callgsubr
          197 779 -84 callsubr
          95 -786 -92 callgsubr
        </CharString>
        <CharString name="Uogonek">
          72 -162 67 88 87 callsubr
          hstemhm
          57 133 156 65 -17 132 hintmask 11110100
          526 202 rmoveto
          471 -4 callgsubr
          -30 -69 callsubr
          vhcurveto
          hintmask 11111000
          24 23 2 4 21 hvcurveto
          -11 -27 -3 -25 -17 -63 callsubr
          63 callsubr
          27 hvcurveto
          hintmask 11110100
          62 34 34 61 83 vvcurveto
          endchar
        </CharString>
        <CharString name="Uring">
          35 callsubr
          50 53 82 53 hstemhm
          57 133 7 53 81 53 10 132 hintmask 00000000
          hintmask 11110111
          290 732 rmoveto
          -67 callsubr
          hintmask 11011001
          1 -792 -92 callgsubr
        </CharString>
        <CharString name="Utilde">
          35 callsubr
          80 95 callgsubr
          49 callsubr
          hintmask 00000000
          hintmask 11011100
          163 -1 callgsubr
          hintmask 11101100
          -103 callgsubr
          hintmask 11011100
          -88 callgsubr
          139 -772 -92 callgsubr
        </CharString>
        <CharString name="V">
          -3 -2 137 -116 52 callgsubr
          hstemhm
          9 488 hintmask 01110000
          220 -2 rmoveto
          66 hlineto
          25 19 5 14 4 hvcurveto
          160 648 rlineto
          2 7 1 5 5 vvcurveto
          13 -17 7 -35 vhcurveto
          -28 hlineto
          -25 -20 -6 -18 -4 hvcurveto
          hintmask 10110000
          -105 -480 -9 -63 rlineto
          -4 hlineto
          -9 63 -102 480 rlineto
          18 -4 -19 6 -25 hhcurveto
          -30 hlineto
          -35 -17 -8 -12 -5 2 -5 2 -7 hvcurveto
          159 -648 rlineto
          hintmask 01110000
          -14 4 57 callgsubr
          endchar
        </CharString>
        <CharString name="W">
          241 18 callgsubr
          hstem
          10.62 732.38 vstem
          188 -2 -95 callgsubr
        </CharString>
        <CharString name="Wacute">
          68 callsubr
          360 755 rmoveto
          -106 callgsubr
          -172 -757 -95 callgsubr
        </CharString>
        <CharString name="Wcircumflex">
          241 18 callgsubr
          68 145 hstem
          10.62 732.38 vstem
          277 750 -107 callgsubr
          -89 -752 -95 callgsubr
        </CharString>
        <CharString name="Wdieresis">
          241 18 callgsubr
          83 114 hstem
          251 102 48 102 vstem
          303 765 -102 callsubr
          -264 -767 -95 callgsubr
        </CharString>
        <CharString name="Wgrave">
          68 callsubr
          394 755 -102 callgsubr
          -206 -757 -95 callgsubr
        </CharString>
        <CharString name="X">
          -5 18 callgsubr
          hstem
          13 480 vstem
          66 -2 rmoveto
          34 hlineto
          25 18 1 17 7 hvcurveto
          106 265 99 -265 rlineto
          -14 5 20 -4 24 hhcurveto
          35 hlineto
          37 17 7 11 7 -4 6 -4 10 hvcurveto
          -148 326 142 296 15 callsubr
          12 -17 6 -36 vhcurveto
          -35 hlineto
          -26 -18 -2 -16 -6 hvcurveto
          -92 -241 -85 241 rlineto
          15 -6 -19 3 -24 hhcurveto
          -37 hlineto
          -37 -17 -7 -11 -7 4 -7 4 -9 hvcurveto
          134 -296 -153 -326 rlineto
          -4 -11 -3 -6 -6 vvcurveto
          -12 15 -6 38 vhcurveto
          endchar
        </CharString>
        <CharString name="Y">
          -27 18 callgsubr
          hstem
          141 callsubr
          vstem
          227 -2 -91 callsubr
        </CharString>
        <CharString name="Y.loclGUA">
          14 callsubr
          76 callgsubr
          393 701 -99 callgsubr
          endchar
        </CharString>
        <CharString name="Yacute">
          -27 18 callgsubr
          73 155 hstem
          141 callsubr
          vstem
          226 755 rmoveto
          -106 callgsubr
          1 -757 -91 callsubr
        </CharString>
        <CharString name="Yacute.loclGUA">
          14 callsubr
          74 155 76 callgsubr
          230 755 rmoveto
          -106 callgsubr
          163 -54 -99 callgsubr
          endchar
        </CharString>
        <CharString name="Ycircumflex">
          -27 18 callgsubr
          68 145 hstem
          141 callsubr
          vstem
          143 750 -107 callgsubr
          84 -752 -91 callsubr
        </CharString>
        <CharString name="Ycircumflex.loclGUA">
          14 callsubr
          69 145 76 callgsubr
          147 750 -107 callgsubr
          246 -49 -99 callgsubr
          endchar
        </CharString>
        <CharString name="Ydieresis">
          -27 18 callgsubr
          83 114 hstemhm
          117 102 -44 134 -42 102 hintmask 00000000
          hintmask 11110100
          169 765 -102 callsubr
          hintmask 11101000
          -91 -767 -91 callsubr
        </CharString>
        <CharString name="Ydieresis.loclGUA">
          14 callsubr
          84 114 hstemhm
          49 126 -54 102 48 102 -52 125 hintmask 00000000
          hintmask 11110110
          173 765 -102 callsubr
          hintmask 11111001
          71 -64 -99 callgsubr
          endchar
        </CharString>
        <CharString name="Ygrave">
          -27 18 callgsubr
          73 155 hstem
          141 callsubr
          vstem
          260 755 -102 callgsubr
          -33 -757 -91 callsubr
        </CharString>
        <CharString name="Ygrave.loclGUA">
          14 callsubr
          74 155 76 callgsubr
          264 755 -102 callgsubr
          129 -54 -99 callgsubr
          endchar
        </CharString>
        <CharString name="Z">
          -4 49 callgsubr
          hstem
          27 446 vstem
          61 -49 callgsubr
          endchar
        </CharString>
        <CharString name="Zacute">
          -4 49 callgsubr
          55 155 hstem
          27 446 vstem
          240 755 rmoveto
          -106 callgsubr
          -179 -755 rmoveto
          -92 callsubr
          endchar
        </CharString>
        <CharString name="Zacute.loclPLK">
          -4 49 callgsubr
          55 155 hstem
          27 446 vstem
          241 755 -82 callgsubr
          -180 -755 rmoveto
          -92 callsubr
          endchar
        </CharString>
        <CharString name="Zcaron">
          -4 49 callgsubr
          53 144 hstem
          27 446 vstem
          252 753 -105 callgsubr
          -191 -753 rmoveto
          -92 callsubr
          endchar
        </CharString>
        <CharString name="Zdotaccent">
          -4 49 callgsubr
          65 114 hstem
          196 121 vstem
          257 765 -106 callsubr
          -196 -765 rmoveto
          -92 callsubr
          endchar
        </CharString>
        <CharString name="a">
          -40 callsubr
          -20 callgsubr
          hintmask 00000000
          hintmask 10111100
          183 -7 -36 callgsubr
          hintmask 01111100
          -105 callsubr
          hintmask 10111100
          -54 callgsubr
        </CharString>
        <CharString name="aacute">
          -40 callsubr
          48 155 96 callsubr
          222 578 rmoveto
          -106 callgsubr
          hintmask 10111110
          -39 105 callgsubr
          hintmask 01111110
          -105 callsubr
          hintmask 10111110
          -54 callgsubr
        </CharString>
        <CharString name="abreve">
          -40 callsubr
          48 83 96 callsubr
          237 578 -103 callsubr
          hintmask 10111110
          98 callsubr
          hintmask 01111110
          -105 callsubr
          hintmask 10111110
          -54 callgsubr
        </CharString>
        <CharString name="acircumflex">
          -30 71 callsubr
          96 callsubr
          139 573 -107 callgsubr
          hintmask 10111110
          44 104 callsubr
          hintmask 01111110
          -105 callsubr
          hintmask 10111110
          -54 callgsubr
        </CharString>
        <CharString name="acute">
          -255 111 callsubr
          40 174 vstem
          66 578 rmoveto
          -106 callgsubr
          endchar
        </CharString>
        <CharString name="acute.loclPLK">
          -255 111 callsubr
          45 150 vstem
          73 578 -82 callgsubr
          endchar
        </CharString>
        <CharString name="acutecomb">
          -511 111 callsubr
          -88 174 vstem
          -62 578 rmoveto
          -106 callgsubr
          endchar
        </CharString>
        <CharString name="adieresis">
          -40 callsubr
          58 114 61 callsubr
          -47 102 48 102 -77 126 hintmask 0111101010000000
          165 588 rmoveto
          78 callsubr
          56 vlineto
          19 -15 10 -36 -60 callgsubr
          vhcurveto
          -56 vlineto
          -19 15 -10 37 vhcurveto
          hintmask 1011110100000000
          149 hmoveto
          88 callgsubr
          56 94 callgsubr
          -36 -35 -26 callsubr
          vhcurveto
          -56 -51 callsubr
          -131 -595 -36 callgsubr
          hintmask 0111110010000000
          -105 callsubr
          hintmask 1011110100000000
          2 callsubr
          hintmask 1011110010000000
          30 callsubr
          hintmask 1011110100000000
          5 callsubr
        </CharString>
        <CharString name="ae">
          177 139 callgsubr
          126 callgsubr
          hintmask 10111110
          192 -7 -39 callgsubr
          hintmask 01111110
          37 callgsubr
        </CharString>
        <CharString name="aeacute">
          153 139 callgsubr
          48 155 126 callgsubr
          hintmask 10111111
          323 578 rmoveto
          -106 callgsubr
          -131 -585 -39 callgsubr
          hintmask 01111111
          37 callgsubr
        </CharString>
        <CharString name="agrave">
          -40 callsubr
          48 155 96 callsubr
          256 578 -102 callgsubr
          hintmask 10111110
          -73 105 callgsubr
          hintmask 01111110
          -105 callsubr
          hintmask 10111110
          -54 callgsubr
        </CharString>
        <CharString name="amacron">
          -40 callsubr
          72 87 96 callsubr
          143 602 -84 callsubr
          hintmask 10111110
          40 -609 -36 callgsubr
          hintmask 01111110
          -105 callsubr
          hintmask 10111110
          -54 callgsubr
        </CharString>
        <CharString name="ampersand">
          9 -7 101 224 102 186 101 hstemhm
          14 130 -112 131 149 128 hintmask 11110100
          486 98 rmoveto
          -5 -5 -4 -12 hhcurveto
          -17 -7 13 41 hvcurveto
          170 35 vlineto
          17 -12 callsubr
          16 79 callgsubr
          -17 vhcurveto
          -35 98 hlineto
          19 -13 10 -30 vhcurveto
          -27 hlineto
          -29 -16 -10 -19 -2 hvcurveto
          -11 -98 rlineto
          hintmask 11101100
          -72 hlineto
          -47 -30 46 50 45 14 45 43 hvcurveto
          19 14 -8 6 hhcurveto
          14 16 38 33 27 -53 11 -39 -101 -64 -63 -109 -71 28 -52 46 -24 hvcurveto
          -4 vlineto
          hintmask 11110100
          -67 -25 -25 -65 -90 vvcurveto
          -141 70 -70 112 64 35 16 25 48 vhcurveto
          -30 20 28 -11 41 hhcurveto
          25 55 3 39 8 -10 55 -16 hvcurveto
          -342 107 rmoveto
          79 22 34 66 vhcurveto
          80 -187 hlineto
          -9 vlineto
          -19 -39 -26 -9 -31 hhcurveto
          -47 -25 33 78 hvcurveto
          endchar
        </CharString>
        <CharString name="aogonek">
          -30 -160 67 86 97 -69 -21 252 82 95 101 -20 callgsubr
          -74 65 hintmask 00000000
          hintmask 10111101
          484 -88 59 callsubr
          18 5 25 11 24 hvcurveto
          3 3 2 3 4 vvcurveto
          hintmask 11011110
          15 -12 28 95 vvcurveto
          199 vlineto
          99 -56 66 -132 -82 -81 -31 -32 -18 28 -52 18 vhcurveto
          13 36 32 60 hhcurveto
          51 19 -27 -41 hvcurveto
          -27 vlineto
          -177 -68 -79 -106 -97 50 -59 90 hvcurveto
          hintmask 11011101
          57 38 31 29 20 hvcurveto
          hintmask 10111101
          -29 7 6 -25 23 hhcurveto
          5 7 0 1 8 hvcurveto
          -11 -27 -3 -25 -16 -63 callsubr
          hintmask 11011110
          -196 219 rmoveto
          -28 callgsubr
          -39 -19 26 41 56 callsubr
          hvcurveto
          endchar
        </CharString>
        <CharString name="approxequal">
          -73 148 142 -108 142 hstemhm
          48 348 hintmask 00000000
          hintmask 10100000
          377 253 rmoveto
          8 10 6 12 3 14 rrcurveto
          1 5 1 5 4 vvcurveto
          8 -4 6 -16 5 vhcurveto
          -8 3 rlineto
          2 -3 -3 0 -4 hhcurveto
          -6 -8 -4 -12 -7 hvcurveto
          -19 -12 -19 -2 -11 hhcurveto
          hintmask 01100000
          -32 -79 34 -31 hhcurveto
          -55 -37 -28 -45 -11 hvcurveto
          127 callgsubr
          -9 -10 -6 -13 -3 -14 rrcurveto
          127 callgsubr
          8 -3 rlineto
          -1 4 3 -1 3 hhcurveto
          7 7 4 12 8 hvcurveto
          20 12 19 1 10 hhcurveto
          hintmask 10100000
          33 79 -34 31 hhcurveto
          55 37 28 44 10 hvcurveto
          1 5 1 5 4 vvcurveto
          8 -4 6 -15 5 vhcurveto
          endchar
        </CharString>
        <CharString name="aring">
          -40 callsubr
          25 53 82 53 112 callsubr
          hintmask 0111110110000000
          236 555 rmoveto
          -67 callsubr
          hintmask 1011011001000000
          -54 -615 -36 callgsubr
          hintmask 0111011001000000
          -105 callsubr
          hintmask 1011011001000000
          -54 callgsubr
        </CharString>
        <CharString name="aringacute">
          -40 callsubr
          25 53 82 53 24 155 112 callsubr
          hintmask 0111111011000000
          222 767 rmoveto
          -106 callgsubr
          14 -212 rmoveto
          59 35 39 55 hvcurveto
          hintmask 0111010011000000
          55 -35 39 -59 -57 -36 -39 -55 vhcurveto
          hintmask 0111111011000000
          -55 36 -39 57 vhcurveto
          1 53 rmoveto
          -26 -14 14 26 -1 hvcurveto
          hintmask 0111010011000000
          26 1 14 16 26 hhcurveto
          25 15 -16 -26 hvcurveto
          hintmask 0111111011000000
          -26 -15 -14 -25 vhcurveto
          hintmask 1011010100100000
          -54 -615 -36 callgsubr
          hintmask 0111010100100000
          -105 callsubr
          hintmask 1011010100100000
          -54 callgsubr
        </CharString>
        <CharString name="arrowdown">
          -6 706 -20 hstem
          205 94 vstem
          253 9 rmoveto
          8 5 2 5 5 hvcurveto
          210 212 rlineto
          13 14 6 13 19 vvcurveto
          75 vlineto
          12 -2 7 -5 -3 -5 -4 -6 -6 vhcurveto
          -180 -183 rlineto
          503 vlineto
          18 -11 10 -28 vhcurveto
          -16 hlineto
          -27 -12 -10 -18 hvcurveto
          -503 vlineto
          -178 183 rlineto
          6 -6 -5 4 -3 hhcurveto
          -5 -2 -7 -12 hvcurveto
          -76 vlineto
          -18 5 -14 13 -13 vhcurveto
          211 -212 rlineto
          -5 5 5 -2 8 hhcurveto
          endchar
        </CharString>
        <CharString name="arrowleft">
          139 callsubr
          1 590 vstem
          239 hmoveto
          55 hlineto
          16 9 2 7 4 -4 7 -9 11 hvcurveto
          -155 186 rlineto
          412 hlineto
          18 10 12 27 hvcurveto
          16 vlineto
          28 -10 11 -18 vhcurveto
          -412 hlineto
          153 185 rlineto
          10 12 4 7 4 vvcurveto
          6 -8 3 -17 vhcurveto
          -55 hlineto
          -20 -12 -6 -13 -12 hvcurveto
          -187 -227 rlineto
          -4 -5 -2 -4 0 -9 0 -7 2 -5 -6 flex1
          188 -227 rlineto
          -14 11 12 -5 21 hhcurveto
          endchar
        </CharString>
        <CharString name="arrowright">
          139 callsubr
          9 590 vstem
          307 hmoveto
          55 hlineto
          20 12 5 14 12 hvcurveto
          187 227 rlineto
          5 6 1 5 0 7 0 9 -2 4 5 flex1
          -187 227 rlineto
          13 -12 -12 6 -20 hhcurveto
          -55 hlineto
          -17 -8 -3 -6 -4 4 -7 10 -12 hvcurveto
          153 -185 rlineto
          -412 hlineto
          -18 -10 -11 -28 hvcurveto
          -16 vlineto
          -27 10 -12 18 vhcurveto
          412 hlineto
          -155 -186 rlineto
          -8 -11 -4 -7 -4 vvcurveto
          -7 8 -2 17 vhcurveto
          endchar
        </CharString>
        <CharString name="arrowup">
          -6 18 -21 705 -20 hstem
          205 94 vstem
          244 -3 rmoveto
          16 hlineto
          28 11 -70 callsubr
          517 vlineto
          179 -183 rlineto
          -6 6 5 -4 3 hhcurveto
          5 2 7 12 hvcurveto
          76 vlineto
          19 -5 13 -14 13 vhcurveto
          -210 212 rlineto
          -5 5 -5 2 -8 -8 -5 -2 -5 hflex1
          -210 -212 rlineto
          -14 -14 -5 -13 -19 vvcurveto
          -75 vlineto
          -12 2 -7 5 3 5 4 6 6 vhcurveto
          179 183 rlineto
          -517 vlineto
          -19 12 -10 27 vhcurveto
          endchar
        </CharString>
        <CharString name="asciicircum">
          -151 319 366 hstem
          25 310 vstem
          52 319 rmoveto
          20 hlineto
          22 13 8 19 6 hvcurveto
          67 226 67 -226 rlineto
          -19 6 15 -8 22 hhcurveto
          19 hlineto
          19 7 6 11 4 -1 5 -1 5 hvcurveto
          -105 309 rlineto
          19 -6 -11 7 -17 hhcurveto
          -27 hlineto
          -17 -11 -7 -19 -6 hvcurveto
          -105 -309 rlineto
          -2 -5 -1 -5 -4 vvcurveto
          -11 8 -6 19 vhcurveto
          endchar
        </CharString>
        <CharString name="asciitilde">
          -74 220 95 callgsubr
          41 361 hintmask 00000000
          hintmask 01100000
          75 219 rmoveto
          -1 5 5 -1 5 hhcurveto
          11 8 5 11 9 hvcurveto
          17 13 11 3 10 hhcurveto
          hintmask 10100000
          -1 36 63 -32 45 hhcurveto
          48 36 28 41 19 hvcurveto
          2 5 1 39 callsubr
          -6 8 -15 4 vhcurveto
          -12 3 rlineto
          2 -5 -4 1 -6 hhcurveto
          -12 -9 -6 -11 -8 hvcurveto
          -16 -14 -10 -3 -11 hhcurveto
          hintmask 01100000
          -36 -62 33 -44 hhcurveto
          -49 -36 -27 -42 -18 hvcurveto
          -3 -7 -1 -4 -4 vvcurveto
          -8 5 -9 16 -4 vhcurveto
          endchar
        </CharString>
        <CharString name="asterisk">
          -212 708 -20 hstem
          121 53 vstem
          78 420 rmoveto
          7 1 8 4 6 10 48 76 rcurveline
          49 -76 6 -10 7 -4 7 -1 rlinecurve
          12 18 13 11 6 -2 6 -5 8 hvcurveto
          -52 83 70 26 rlineto
          13 6 7 5 10 vvcurveto
          17 -11 15 -15 -3 -5 0 -3 -6 vhcurveto
          -63 -24 rlineto
          83 vlineto
          18 -8 8 -19 -18 -8 -8 -18 vhcurveto
          -83 vlineto
          -64 24 rlineto
          3 -6 -5 0 -4 hhcurveto
          -17 -7 -18 -14 -10 7 -5 12 -6 hvcurveto
          69 -26 -50 -83 -6 -8 -3 -6 1 -6 rlinecurve
          -11 18 -13 12 vhcurveto
          endchar
        </CharString>
        <CharString name="at">
          281 -124 50 131 72 -72 87 277 86 149 51 hstemhm
          55 61 96 107 347 61 hintmask 11011111
          441 707 rmoveto
          -217 -169 -205 -264 -214 112 -148 163 43 99 11 39 21 -5 8 -9 hvcurveto
          -18 -32 -29 -73 hhcurveto
          -132 -87 126 185 237 142 182 181 136 91 -107 -170 -132 -51 -118 -57 -15 -15 9 26 hvcurveto
          27 27 278 11 vvcurveto
          13 -10 10 -29 vhcurveto
          -10 hlineto
          -30 -5 -10 -29 -9 hvcurveto
          18 -15 -31 25 -41 hhcurveto
          -97 -66 -109 -160 hvcurveto
          hintmask 10111111
          -128 54 -53 60 43 37 25 39 21 vhcurveto
          hintmask 11011111
          -39 10 33 -25 51 hhcurveto
          119 87 144 179 199 -114 128 -172 hvcurveto
          hintmask 10111111
          -15 -505 rmoveto
          -40 -17 -22 -18 -21 hhcurveto
          -29 -18 23 78 105 23 71 56 20 16 -11 -11 10 hvcurveto
          -9 -47 -7 -98 -2 -52 rrcurveto
          endchar
        </CharString>
        <CharString name="atilde">
          -40 callsubr
          55 75 -42 75 -20 callgsubr
          hintmask 00000000
          hintmask 01110111
          109 -2 callsubr
          hintmask 01111011
          -103 callgsubr
          hintmask 10110111
          -88 callgsubr
          84 -595 -36 callgsubr
          hintmask 01111011
          -105 callsubr
          hintmask 10110111
          2 callsubr
          hintmask 10111011
          30 callsubr
          hintmask 10110111
          5 callsubr
        </CharString>
        <CharString name="b">
          -7 104 -78 -21 430 102 223 -20 hstemhm
          60 126 128 129 hintmask 00000000
          hintmask 10111100
          289 -7 rmoveto
          92 62 100 169 173 -63 95 -103 -43 -28 -17 -20 -20 hvcurveto
          232 115 callsubr
          -37 vhcurveto
          -22 hlineto
          -37 79 callsubr
          hintmask 01111100
          -698 vlineto
          -19 15 -10 35 vhcurveto
          10 hlineto
          25 17 4 17 5 hvcurveto
          hintmask 10111100
          9 45 rlineto
          -43 24 43 -28 46 hhcurveto
          -39 104 rmoveto
          -25 -22 19 27 -17 hvcurveto
          260 vlineto
          15 15 19 10 23 hhcurveto
          47 24 -45 -120 -115 -21 -51 -43 hvcurveto
          endchar
        </CharString>
        <CharString name="backslash">
          -222 702 -20 hstem
          0 283 vstem
          222 -21 rmoveto
          29 hlineto
          21 11 8 13 4 -1 4 -3 19 hvcurveto
          -178 647 rlineto
          19 -5 -14 9 -22 hhcurveto
          -27 hlineto
          -22 -10 -8 -13 -1 hvcurveto
          -4 1 -3 3 -16 vhcurveto
          177 -652 rlineto
          -19 5 14 -8 22 hhcurveto
          endchar
        </CharString>
        <CharString name="bar">
          -311 -139 908 hstem
          51 100 vstem
          95 -139 rmoveto
          12 hlineto
          32 12 9 19 hvcurveto
          852 vlineto
          19 -12 9 -32 vhcurveto
          -12 hlineto
          -31 -13 -9 -19 hvcurveto
          -852 vlineto
          -19 13 -9 31 vhcurveto
          endchar
        </CharString>
        <CharString name="braceleft">
          -262 -138 83 740 83 hstem
          80 101 vstem
          172 -138 rmoveto
          41 hlineto
          19 8 11 25 hvcurveto
          11 vlineto
          25 -8 10 -17 1 vhcurveto
          -7 hlineto
          -21 -6 16 29 hvcurveto
          187 vlineto
          75 -34 46 -29 17 vhcurveto
          30 18 33 46 74 vvcurveto
          187 vlineto
          31 7 14 23 vhcurveto
          5 hlineto
          17 1 7 11 24 vvcurveto
          11 vlineto
          25 -8 11 -19 vhcurveto
          -41 hlineto
          -47 -45 -39 -77 hvcurveto
          -183 vlineto
          -57 -8 -31 -31 -15 vhcurveto
          -18 -10 -9 -11 -24 vvcurveto
          -12 vlineto
          -24 9 -11 18 -10 vhcurveto
          31 -15 8 -31 -57 vvcurveto
          -183 vlineto
          -78 45 -38 47 vhcurveto
          endchar
        </CharString>
        <CharString name="braceright">
          -262 -138 83 740 83 hstem
          75 100 vstem
          42 -138 rmoveto
          41 hlineto
          47 45 38 78 hvcurveto
          183 vlineto
          57 8 31 31 15 vhcurveto
          18 10 10 11 24 vvcurveto
          12 vlineto
          24 -10 11 -18 10 vhcurveto
          -31 15 -8 31 57 vvcurveto
          183 vlineto
          77 -45 39 -47 vhcurveto
          -41 hlineto
          -18 -8 -11 -25 hvcurveto
          -11 vlineto
          -24 7 -11 17 -1 vhcurveto
          5 hlineto
          23 7 -14 -31 hvcurveto
          -187 vlineto
          -74 32 -46 30 -18 vhcurveto
          -29 -17 -33 -46 -75 vvcurveto
          -187 vlineto
          -29 -7 -16 -21 vhcurveto
          -6 hlineto
          -17 -1 -8 -10 -25 vvcurveto
          -11 vlineto
          -25 8 -11 18 vhcurveto
          endchar
        </CharString>
        <CharString name="bracketleft">
          -272 -138 84 738 84 hstem
          55 98 vstem
          88 -138 rmoveto
          105 hlineto
          18 7 11 25 hvcurveto
          11 vlineto
          26 -7 11 -18 vhcurveto
          -40 738 40 hlineto
          18 7 11 25 hvcurveto
          12 vlineto
          25 -7 11 -18 vhcurveto
          -105 hlineto
          -23 -10 -11 -26 hvcurveto
          -832 vlineto
          -26 10 -11 23 vhcurveto
          endchar
        </CharString>
        <CharString name="bracketright">
          -272 -138 84 738 84 hstem
          87 98 vstem
          47 -138 rmoveto
          105 hlineto
          23 10 11 26 hvcurveto
          832 vlineto
          26 -10 11 -23 vhcurveto
          -105 hlineto
          -18 -8 -11 -25 hvcurveto
          -12 vlineto
          -25 8 -11 18 vhcurveto
          40 -738 -40 hlineto
          -18 -8 -11 -26 hvcurveto
          -11 vlineto
          -25 8 -11 18 vhcurveto
          endchar
        </CharString>
        <CharString name="breve">
          -255 578 83 hstem
          1 251 vstem
          126 578 -103 callsubr
          endchar
        </CharString>
        <CharString name="brokenbar">
          -311 -140 910 hstem
          51 100 vstem
          95 388 rmoveto
          36 callsubr
          -528 vmoveto
          36 callsubr
          endchar
        </CharString>
        <CharString name="bullet">
          -213 197 259 hstem
          30 238 vstem
          149 197 rmoveto
          65 54 41 88 88 -54 42 -65 -66 -53 -42 -88 -88 53 -41 66 hvcurveto
          endchar
        </CharString>
        <CharString name="c">
          128 callsubr
          hstem
          38 130 vstem
          249 -7 -81 callsubr
        </CharString>
        <CharString name="cacute">
          128 callsubr
          48 155 hstem
          38 130 vstem
          215 578 rmoveto
          -106 callgsubr
          34 -585 -81 callsubr
        </CharString>
        <CharString name="cacute.loclPLK">
          128 callsubr
          48 155 hstem
          38 130 vstem
          216 578 -82 callgsubr
          33 -585 -81 callsubr
        </CharString>
        <CharString name="caron">
          -255 576 144 hstem
          7 237 vstem
          121 576 -105 callgsubr
          endchar
        </CharString>
        <CharString name="caron.alt">
          -255 700 -20 hstem
          44 108 vstem
          76 516 rmoveto
          -25 callsubr
          -15 23 -5 16 vhcurveto
          endchar
        </CharString>
        <CharString name="ccaron">
          128 callsubr
          46 144 hstem
          38 130 vstem
          227 576 -105 callgsubr
          22 -583 -81 callsubr
        </CharString>
        <CharString name="ccedilla">
          -103 -211 64 162 -21 22 -21 434 101 hstemhm
          38 130 79 84 hintmask 10111100
          393 55 rmoveto
          20 -21 48 -19 -4 -5 -4 -4 -8 vhcurveto
          -8 -15 -24 -13 -36 hhcurveto
          -64 -29 47 122 122 33 44 61 33 23 -13 -8 15 hvcurveto
          -4 7 5 -3 4 hhcurveto
          17 23 49 19 33 -69 28 -69 -138 -75 -81 -188 hvcurveto
          hintmask 11011100
          -171 62 -84 120 -12 vhcurveto
          -18 -50 -5 -15 -8 100 callgsubr
          -15 -12 -6 -14 vhcurveto
          -29 -20 21 -17 hhcurveto
          -10 -17 -15 -21 -27 50 -22 51 58 44 25 62 hvcurveto
          hintmask 10111100
          48 -33 20 -34 4 vhcurveto
          13 47 rlineto
          53 7 63 24 29 vvcurveto
          endchar
        </CharString>
        <CharString name="ccircumflex">
          -103 119 callgsubr
          hstem
          38 130 vstem
          132 573 -107 callgsubr
          117 -580 -81 callsubr
        </CharString>
        <CharString name="cdotaccent">
          128 callsubr
          58 114 hstemhm
          38 130 3 121 hintmask 00000000
          hintmask 11101000
          232 -80 callgsubr
          hintmask 11110000
          17 -595 -81 callsubr
        </CharString>
        <CharString name="cedilla">
          -255 -211 64 95 59 hstem
          140 84 vstem
          157 -52 rmoveto
          16 59 rlineto
          -56 hlineto
          -21 -61 -6 -16 -9 100 callgsubr
          -56 callgsubr
          endchar
        </CharString>
        <CharString name="cent">
          -71 142 callsubr
          24 -21 433 101 -3 -20 hstemhm
          38 130 41 49 hintmask 00000000
          hintmask 10001110
          393 55 rmoveto
          hintmask 10010110
          20 -21 48 -19 -4 -5 -4 -4 -8 vhcurveto
          -8 -15 -24 -13 -36 hhcurveto
          -3 335 4 hlineto
          33 23 -13 -8 15 hvcurveto
          -4 7 5 -3 4 hhcurveto
          17 23 49 19 32 -64 27 -67 2 hvcurveto
          hintmask 00101110
          30 vlineto
          18 -8 8 -17 -16 -8 -8 -18 vhcurveto
          -33 vlineto
          -111 -16 -60 -82 -168 vvcurveto
          -166 58 -84 113 -15 vhcurveto
          hintmask 01001110
          -48 vlineto
          -17 8 -8 18 15 8 8 17 vhcurveto
          45 vlineto
          55 3 80 27 32 vvcurveto
          hintmask 00101110
          -225 208 rmoveto
          80 14 46 27 23 vhcurveto
          -302 vlineto
          -28 23 -13 48 82 vvcurveto
          endchar
        </CharString>
        <CharString name="circumflex">
          -255 573 145 hstem
          7 237 vstem
          27 573 -107 callgsubr
          endchar
        </CharString>
        <CharString name="colon">
          -323 -2 140 247 140 hstem
          29 130 vstem
          80 -3 callsubr
          -387 vmoveto
          1 callsubr
        </CharString>
        <CharString name="comma">
          -323 -122 260 hstem
          40 118 vstem
          42 -122 rmoveto
          41 callgsubr
          -15 24 -5 14 vhcurveto
          endchar
        </CharString>
        <CharString name="copyright">
          81 -7 59 95 63 282 63 95 59 hstem
          10 60 90 75 286 -9 callgsubr
          9 95 rmoveto
          32 68 18 27 9 -12 35 -16 hvcurveto
          -6 -23 -26 -43 hhcurveto
          -47 -23 47 95 94 23 46 48 hvcurveto
          42 17 -22 6 hhcurveto
          11 19 33 14 21 -54 17 -40 -98 -49 -67 -136 -141 47 -64 98 hvcurveto
          endchar
        </CharString>
        <CharString name="currency">
          -49 101 96 207 96 hstem
          59 95 147 96 vstem
          95 97 rmoveto
          9 7 3 8 8 hvcurveto
          21 21 rlineto
          -17 26 30 -11 32 hhcurveto
          33 30 11 19 26 hvcurveto
          22 -23 rlineto
          7 -8 9 -3 7 8 8 4 7 hflex1
          20 20 rlineto
          7 6 4 9 7 vvcurveto
          9 -4 7 -8 8 vhcurveto
          -29 30 rlineto
          14 29 8 32 35 vvcurveto
          36 -8 34 -15 29 vhcurveto
          32 33 rlineto
          8 8 4 8 8 vvcurveto
          8 -4 7 -7 7 vhcurveto
          -20 20 rlineto
          -8 8 -8 3 -7 -8 -8 -4 -7 hflex1
          -26 -26 rlineto
          17 -25 -30 11 -32 hhcurveto
          -32 -29 -11 -17 -24 hvcurveto
          -26 26 rlineto
          8 -8 -8 4 -8 hhcurveto
          -7 -8 -4 -7 -7 hvcurveto
          -21 -21 rlineto
          -7 -7 -3 -8 -7 vvcurveto
          -8 4 -9 7 -7 vhcurveto
          32 -31 rlineto
          -16 -29 -8 -35 -37 vvcurveto
          -35 8 -34 14 -29 vhcurveto
          -28 -28 rlineto
          -7 -8 -4 -8 -8 vvcurveto
          -8 3 -7 7 -7 vhcurveto
          21 -20 rlineto
          -8 7 8 -3 7 hhcurveto
          133 100 rmoveto
          -41 -33 35 68 69 33 35 41 41 32 -35 -69 -68 -32 -35 -41 hvcurveto
          endchar
        </CharString>
        <CharString name="d">
          -30 -7 104 -77 -21 429 102 223 45 callsubr
          hintmask 00000000
          hintmask 10111100
          33 callsubr
          hintmask 01111100
          -62 callsubr
          hintmask 10111100
          110 callgsubr
          40 104 -18 callgsubr
          endchar
        </CharString>
        <CharString name="dagger">
          -83 414 69 callgsubr
          525 103 vlineto
          7 callsubr
          -525 hlineto
          -19 12 -10 28 vhcurveto
          endchar
        </CharString>
        <CharString name="daggerdbl">
          -83 48 98 268 69 callgsubr
          159 103 vlineto
          19 7 -46 callgsubr
          12 108 callsubr
          -103 268 103 hlineto
          7 callsubr
          -268 -104 hlineto
          100 callsubr
          -12 22 callsubr
          104 -159 hlineto
          -19 12 -10 28 vhcurveto
          endchar
        </CharString>
        <CharString name="dcaron">
          -30 -7 104 -77 -21 429 102 170 -20 73 45 callsubr
          30 108 hintmask 00000000
          hintmask 10111110
          33 callsubr
          hintmask 01111110
          -62 callsubr
          hintmask 10111110
          110 callgsubr
          hintmask 10111111
          292 523 rmoveto
          -25 callsubr
          -15 23 -5 16 vhcurveto
          -252 -419 rmoveto
          -43 -21 53 112 117 24 49 48 hvcurveto
          hintmask 10111110
          23 18 -10 -15 15 hvcurveto
          -256 vlineto
          hintmask 10111111
          -29 -16 -23 -21 -25 hhcurveto
          endchar
        </CharString>
        <CharString name="dcroat">
          -44 -7 104 -77 -21 429 102 58 87 78 45 callsubr
          hintmask 01111110
          457 675 rmoveto
          -35 50 hlineto
          18 -16 10 -36 vhcurveto
          -22 hlineto
          -37 79 callsubr
          -50 -68 vlineto
          -22 -9 -11 -26 hvcurveto
          -13 vlineto
          -26 9 -11 22 vhcurveto
          68 -94 hlineto
          20 -21 -28 16 -42 hhcurveto
          -102 -64 -95 -171 hvcurveto
          hintmask 10111110
          -171 63 -100 90 47 40 28 43 23 vhcurveto
          hintmask 01111110
          -29 5 5 -36 28 hhcurveto
          20 74 7 22 hvcurveto
          16 -12 27 95 vvcurveto
          422 35 vlineto
          23 8 11 26 hvcurveto
          13 vlineto
          26 -8 11 -23 vhcurveto
          hintmask 10111110
          -161 -528 rmoveto
          -29 -16 -23 -21 -25 hhcurveto
          -43 -21 53 112 117 24 49 48 23 18 -10 -15 15 hvcurveto
          endchar
        </CharString>
        <CharString name="degree">
          -235 442 56 153 56 hstem
          31 58 94 60 vstem
          137 442 rmoveto
          59 47 43 89 90 -47 43 -59 -59 -47 -43 -90 -89 47 -43 59 hvcurveto
          -1 56 rmoveto
          -27 -20 25 51 51 20 26 27 27 20 -26 -51 -51 -20 -25 -27 hvcurveto
          endchar
        </CharString>
        <CharString name="dieresis">
          -255 588 114 hstem
          3 102 48 102 vstem
          55 588 -102 callsubr
          endchar
        </CharString>
        <CharString name="divide">
          -63 -2 121 62 93 61 121 hstem
          167 112 vstem
          218 335 rmoveto
          10 -68 callsubr
          64 vlineto
          19 -15 9 -36 vhcurveto
          -10 hlineto
          -36 -15 -9 -19 hvcurveto
          -64 -51 callsubr
          -174 -154 rmoveto
          361 hlineto
          18 6 -46 callgsubr
          7 vlineto
          30 -6 13 -18 vhcurveto
          -361 hlineto
          -17 -7 -13 -30 hvcurveto
          -7 vlineto
          -30 7 -13 17 vhcurveto
          174 -183 rmoveto
          10 -68 callsubr
          64 vlineto
          18 67 callsubr
          -10 16 callsubr
          -64 -51 callsubr
          endchar
        </CharString>
        <CharString name="dollar">
          -71 -7 113 -89 -21 599 113 -1 -20 21 -20 hstemhm
          29 118 51 50 50 118 hintmask 01001011
          217 -74 rmoveto
          12 hlineto
          12 7 6 13 hvcurveto
          51 vlineto
          104 22 64 74 108 vvcurveto
          129 -87 40 -72 36 vhcurveto
          -9 5 rlineto
          hintmask 01100011
          185 vlineto
          24 22 -5 -10 26 hvcurveto
          -3 8 10 -4 7 hhcurveto
          23 12 56 24 -2 hvcurveto
          -1 11 -6 9 -13 7 -29 17 -40 9 -41 2 rrcurveto
          hintmask 10010111
          36 vlineto
          13 -2 -4 6 -14 hhcurveto
          -11 hlineto
          -13 -7 -6 -13 1 hvcurveto
          -37 vlineto
          -103 -14 -66 -73 -107 vvcurveto
          -130 82 -45 87 -38 vhcurveto
          -194 vlineto
          -46 1 -33 12 -39 24 rrcurveto
          2 -6 -5 3 -5 hhcurveto
          -24 -14 -53 -30 3 hvcurveto
          2 -22 25 -15 24 -9 33 -17 38 -8 47 -1 rrcurveto
          hintmask 01001011
          -48 vlineto
          -13 1 4 -6 14 hhcurveto
          -19 509 rmoveto
          hintmask 01001111
          -29 18 -21 25 -1 36 rrcurveto
          30 13 30 38 14 vhcurveto
          50 -473 rmoveto
          158 vlineto
          26 -15 24 -20 -44 vvcurveto
          -38 -20 -29 -30 -12 vhcurveto
          endchar
        </CharString>
        <CharString name="dotaccent">
          -255 588 114 hstem
          69 121 vstem
          130 -80 callgsubr
          endchar
        </CharString>
        <CharString name="dotbelowcomb">
          -511 -13 callgsubr
          hstem
          -56 121 vstem
          5 -194 -106 callsubr
          endchar
        </CharString>
        <CharString name="dotlessi">
          86 callgsubr
          88 callsubr
          117 -2 -86 callsubr
          endchar
        </CharString>
        <CharString name="e">
          -14 callgsubr
          73 callsubr
          259 -7 -95 callsubr
        </CharString>
        <CharString name="eacute">
          -14 callgsubr
          48 155 73 callsubr
          215 578 rmoveto
          -106 callgsubr
          44 -585 -95 callsubr
        </CharString>
        <CharString name="ebreve">
          -14 callgsubr
          48 83 73 callsubr
          230 578 -103 callsubr
          29 -585 -95 callsubr
        </CharString>
        <CharString name="ecaron">
          -14 callgsubr
          46 144 73 callsubr
          227 576 -105 callgsubr
          32 -583 -95 callsubr
        </CharString>
        <CharString name="ecircumflex">
          -57 84 callgsubr
          73 callsubr
          -49 callsubr
          endchar
        </CharString>
        <CharString name="edieresis">
          -14 callgsubr
          58 114 hstemhm
          39 127 -60 102 48 102 -52 119 hintmask 11110110
          158 588 -102 callsubr
          hintmask 11111001
          -48 -595 -95 callsubr
        </CharString>
        <CharString name="edotaccent">
          -14 callgsubr
          58 114 hstemhm
          39 127 5 121 14 119 hintmask 00000000
          hintmask 11110110
          232 -80 callgsubr
          hintmask 11111010
          27 -595 -95 callsubr
        </CharString>
        <CharString name="egrave">
          -14 callgsubr
          48 155 73 callsubr
          249 578 -102 callgsubr
          10 -585 -95 callsubr
        </CharString>
        <CharString name="eight">
          -52 -7 101 512 101 hstemhm
          32 120 -104 118 135 116 -107 121 hintmask 11100100
          232 -7 rmoveto
          134 65 93 109 102 -46 48 -53 33 hvcurveto
          hintmask 11011000
          44 25 41 44 87 vvcurveto
          107 -73 66 -109 -115 -72 -71 -110 -78 34 -43 42 -32 vhcurveto
          hintmask 11100100
          -49 -28 -43 -52 -96 vvcurveto
          -120 68 -84 132 vhcurveto
          hintmask 11011000
          12 436 rmoveto
          -43 23 -35 26 53 vvcurveto
          51 32 24 36 37 30 -25 -52 -44 -20 -32 -37 -24 vhcurveto
          hintmask 11100100
          -12 -335 rmoveto
          -46 -34 32 75 58 22 33 35 26 hvcurveto
          53 -28 48 -28 -71 vvcurveto
          -53 -30 -44 -48 vhcurveto
          endchar
        </CharString>
        <CharString name="ellipsis">
          41 -2 140 hstem
          29 126 58 126 58 126 vstem
          80 -2 rmoveto
          24 -68 callsubr
          83 vlineto
          18 67 callsubr
          -24 16 callsubr
          -83 -51 callsubr
          184 hmoveto
          24 -68 callsubr
          83 vlineto
          18 67 callsubr
          -24 16 callsubr
          -83 -51 callsubr
          184 hmoveto
          24 -68 callsubr
          83 vlineto
          18 67 callsubr
          -24 16 callsubr
          -83 -51 callsubr
          endchar
        </CharString>
        <CharString name="emacron">
          -14 callgsubr
          72 87 73 callsubr
          136 602 -84 callsubr
          123 -609 -95 callsubr
        </CharString>
        <CharString name="emdash">
          375 218 94 hstem
          0 886 vstem
          26 218 rmoveto
          834 77 callgsubr
          8 vlineto
          31 -8 12 -18 vhcurveto
          -834 51 callgsubr
        </CharString>
        <CharString name="endash">
          -68 218 94 hstem
          0 443 vstem
          26 218 rmoveto
          391 77 callgsubr
          8 vlineto
          31 -8 12 -18 vhcurveto
          -391 51 callgsubr
        </CharString>
        <CharString name="eng">
          -212 101 130 102 callgsubr
          hstem
          48 callsubr
          vstem
          300 -212 rmoveto
          66 62 42 110 hvcurveto
          445 vlineto
          94 -41 51 -77 -57 -45 -34 -41 -27 vhcurveto
          34 -7 2 33 -31 hhcurveto
          -18 -77 -6 -25 hvcurveto
          -11 10 -30 -93 vvcurveto
          -330 vlineto
          -19 15 -10 35 vhcurveto
          -22 callsubr
          24 14 23 21 27 hhcurveto
          36 13 -23 -42 hvcurveto
          -419 vlineto
          -39 -10 -13 -19 vhcurveto
          -15 -11 5 -6 hhcurveto
          -18 -9 -44 -18 -35 38 -9 50 hvcurveto
          endchar
        </CharString>
        <CharString name="eogonek">
          -57 -172 67 98 -26 callgsubr
          hstemhm
          39 127 115 65 -40 119 hintmask 00000000
          hintmask 11111100
          425 -100 rmoveto
          103 callsubr
          27 12 19 15 19 vvcurveto
          17 -27 50 -19 vhcurveto
          -59 callsubr
          hintmask 01111010
          210 hlineto
          13 32 38 15 169 -54 97 -128 -125 -79 -75 -197 -174 68 -91 152 hvcurveto
          hintmask 11111100
          12 13 1 2 14 hvcurveto
          -13 -29 -4 -29 -18 -63 callsubr
          hintmask 01111010
          -184 535 rmoveto
          45 20 -43 -98 hvcurveto
          -140 hlineto
          105 5 25 36 45 hhcurveto
          endchar
        </CharString>
        <CharString name="equal">
          -62 82 callsubr
          -338 40 callsubr
          338 63 callgsubr
        </CharString>
        <CharString name="estimated">
          104 -7 55 307 50 252 50 hstem
          22 152 271 148 vstem
          312 707 rmoveto
          -159 -131 -125 -227 -232 135 -130 163 81 77 39 65 55 hvcurveto
          6 8 4 6 8 vvcurveto
          11 -14 16 -15 -8 -6 -6 -9 -8 vhcurveto
          -52 -38 -73 -31 -61 hhcurveto
          -55 -51 17 33 -40 hvcurveto
          257 419 vlineto
          227 -127 125 -154 vhcurveto
          -138 -98 rmoveto
          31 39 47 17 52 hhcurveto
          49 46 -17 -32 38 hvcurveto
          -203 -271 vlineto
          endchar
        </CharString>
        <CharString name="eth">
          -34 -7 101 331 101 60 57 -29.5 56.5 hstemhm
          -33 callsubr
          hintmask 11011100
          339 610 rmoveto
          51 7 rlineto
          13 2 6 5 8 vvcurveto
          15 -15 23 -18 -3 -35 -5 -4 -33 vhcurveto
          hintmask 11101100
          -14 18 -11 14 -13 10 rrcurveto
          7 -9 -11 5 -14 hhcurveto
          -49 -6 rlineto
          -13 -2 -5 -4 -6 vvcurveto
          -9 20 -23 13 -18 vhcurveto
          -53 -8 rlineto
          -13 -2 -5 -4 -9 vvcurveto
          -18 16 -20 18 3 2 0 9 65 vhcurveto
          14 -23 12 -24 10 -24 rrcurveto
          1 -10 -10 1 -9 hhcurveto
          -132 -68 -94 -171 -173 68 -95 132 131 69 95 173 hvcurveto
          hintmask 11011100
          133 -44 125 -56 91 vhcurveto
          -100 -516 rmoveto
          -51 -21 48 120 117 21 46 51 50 21 -47 -116 -120 -21 -48 -50 hvcurveto
          endchar
        </CharString>
        <CharString name="exclam">
          -265 -2 140 564 -20 hstemhm
          56 130 -113 97 hintmask 11010000
          118 215 rmoveto
          8 hlineto
          36 6 10 19 2 hvcurveto
          14 144 15 144 14 144 rrcurveto
          17 -18 9 -33 vhcurveto
          -38 hlineto
          -60 callgsubr
          hvcurveto
          -429 vlineto
          -19 9 -10 36 vhcurveto
          hintmask 11100000
          -11 -217 rmoveto
          1 callsubr
        </CharString>
        <CharString name="exclamdown">
          -265 385 140 hstemhm
          36 139 -112 130 hintmask 10100000
          114 -3 callsubr
          hintmask 11000000
          -28 -565 rmoveto
          38 -68 callsubr
          430 vlineto
          18 -7 10 -36 vhcurveto
          -9 hlineto
          -36 -5 -10 -18 -2 hvcurveto
          -16 -144 -28 -266 -23 vvcurveto
          -16 18 -10 32 vhcurveto
          endchar
        </CharString>
        <CharString name="f">
          -225 19 86 callsubr
          0 -20 hstemhm
          76 126 hintmask 11011000
          129 -2 rmoveto
          8 callgsubr
          hlineto
          hintmask 11101000
          84 vlineto
          -55 callsubr
          -395 hlineto
          hintmask 11011000
          -32 callsubr
          endchar
        </CharString>
        <CharString name="f_f">
          61 19 86 callsubr
          hstem
          76 126 160 126 vstem
          522 657 rmoveto
          13 11 -5 7 hhcurveto
          18 10 55 8 34 -57 10 -30 -74 -58 -40 -110 hvcurveto
          -86 -160 84 vlineto
          -55 callsubr
          -395 hlineto
          55 callgsubr
          160 -395 vlineto
          -19 16 -10 37 vhcurveto
          8 callgsubr
          84 hlineto
          39 12 11 22 vhcurveto
          endchar
        </CharString>
        <CharString name="f_t">
          73 142 callsubr
          26 86 callsubr
          0 -20 hstemhm
          76 126 153 141 callgsubr
          hintmask 10011011
          540 98 rmoveto
          9 callgsubr
          283 47 vlineto
          -22 callgsubr
          -47 98 hlineto
          19 -13 10 -30 vhcurveto
          -24 hlineto
          -28 -16 -10 -19 -2 hvcurveto
          -13 -98 rlineto
          -153 84 hlineto
          -55 callsubr
          hlineto
          hintmask 00110111
          -395 vlineto
          55 callgsubr
          153 -285 vlineto
          hintmask 01010111
          -106 55 -38 66 31 60 9 33 vhcurveto
          hintmask 10011011
          10 -10 53 -17 vhcurveto
          endchar
        </CharString>
        <CharString name="fi">
          29 19 -21 424 101 65 114 -45 102 0 -20 hstemhm
          76 126 148 110 callsubr
          hintmask 11101110
          423 523 rmoveto
          -221 hlineto
          hintmask 11010110
          84 vlineto
          -55 callsubr
          -395 hlineto
          55 callgsubr
          148 -395 -16 callgsubr
          -21 callgsubr
          469 vlineto
          hintmask 11101110
          19 -16 8 -37 vhcurveto
          hintmask 11101101
          -8 65 -106 callsubr
          endchar
        </CharString>
        <CharString name="five">
          -52 -7 101 238 102 165 101 hstem
          53 129.5 112.5 128 vstem
          199 -7 rmoveto
          106 118 52 169 170 -100 50 -121 hvcurveto
          -25 hlineto
          11 165 rlineto
          183 hlineto
          18 8 11 25 hvcurveto
          22 128 callgsubr
          -261 hlineto
          -26 -11 -11 -26 -1 hvcurveto
          -19 -294 rlineto
          -26 8 -11 26 vhcurveto
          88 hlineto
          84 36 -43 -77 -76 -43 -42 -57 hvcurveto
          -69 -41 36 -11 hhcurveto
          -19 -29 -51 -18 -35 72 -33 101 hvcurveto
          endchar
        </CharString>
        <CharString name="fl">
          45 142 callsubr
          26 86 callsubr
          -6 -20 26 -20 hstemhm
          76 126 143 126 hintmask 0011001110000000
          129 -2 rmoveto
          8 callgsubr
          hlineto
          hintmask 0011100110000000
          84 vlineto
          -55 callsubr
          -395 hlineto
          hintmask 0011001110000000
          -32 callsubr
          hintmask 0101001110000000
          337 -5 rmoveto
          34 51 10 31 hvcurveto
          hintmask 1001010110000000
          -65 callgsubr
          hintmask 0101001110000000
          112 callgsubr
          endchar
        </CharString>
        <CharString name="florin">
          -182 -186 -21 625 102 137 102 hstemhm
          4 330 -251.5 125.5 hintmask 11110000
          52 -207 rmoveto
          23 hlineto
          hintmask 11101000
          39 14 10 19 2 hvcurveto
          63 596 rlineto
          57 hlineto
          34 2 68 6 19 -7 9 -15 hvcurveto
          -61 hlineto
          10 83 rlineto
          43 5 18 11 27 17 10 -4 7 hhcurveto
          18 18 50 13 1 hvcurveto
          40 -52 3 -33 -78 -71 -40 -114 -13 vhcurveto
          -9 -85 rlineto
          -28 hlineto
          -35 -2 -63 -12 -19 7 -8 15 hvcurveto
          32 hlineto
          -31 -320 -32 -269 -8 vvcurveto
          hintmask 11110000
          -18 11 -10 37 vhcurveto
          endchar
        </CharString>
        <CharString name="four">
          -52 19 -21 153 101 450 -20 hstem
          259 126 vstem
          309 -2 rmoveto
          26 38 callgsubr
          124 37 vlineto
          -22 callgsubr
          -37 421 hlineto
          -1 callsubr
          -40 hlineto
          -24 -20 -2 -18 -9 hvcurveto
          -233 -442 rlineto
          -1 -2 -1 -4 -5 vvcurveto
          -24 17 -54 15 vhcurveto
          220 -124 hlineto
          -19 15 -10 35 vhcurveto
          -181 254 rmoveto
          136 266 4 -1 rlineto
          -6 -46 -3 -38 -48 vvcurveto
          -133 vlineto
          endchar
        </CharString>
        <CharString name="fraction">
          -300 20 -21 702 -20 hstem
          -73 362 vstem
          -57 -1 rmoveto
          16 hlineto
          17 12 7 18 9 hvcurveto
          287 648 rlineto
          3 6 2 5 4 vvcurveto
          9 -6 5 -10 vhcurveto
          -16 hlineto
          -16 -14 -7 -18 -7 hvcurveto
          -288 -648 rlineto
          -3 -6 -2 -5 -4 vvcurveto
          -9 6 -5 10 vhcurveto
          endchar
        </CharString>
        <CharString name="g">
          -40 32 callsubr
          65 callsubr
          112 107 -81 107 hintmask 0000000000000000
          hintmask 1100100010000000
          224 -212 13 callsubr
          hintmask 1100001100000000
          -64 callgsubr
          hintmask 1001010010000000
          -6 callsubr
          hintmask 1100001010000000
          6 callgsubr
          hintmask 1100100010000000
          12 callgsubr
          hintmask 1010010100000000
          -19 callgsubr
          hintmask 1100100010000000
          -35 callgsubr
        </CharString>
        <CharString name="g.ss01">
          12 callsubr
          hstemhm
          31 127 129 126 hintmask 11011100
          364 525 46 callgsubr
          hintmask 11101100
          -71 callsubr
          hintmask 11011100
          419 vlineto
          15 -1 -15 9 -33 hhcurveto
          -140 -418 rmoveto
          -55 -11 74 86 hvcurveto
          hintmask 11101100
          113 23 49 53 25 18 -14 -13 13 vhcurveto
          -1 -14 -2 -23 -25 vvcurveto
          -163 vlineto
          hintmask 11011100
          -49 -14 -24 -21 -25 hhcurveto
          endchar
        </CharString>
        <CharString name="gbreve">
          -40 32 callsubr
          48 83 65 callsubr
          112 107 -81 107 hintmask 1100101001000000
          229 578 -103 callsubr
          hintmask 1100110001000000
          -5 -790 -59 callgsubr
        </CharString>
        <CharString name="gbreve.ss01">
          12 callsubr
          73 83 137 callgsubr
          233 578 -103 callsubr
          131 -53 -44 callgsubr
        </CharString>
        <CharString name="gcircumflex">
          -40 32 callsubr
          43 145 65 callsubr
          112 107 -81 107 hintmask 1100101001000000
          131 573 -107 callgsubr
          hintmask 1100110001000000
          93 -785 -59 callgsubr
        </CharString>
        <CharString name="gcircumflex.ss01">
          12 callsubr
          68 145 137 callgsubr
          135 573 -107 callgsubr
          229 -48 -44 callgsubr
        </CharString>
        <CharString name="gcommaaccent">
          -74 32 callsubr
          65 callsubr
          -20 109 23 107 -81 107 hintmask 0000000000000000
          hintmask 1100000101000000
          250 765 rmoveto
          -28 -59 -71 -78 -22 12 -16 30 hvcurveto
          101 callgsubr
          vhcurveto
          hintmask 1100100001000000
          -26 -977 13 callsubr
          hintmask 1100001010000000
          -64 callgsubr
          hintmask 1001010001000000
          -6 callsubr
          hintmask 1100001001000000
          6 callgsubr
          hintmask 1100100001000000
          12 callgsubr
          hintmask 1010010010000000
          -19 callgsubr
          hintmask 1100100001000000
          -35 callgsubr
        </CharString>
        <CharString name="gcommaaccent.ss01">
          12 callsubr
          hstemhm
          31 127 23 109 -3 141 callgsubr
          hintmask 11011100
          223 578 rmoveto
          101 callgsubr
          -28 -59 -71 -78 -22 12 -16 30 vhcurveto
          hintmask 11011010
          141 -53 46 callgsubr
          hintmask 11101010
          -71 callsubr
          hintmask 11011010
          419 vlineto
          15 -1 -15 9 -33 hhcurveto
          hintmask 11101010
          20 callsubr
        </CharString>
        <CharString name="gdotaccent">
          -40 32 callsubr
          58 114 65 callsubr
          -13 121 4 107 -81 107 hintmask 0000000000000000
          hintmask 1100101010100000
          231 -80 callgsubr
          hintmask 1100110000100000
          -7 -800 13 callsubr
          hintmask 1100100101000000
          -64 callgsubr
          hintmask 1001101000100000
          -6 callsubr
          hintmask 1100100100100000
          6 callgsubr
          hintmask 1100110000100000
          12 callgsubr
          hintmask 1010101001000000
          -19 callgsubr
          hintmask 1100110000100000
          -35 callgsubr
        </CharString>
        <CharString name="gdotaccent.ss01">
          12 callsubr
          83 114 hstemhm
          31 127 16 121 -8 141 callgsubr
          hintmask 11011110
          235 -80 callgsubr
          hintmask 11011101
          129 -63 46 callgsubr
          hintmask 11101101
          -71 callsubr
          hintmask 11011101
          419 vlineto
          15 -1 -15 9 -33 hhcurveto
          hintmask 11101101
          20 callsubr
        </CharString>
        <CharString name="germandbls">
          -31 0 101 213 101 186 106 hstemhm
          58 127 121 129 -110 126 hintmask 11110100
          111 -2 rmoveto
          22 hlineto
          36 -31 callsubr
          497 vlineto
          48 23 29 40 vhcurveto
          hintmask 11111000
          37 21 -27 -62 -61 -24 -36 -33 hvcurveto
          -4 hlineto
          -16 -8 -14 -29 hvcurveto
          -15 vlineto
          hintmask 11110100
          -30 8 -13 18 vhcurveto
          7 hlineto
          43 28 -34 -75 -72 -26 -32 -39 hvcurveto
          -13 hlineto
          125 callsubr
          19 hlineto
          113 72 71 134 91 -31 54 -65 26 hvcurveto
          4 vlineto
          hintmask 11111000
          51 25 29 55 70 vvcurveto
          125 -84 52 -102 -121 -70 -77 -118 vhcurveto
          -485 vlineto
          hintmask 11110100
          -32 callsubr
          endchar
        </CharString>
        <CharString name="grave">
          -255 111 callsubr
          40 174 vstem
          188 578 -102 callgsubr
          endchar
        </CharString>
        <CharString name="gravecomb">
          -511 111 callsubr
          -129 174 vstem
          19 578 -102 callgsubr
          endchar
        </CharString>
        <CharString name="greater">
          125 callgsubr
          30 383 vstem
          57 14 rmoveto
          333 176 rlineto
          17 9 6 11 20 vvcurveto
          18 vlineto
          20 -6 11 -17 9 vhcurveto
          -325 171 rlineto
          -28 15 -6 -14 -28 vvcurveto
          -15 vlineto
          -31 6 -12 18 -11 vhcurveto
          225 -124 -227 -125 rlineto
          -19 -13 -4 -8 -33 vvcurveto
          -15 vlineto
          -28 4 -15 23 12 vhcurveto
          endchar
        </CharString>
        <CharString name="greaterequal">
          -58 0 95 hstem
          32 384 vstem
          33 159 rmoveto
          -30 1 -12 25 12 vhcurveto
          332 163 rlineto
          17 9 8 10 20 vvcurveto
          18 vlineto
          20 -8 11 -17 8 vhcurveto
          -330 162 rlineto
          -24 11 -2 -9 -32 vvcurveto
          -9 vlineto
          -34 5 -9 16 -9 vhcurveto
          225 -119 -225 -120 rlineto
          -16 -8 -7 -11 -20 vvcurveto
          23 -181 rmoveto
          335 hlineto
          38 callsubr
        </CharString>
        <CharString name="guillemotleft">
          -106 52 412 hstem
          22 356 vstem
          160 52 rmoveto
          140 callsubr
          -92 146 92 146 rlineto
          4 8 3 7 6 vvcurveto
          21 -35 18 -16 -9 -7 -3 -10 -6 vhcurveto
          -103 -155 rlineto
          -8 -12 -5 -11 82 callgsubr
          167 hmoveto
          140 callsubr
          -91 146 91 146 rlineto
          4 8 3 7 6 vvcurveto
          21 -34 18 -17 -8 -8 -3 -10 -7 vhcurveto
          -101 -155 rlineto
          -9 -13 -5 -10 0 -15 0 -15 5 -10 -13 flex1
          101 -154 rlineto
          -11 7 8 -3 8 hhcurveto
          endchar
        </CharString>
        <CharString name="guillemotright">
          -106 52 412 hstem
          28 356 vstem
          80 52 rmoveto
          7 9 3 11 6 hvcurveto
          102 154 rlineto
          9 95 callsubr
          -6 -8 117 callsubr
          91 -146 -91 113 callgsubr
          167 hmoveto
          7 8 3 11 6 hvcurveto
          103 154 rlineto
          9 13 4 10 0 15 0 15 -4 11 12 flex1
          -103 155 rlineto
          10 -6 -7 117 callsubr
          92 -146 -92 113 callgsubr
          endchar
        </CharString>
        <CharString name="guilsinglleft">
          -264 52 412 hstem
          22 192 vstem
          160 52 rmoveto
          18 36 20 19 7 -3 6 -4 8 hvcurveto
          -92 146 92 145 rlineto
          4 9 3 6 7 vvcurveto
          21 -37 18 -17 -8 -8 -3 -10 -6 vhcurveto
          -103 -155 rlineto
          -8 -13 -5 -10 82 callgsubr
          endchar
        </CharString>
        <CharString name="guilsinglright">
          -264 52 412 hstem
          28 191 vstem
          81 52 rmoveto
          8 8 3 11 7 hvcurveto
          102 154 rlineto
          8 95 callsubr
          -7 -8 3 -8 hhcurveto
          -16 -37 -18 -21 -7 2 -6 5 -9 hvcurveto
          91 -145 -91 -146 rlineto
          -5 -8 -2 -6 -7 vvcurveto
          -19 35 -20 18 vhcurveto
          endchar
        </CharString>
        <CharString name="h">
          -26 99 callsubr
          223 -20 hstem
          134 callgsubr
          vstem
          112 -2 rmoveto
          -46 callsubr
          -55 -42 -30 -37 -27 vhcurveto
          262 vlineto
          18 56 callgsubr
          -27 16 callsubr
          -698 -51 callsubr
          endchar
        </CharString>
        <CharString name="hbar">
          -26 99 callsubr
          58 87 78 -20 hstem
          134 callgsubr
          vstem
          313 530 rmoveto
          -55 -42 -30 -37 -27 hvcurveto
          125 64 vlineto
          23 8 11 26 hvcurveto
          13 vlineto
          26 -8 11 -23 vhcurveto
          -64 50 hlineto
          18 56 callgsubr
          -27 16 callsubr
          -50 -37 vlineto
          -22 -9 -11 -26 hvcurveto
          -13 vlineto
          -26 9 -11 22 vhcurveto
          37 -561 hlineto
          -45 callgsubr
          -46 callsubr
          vhcurveto
          endchar
        </CharString>
        <CharString name="hcircumflex">
          -26 99 callsubr
          223 -20 48 145 hstemhm
          134 callgsubr
          hintmask 00000000
          hintmask 11111100
          27 781 -107 callgsubr
          85 -783 rmoveto
          -46 callsubr
          -55 -42 -30 -37 -27 vhcurveto
          hintmask 11101100
          262 vlineto
          18 56 callgsubr
          -27 16 callsubr
          -698 vlineto
          hintmask 11111100
          -45 callgsubr
          endchar
        </CharString>
        <CharString name="hookabovecomb">
          -511 693 58 hstem
          -203 78 vstem
          -222 568 -99 callsubr
          endchar
        </CharString>
        <CharString name="hungarumlaut">
          -204 111 callsubr
          -16 326 vstem
          10 578 -83 callgsubr
          endchar
        </CharString>
        <CharString name="hyphen">
          -255 218 94 hstem
          20 216 vstem
          45 218 rmoveto
          166 hlineto
          17 -12 callsubr
          8 vlineto
          31 -8 12 -17 vhcurveto
          -166 hlineto
          -17 -8 -12 -31 hvcurveto
          -8 -34 callsubr
          17 vhcurveto
          endchar
        </CharString>
        <CharString name="i">
          -257 19 103 callgsubr
          hintmask 00000000
          hintmask 11101000
          129 -80 callgsubr
          hintmask 11110000
          -12 -590 -86 callsubr
          endchar
        </CharString>
        <CharString name="i.loclTRK">
          -257 19 103 callgsubr
          hintmask 00000000
          hintmask 11101000
          129 -80 callgsubr
          hintmask 11110000
          -12 -590 -86 callsubr
          endchar
        </CharString>
        <CharString name="iacute">
          86 callgsubr
          73 155 88 callsubr
          112 578 rmoveto
          -106 callgsubr
          5 -580 -86 callsubr
          endchar
        </CharString>
        <CharString name="iacute_j.loclNLD">
          -8 -212 101 130 -21 527 123 callsubr
          hstem
          64 126 128 126 vstem
          112 578 rmoveto
          -106 callgsubr
          254 hmoveto
          -106 callgsubr
          -249 -580 -86 callsubr
          202 -210 rmoveto
          -76 callgsubr
          -35 38 -9 51 hvcurveto
          endchar
        </CharString>
        <CharString name="ibreve">
          86 callgsubr
          73 83 88 callsubr
          127 578 -103 callsubr
          -10 -580 -86 callsubr
          endchar
        </CharString>
        <CharString name="icircumflex">
          86 callgsubr
          68 145 88 callsubr
          29 573 -107 callgsubr
          88 -575 -86 callsubr
          endchar
        </CharString>
        <CharString name="idieresis">
          86 callgsubr
          83 114 hstemhm
          3 102 -41 126 -37 102 hintmask 00000000
          hintmask 11110100
          55 588 -102 callsubr
          hintmask 11101000
          -87 -590 -86 callsubr
          endchar
        </CharString>
        <CharString name="igrave">
          86 callgsubr
          73 155 88 callsubr
          146 578 -102 callgsubr
          -29 -580 -86 callsubr
          endchar
        </CharString>
        <CharString name="ij">
          -8 -212 101 96 callgsubr
          129 110 callsubr
          hintmask 00000000
          hintmask 11110101
          129 -80 callgsubr
          254 hmoveto
          42 18 -70 callsubr
          56 vlineto
          19 -19 10 -42 -41 -19 -10 -19 vhcurveto
          -56 vlineto
          -19 19 -10 42 vhcurveto
          hintmask 11111010
          -266 -590 -86 callsubr
          202 -210 rmoveto
          -76 callgsubr
          -35 38 -9 51 hvcurveto
          endchar
        </CharString>
        <CharString name="imacron">
          86 callgsubr
          97 87 88 callsubr
          33 602 -84 callsubr
          84 -604 -86 callsubr
          endchar
        </CharString>
        <CharString name="infinity">
          119 112 93 -93 96 143 96 -93 93 hstemhm
          38 96 365 96 hintmask 00000000
          hintmask 10101100
          459 447 rmoveto
          -53 -56 -30 -78 -33 hvcurveto
          hintmask 01011100
          64 -26 -49 44 -61 hhcurveto
          -83 -60 -69 -98 -96 57 -72 79 52 56 30 79 33 hvcurveto
          hintmask 10011100
          -65 26 49 -44 61 hhcurveto
          84 60 69 98 hvcurveto
          hintmask 10101100
          96 -58 72 -78 vhcurveto
          hintmask 01011100
          -274 -239 rmoveto
          -33 -18 31 42 43 22 30 31 24 24 -20 -58 20 hvcurveto
          -42 -17 -27 -26 -26 hhcurveto
          hintmask 10101100
          261 -3 rmoveto
          -24 -24 20 58 -21 hvcurveto
          42 17 27 26 27 hhcurveto
          33 18 -31 -42 -43 -23 -30 -30 hvcurveto
          endchar
        </CharString>
        <CharString name="integral">
          -213 -167 96 855 96 hstem
          85 127 vstem
          68 -167 rmoveto
          94 50 84 171 hvcurveto
          177 -11 178 164 vvcurveto
          126 13 51 35 vhcurveto
          20 8 -8 7 hhcurveto
          15 14 26 31 40 -62 7 -21 -95 -50 -84 -172 hvcurveto
          -180 11 -175 -164 vvcurveto
          -126 -13 -50 -36 vhcurveto
          -19 -8 7 -7 hhcurveto
          -16 -14 -26 -30 -40 62 -7 23 hvcurveto
          endchar
        </CharString>
        <CharString name="iogonek">
          -257 -178 67 96 callgsubr
          hintmask 00000000
          hintmask 11110100
          129 -80 callgsubr
          hintmask 11111000
          111 -694 54 callgsubr
          26 hvcurveto
          7 5 3 7 8 vvcurveto
          -78 callsubr
          -16 -32 -5 -33 -19 -63 callsubr
          endchar
        </CharString>
        <CharString name="itilde">
          -283 120 callsubr
          80 95 callgsubr
          64 141 callgsubr
          hintmask 11011000
          5 584 133 callgsubr
          9 6 5 11 7 hvcurveto
          17 11 7 3 9 hhcurveto
          hintmask 11101000
          -1 27 48 -32 35 19 callgsubr
          -9 hhcurveto
          hintmask 11011000
          -27 -48 33 -34 23 callsubr
          122 -590 -86 callsubr
          endchar
        </CharString>
        <CharString name="j">
          -262 -212 101 636 124 callsubr
          hintmask 00000000
          hintmask 11101000
          129 -80 callgsubr
          -64 -800 rmoveto
          hintmask 11110000
          -76 callgsubr
          hvcurveto
          hintmask 11101000
          101 callsubr
        </CharString>
        <CharString name="jcircumflex">
          -262 -212 101 636 -20 68 145 88 callsubr
          29 573 -107 callgsubr
          36 -785 rmoveto
          -76 callgsubr
          -35 38 -9 51 hvcurveto
          endchar
        </CharString>
        <CharString name="k">
          -59 19 138 callgsubr
          88 callsubr
          -31 callgsubr
          endchar
        </CharString>
        <CharString name="kcommaaccent">
          -59 -217 -21 257 138 callgsubr
          hstemhm
          64 126 -11 109 hintmask 11111100
          -31 callgsubr
          hintmask 11111010
          -188 -83 rmoveto
          -4 callsubr
          hvcurveto
          -78 -17 -30 -20 vvcurveto
          -14 23 -5 16 28 59 71 78 22 -12 16 -30 vhcurveto
          endchar
        </CharString>
        <CharString name="kgreenlandic">
          -59 19 -21 249 64 214 -20 88 callsubr
          115 -2 rmoveto
          25 38 callgsubr
          220 6 vlineto
          109 -232 rlineto
          -14 7 17 -3 24 hhcurveto
          40 hlineto
          33 14 5 10 4 -1 6 -5 9 hvcurveto
          -132 253 114 202 rlineto
          6 12 2 6 4 vvcurveto
          10 -13 6 -34 vhcurveto
          -36 hlineto
          -23 -16 -1 -16 -7 hvcurveto
          -100 -197 rlineto
          -5 185 hlineto
          -1 callsubr
          -25 hlineto
          -60 callgsubr
          hvcurveto
          -469 -51 callsubr
          endchar
        </CharString>
        <CharString name="l">
          -241 142 callsubr
          760 135 callsubr
          hintmask 01110000
          48 callgsubr
          hintmask 10110000
          -65 callgsubr
          hintmask 01110000
          112 callgsubr
          endchar
        </CharString>
        <CharString name="lacute">
          -241 142 callsubr
          760 -20 42 155 hstemhm
          59 141 callgsubr
          hintmask 01111000
          106 775 rmoveto
          -106 callgsubr
          74 -782 rmoveto
          34 51 10 31 hvcurveto
          hintmask 10101000
          -65 callgsubr
          hintmask 01111000
          112 callgsubr
          endchar
        </CharString>
        <CharString name="lcaron">
          -241 142 callsubr
          708 -20 72 135 callsubr
          45 108 hintmask 01111000
          48 callgsubr
          hintmask 10111000
          -65 callgsubr
          hintmask 01111000
          112 callgsubr
          hintmask 01111100
          82 524 rmoveto
          -25 callsubr
          -15 23 -5 16 vhcurveto
          endchar
        </CharString>
        <CharString name="lcommaaccent">
          -241 -217 -21 231 101 -80 -21 760 135 callsubr
          -85 109 hintmask 10111000
          48 callgsubr
          hintmask 11011000
          -65 callgsubr
          hintmask 10111000
          112 callgsubr
          hintmask 10110100
          -58 -231 -83 callsubr
          endchar
        </CharString>
        <CharString name="ldot">
          -202 142 callsubr
          303 127 330 135 callsubr
          23 123 hintmask 01111000
          48 callgsubr
          hintmask 10111000
          -65 callgsubr
          hintmask 01111000
          112 callgsubr
          hintmask 01111100
          89 303 21 callsubr
        </CharString>
        <CharString name="less">
          125 callgsubr
          28 383 vstem
          384 14 rmoveto
          23 -12 4 15 28 vvcurveto
          15 vlineto
          33 -4 8 -19 13 vhcurveto
          -227 125 225 124 rlineto
          18 11 6 12 31 vvcurveto
          15 vlineto
          28 -6 14 -28 -15 vhcurveto
          -325 -171 rlineto
          -17 -9 -6 -11 -20 vvcurveto
          -18 vlineto
          -20 6 -11 17 -9 vhcurveto
          endchar
        </CharString>
        <CharString name="lessequal">
          -58 0 95 hstem
          28 384 vstem
          385 129 rmoveto
          26 30 rlineto
          22 vlineto
          20 -7 11 -16 8 vhcurveto
          -225 120 225 119 rlineto
          16 9 5 9 34 vvcurveto
          9 vlineto
          32 -2 9 -24 -11 vhcurveto
          -330 -162 rlineto
          -17 -8 -8 -11 -20 vvcurveto
          -18 vlineto
          -20 8 -10 17 -9 vhcurveto
          335 -292 rmoveto
          38 callsubr
        </CharString>
        <CharString name="logicalnot">
          -62 250 95 hstem
          325 100 vstem
          358 74 rmoveto
          34 hlineto
          23 10 10 18 hvcurveto
          207 vlineto
          25 -10 11 -23 vhcurveto
          -344 hlineto
          -17 57 callsubr
          -9 -34 callsubr
          17 vhcurveto
          277 -148 hlineto
          -18 10 -10 23 vhcurveto
          endchar
        </CharString>
        <CharString name="longs">
          -238 19 86 callsubr
          0 -20 hstemhm
          71 126 hintmask 11011000
          124 -2 rmoveto
          -21 callgsubr
          hintmask 11101000
          580 vlineto
          39 13 11 22 vhcurveto
          13 10 -5 7 hhcurveto
          19 9 55 8 34 -57 10 -30 -74 -58 -40 -110 hvcurveto
          -86 -17 vlineto
          -19 57 callsubr
          -15 -34 callsubr
          19 vhcurveto
          17 -395 hlineto
          hintmask 11011000
          -32 callsubr
          endchar
        </CharString>
        <CharString name="lozenge">
          -65 -14 727 hstem
          31 386 vstem
          213 -14 rmoveto
          21 hlineto
          26 19 5 19 7 hvcurveto
          126 315 rlineto
          4 8 1 7 0 8 0 7 -2 8 7 flex1
          -130 320 rlineto
          18 -7 -19 5 -26 hhcurveto
          -12 hlineto
          -25 -20 -5 -18 -7 hvcurveto
          -130 -320 rlineto
          -4 -7 -1 -8 0 -7 0 -8 1 -7 -8 flex1
          126 -315 rlineto
          -19 7 20 -5 24 hhcurveto
          10 140 rmoveto
          -74 222 74 219 75 -219 rlineto
          endchar
        </CharString>
        <CharString name="lslash">
          -235 -7 101 659 -20 hstemhm
          65 141 callgsubr
          hintmask 11100000
          245 98 rmoveto
          -6 -8 -4 -12 hhcurveto
          -18 -10 10 31 hvcurveto
          269 vlineto
          34 20 rlineto
          16 10 7 11 19 vvcurveto
          15 vlineto
          12 -4 6 -6 -4 -4 -1 -4 -5 vhcurveto
          -34 -20 rlineto
          253 vlineto
          18 -16 10 -37 vhcurveto
          -20 50 callsubr
          -329 vlineto
          -20 -12 rlineto
          -16 -9 -8 -12 -19 vvcurveto
          -15 vlineto
          -12 3 -6 7 3 5 2 3 6 vhcurveto
          20 12 rlineto
          -194 vlineto
          -103 53 -38 68 34 51 10 31 16 -9 48 -17 vhcurveto
          endchar
        </CharString>
        <CharString name="m">
          209 99 callsubr
          hstem
          60 127 111 128 111 127 vstem
          548 530 rmoveto
          -60 -46 -33 -39 -27 hvcurveto
          50 -17 -39 22 -50 hhcurveto
          -59 -43 -36 -39 -26 hvcurveto
          34 -7 2 33 -31 hhcurveto
          -18 -77 -6 -25 hvcurveto
          -11 10 -30 -93 vvcurveto
          -330 vlineto
          -19 15 -10 35 vhcurveto
          37 callsubr
          22 27 32 hhcurveto
          35 13 -24 -43 hvcurveto
          -331 -51 callsubr
          26 -68 callsubr
          354 vlineto
          4 vlineto
          21 14 22 19 27 hhcurveto
          35 13 -24 -43 hvcurveto
          -331 -51 callsubr
          25 -68 callsubr
          356 vlineto
          100 -45 47 -71 vhcurveto
          endchar
        </CharString>
        <CharString name="macron">
          -256 602 87 hstem
          4 245 vstem
          30 602 -84 callsubr
          endchar
        </CharString>
        <CharString name="minus">
          -62 177 95 hstem
          21 407 vstem
          47 177 rmoveto
          355 hlineto
          19 7 -46 callgsubr
          9 108 callsubr
          -355 hlineto
          100 callsubr
          -9 22 callsubr
          endchar
        </CharString>
        <CharString name="multiply">
          -63 7.26 459.25 hstem
          28.88 376.02 vstem
          281 237 rmoveto
          115 155 15 22 -5 8 -16 14 rlinecurve
          -20 17 -13 10 -14 12 -16 -21 rlinecurve
          -110 -152 -115 156 -12 15 -10 -6 -22 -18 rlinecurve
          -11 -10 -22 -19 -1 -11 14 -17 rlinecurve
          114 -155 -114 -155 -14 -17 1 -11 22 -20 rlinecurve
          11 -9 22 -19 10 -5 12 15 rlinecurve
          115 156 110 -152 16 -21 14 11 13 11 rlinecurve
          20 17 16 13 5 9 -15 22 rlinecurve
          endchar
        </CharString>
        <CharString name="n">
          99 callsubr
          hstem
          48 callsubr
          vstem
          110 -2 -96 callsubr
          endchar
        </CharString>
        <CharString name="nacute">
          99 callsubr
          48 155 hstem
          48 callsubr
          vstem
          227 578 rmoveto
          -106 callgsubr
          -117 -580 -96 callsubr
          endchar
        </CharString>
        <CharString name="nacute.loclPLK">
          99 callsubr
          48 155 hstem
          48 callsubr
          vstem
          228 578 -82 callgsubr
          -118 -580 -96 callsubr
          endchar
        </CharString>
        <CharString name="napostrophe">
          99 callsubr
          hstemhm
          18 109 -67 127 113 128 hintmask 00000000
          hintmask 11101000
          40 534 -83 callsubr
          hintmask 11011000
          70 -536 -96 callsubr
          endchar
        </CharString>
        <CharString name="ncaron">
          99 callsubr
          46 144 hstem
          48 callsubr
          vstem
          239 576 -105 callgsubr
          -129 -578 -96 callsubr
          endchar
        </CharString>
        <CharString name="ncommaaccent">
          -217 -21 257 102 callgsubr
          hstemhm
          60 127 1 109 3 128 hintmask 11110100
          110 -2 -96 callsubr
          hintmask 11101000
          100 -236 -83 callsubr
          endchar
        </CharString>
        <CharString name="nine">
          -52 15 -21 283 102 224 101 hstem
          27 121 154 128 vstem
          117 -6 rmoveto
          30 283 100 354 179 -92 77 -109 -103 -99 -68 -150 -148 91 -61 74 32 31 8 19 30 hvcurveto
          -27 -103 -68 -78 -106 -39 rrcurveto
          -10 -3 -2 -4 -10 vvcurveto
          -18 15 -55 30 vhcurveto
          117 385 rmoveto
          -49 -37 37 73 73 40 41 39 38 37 -33 -113 -20 0 -18 -1 -19 hvcurveto
          -11 -19 -22 -10 -26 hhcurveto
          endchar
        </CharString>
        <CharString name="notequal">
          -63 82 callsubr
          -72 hlineto
          60 95 rlineto
          30 20 -7 18 -39 hhcurveto
          -19 hlineto
          -25 -12 -10 -17 -10 hvcurveto
          -73 -116 rlineto
          -161 40 callsubr
          63 hlineto
          -67 -107 rlineto
          -22 -13 8 -17 37 hhcurveto
          19 hlineto
          25 10 8 19 12 hvcurveto
          75 119 rlineto
          169 63 callgsubr
        </CharString>
        <CharString name="ntilde">
          99 callsubr
          55 95 callgsubr
          48 callsubr
          hintmask 00000000
          hintmask 11011100
          114 -2 callsubr
          hintmask 11101100
          -103 callgsubr
          hintmask 11011100
          -88 callgsubr
          6 -590 -96 callsubr
          endchar
        </CharString>
        <CharString name="numbersign">
          3 19 -21 190 98 123 98 hstem
          14 486 vstem
          108 -2 rmoveto
          15 hlineto
          29 13 10 18 3 hvcurveto
          24 162 rlineto
          84 hlineto
          -16 -99 -7 -59 -7 vvcurveto
          -17 13 -8 26 vhcurveto
          14 hlineto
          29 14 10 18 3 hvcurveto
          23 162 rlineto
          74 hlineto
          18 8 12 31 hvcurveto
          12 128 callgsubr
          -59 hlineto
          17 123 rlineto
          67 77 callgsubr
          12 vlineto
          31 -8 12 -18 vhcurveto
          -52 hlineto
          21 152 rlineto
          17 2 -14 10 -26 hhcurveto
          -15 hlineto
          -30 -14 -10 -18 -3 hvcurveto
          -21 -151 rlineto
          -85 hlineto
          22 152 rlineto
          17 2 -13 10 -28 hhcurveto
          -14 hlineto
          -29 -14 -10 -18 -3 hvcurveto
          -22 -151 rlineto
          -69 hlineto
          -19 -8 -12 -31 hvcurveto
          -12 -34 callsubr
          19 vhcurveto
          55 hlineto
          -17 -123 rlineto
          -67 hlineto
          100 callsubr
          -12 vlineto
          -31 8 -12 18 vhcurveto
          52 hlineto
          -15 -96 -8 -63 -5 vvcurveto
          -18 -1 13 -8 27 hhcurveto
          99 288 rmoveto
          17 123 rlineto
          84 hlineto
          -17 -123 rlineto
          endchar
        </CharString>
        <CharString name="o">
          23 callgsubr
          hstem
          -33 callsubr
          vstem
          239 -7 -90 callsubr
        </CharString>
        <CharString name="oacute">
          -8 callsubr
          223 578 rmoveto
          -106 callgsubr
          16 -585 -90 callsubr
        </CharString>
        <CharString name="oacute.loclPLK">
          -8 callsubr
          224 578 -82 callgsubr
          15 -585 -90 callsubr
        </CharString>
        <CharString name="obreve">
          23 callgsubr
          48 83 hstem
          -33 callsubr
          vstem
          238 578 -103 callsubr
          1 -585 -90 callsubr
        </CharString>
        <CharString name="ocircumflex">
          -34 119 callgsubr
          hstem
          -33 callsubr
          vstem
          140 573 -107 callgsubr
          99 -580 -90 callsubr
        </CharString>
        <CharString name="odieresis">
          23 callgsubr
          58 114 hstemhm
          39 128 -53 102 48 102 -56 129 hintmask 00000000
          hintmask 11101100
          166 588 -102 callsubr
          hintmask 11110010
          -76 -595 -90 callsubr
        </CharString>
        <CharString name="oe">
          210 -7 101 117 83 135 101 -95 95 hstemhm
          39 128 142 124 140 119 hintmask 11011110
          633 128 rmoveto
          -59 callsubr
          210 hlineto
          13 32 38 15 169 -54 97 -128 -58 -49 -16 -38 -35 hvcurveto
          35 -32 -43 19 -54 hhcurveto
          -138 -62 -95 -174 -173 62 -95 138 56 43 19 36 32 hvcurveto
          -36 36 51 -19 69 hhcurveto
          -42 callgsubr
          -125 307 rmoveto
          45 20 -43 -98 hvcurveto
          -140 hlineto
          105 5 25 36 45 hhcurveto
          -269 -341 rmoveto
          -51 -21 48 120 hvcurveto
          hintmask 11101110
          120 21 47 51 42 21 -30 -74 7 vhcurveto
          -2 -21 -1 -22 0 -24 0 -22 1 -20 -19 flex1
          hintmask 11011110
          -73 -7 -22 -30 -41 hhcurveto
          endchar
        </CharString>
        <CharString name="ogonek">
          -255 -183 67 hstem
          43 65 vstem
          138 -183 rmoveto
          21 21 5 9 18 hvcurveto
          11 7 4 10 13 vvcurveto
          21 -9 7 -17 vhcurveto
          103 callsubr
          -48 16 rlineto
          -29 -40 -8 -46 -25 vvcurveto
          -26 9 -66 86 vhcurveto
          endchar
        </CharString>
        <CharString name="ograve">
          -8 callsubr
          257 578 -102 callgsubr
          -18 -585 -90 callsubr
        </CharString>
        <CharString name="ohorn">
          23 callgsubr
          -70 39 hstemhm
          -33 callsubr
          -29 73 hintmask 11011000
          132 callgsubr
          hintmask 10111000
          121 callgsubr
          vhcurveto
          hintmask 10110100
          -65 callsubr
          hintmask 11011000
          12 -27 -29 8 -34 hhcurveto
          -98 callgsubr
          endchar
        </CharString>
        <CharString name="ohungarumlaut">
          -8 callsubr
          138 578 -13 callsubr
          -585 -90 callsubr
        </CharString>
        <CharString name="omacron">
          23 callgsubr
          72 87 hstem
          -33 callsubr
          vstem
          144 602 -84 callsubr
          95 -609 -90 callsubr
        </CharString>
        <CharString name="one">
          -52 0 101 602 -20 hstem
          177 126 vstem
          61 hmoveto
          336 hlineto
          19 -12 callsubr
          15 vlineto
          31 -8 12 -19 vhcurveto
          -94 579 hlineto
          12 -22 11 -15 vhcurveto
          -215 -42 rlineto
          -15 -3 -8 -8 -14 vvcurveto
          -24 6 -49 22 vhcurveto
          121 19 rlineto
          -481 -116 vlineto
          125 callsubr
          endchar
        </CharString>
        <CharString name="oneeighth">
          117 -4 59 -35 -21 359 59 284 107 callsubr
          179 71 -62 70 80 68 -63 71 hintmask 1010111001000000
          -61 callgsubr
          hintmask 0111011001000000
          -12 -295 rmoveto
          15 hlineto
          17 13 7 17 7 hvcurveto
          283 655 rlineto
          1 64 callsubr
          -12 vhcurveto
          -15 hlineto
          -16 -14 -6 -17 -7 hvcurveto
          -281 -656 rlineto
          -3 -5 -2 -5 -3 vvcurveto
          -7 6 -3 11 vhcurveto
          hintmask 1010111001000000
          353 -3 rmoveto
          79 38 55 64 60 -27 29 -31 19 hvcurveto
          hintmask 1010110110000000
          26 15 24 26 51 vvcurveto
          63 -43 39 -64 -68 -43 -42 -65 -46 20 -25 25 -19 vhcurveto
          hintmask 1010111001000000
          -29 -16 -25 -31 -57 vvcurveto
          -71 40 -49 78 vhcurveto
          hintmask 1010110110000000
          7 257 rmoveto
          -25 14 -21 15 31 vvcurveto
          30 19 15 21 22 18 -15 -31 -26 -12 -19 -22 -14 vhcurveto
          hintmask 1010111001000000
          -7 -198 rmoveto
          -27 -20 19 45 34 13 19 20 16 hvcurveto
          32 -17 28 -16 -42 vvcurveto
          -32 -18 -26 -28 vhcurveto
          endchar
        </CharString>
        <CharString name="onehalf">
          130 0 59 293 59 290 107 callsubr
          349 75 hintmask 11011000
          -61 callgsubr
          72 callgsubr
          hintmask 11101000
          -10 callgsubr
          hintmask 11011000
          -7 7 -3 11 vhcurveto
          259 1 rmoveto
          205 hlineto
          14 callgsubr
          -128 hlineto
          hintmask 11011100
          -32 callgsubr
          hintmask 11011000
          -15 6 -27 9 vhcurveto
          endchar
        </CharString>
        <CharString name="onequarter">
          75 19 -21 22 -21 88 59 555 107 callsubr
          261 73 hintmask 01101110
          -61 callgsubr
          72 callgsubr
          hintmask 01110110
          -10 callgsubr
          hintmask 01101110
          -7 7 -3 11 vhcurveto
          hintmask 10101110
          -28 callsubr
        </CharString>
        <CharString name="ordfeminine">
          -230 439 60 57 50 32 71 hstem
          21 82 58 83 vstem
          97 439 rmoveto
          35 23 15 13 12 hvcurveto
          -15 3 3 -9 13 hhcurveto
          12 52 3 12 hvcurveto
          6 -6 15 47 vvcurveto
          87 vlineto
          57 -35 39 -80 -52 -46 -16 -17 -12 13 -41 11 vhcurveto
          7 29 15 34 hhcurveto
          27 9 -11 -18 hvcurveto
          -3 vlineto
          -102 -38 -37 -52 -47 29 -31 47 hvcurveto
          29 60 rmoveto
          -15 -8 9 15 24 23 8 35 1 hvcurveto
          -38 vlineto
          -11 -7 -12 -8 -16 hhcurveto
          endchar
        </CharString>
        <CharString name="ordmasculine">
          -219 439 71 128 71 hstem
          26 85 70 85 vstem
          146 439 rmoveto
          77 43 49 86 86 -42 49 -78 -77 -43 -49 -86 -86 43 -49 77 hvcurveto
          1 71 rmoveto
          -25 -11 18 46 46 11 18 25 24 10 -19 -45 -46 -10 -18 -24 hvcurveto
          endchar
        </CharString>
        <CharString name="oslash">
          23 callgsubr
          hstem
          -33 callsubr
          vstem
          399 444 -50 callgsubr
        </CharString>
        <CharString name="oslashacute">
          -8 callsubr
          222 578 rmoveto
          -106 callgsubr
          177 -134 -50 callgsubr
        </CharString>
        <CharString name="otilde">
          23 callgsubr
          55 95 callgsubr
          -33 callsubr
          hintmask 00000000
          hintmask 11011100
          110 -2 callsubr
          hintmask 11101100
          -103 callgsubr
          hintmask 11011100
          -88 callgsubr
          139 -595 -90 callsubr
        </CharString>
        <CharString name="p">
          -27 106 callgsubr
          hstem
          61 127 127 129 vstem
          113 -207 rmoveto
          22 -38 callgsubr
          207 vlineto
          -20 20 130 callsubr
          -62 100 -91 -47 -40 -28 -43 -23 hvcurveto
          28 -5 -5 35 -28 hhcurveto
          -20 -73 -7 -22 hvcurveto
          -15 11 -27 -95 vvcurveto
          -534 16 callgsubr
          131 302 rmoveto
          -23 -19 10 15 -14 hvcurveto
          256 vlineto
          30 16 22 20 26 hhcurveto
          42 21 -53 -112 -117 -23 -49 -48 hvcurveto
          endchar
        </CharString>
        <CharString name="paragraph">
          -45 638 62 hstem
          204 62 78 62 vstem
          232 -172 rmoveto
          6 hlineto
          20 8 10 18 hvcurveto
          782 78 -782 vlineto
          -19 8 -9 20 vhcurveto
          6 hlineto
          20 8 10 18 hvcurveto
          782 24 vlineto
          19 8 8 19 hvcurveto
          6 vlineto
          21 -8 8 -19 vhcurveto
          -201 hlineto
          -110 -90 -86 -156 -140 77 -87 98 -14 hvcurveto
          -361 vlineto
          -19 8 -9 20 vhcurveto
          endchar
        </CharString>
        <CharString name="parenleft">
          -262 -188 -21 hstem
          38 104 vstem
          212 -209 rmoveto
          18 29 21 18 6 -2 7 -5 7 hvcurveto
          -83 131 -27 145 161 vvcurveto
          161 27 145 84 131 vhcurveto
          5 7 1 7 6 vvcurveto
          20 -30 19 -18 -8 -9 -4 -10 -7 vhcurveto
          -99 -122 -50 -176 -184 vvcurveto
          -185 50 -175 99 -122 vhcurveto
          -10 7 9 -4 9 hhcurveto
          endchar
        </CharString>
        <CharString name="parenright">
          -262 -188 -21 hstem
          106 105 vstem
          37 -209 rmoveto
          9 9 4 10 7 hvcurveto
          99 122 50 175 185 vvcurveto
          184 -50 176 -99 122 vhcurveto
          10 -7 -8 4 -9 hhcurveto
          -18 -30 -20 -19 -6 2 -7 4 -7 hvcurveto
          85 -131 25 -145 -161 vvcurveto
          -161 -27 -146 -83 -131 vhcurveto
          -4 -6 -2 -7 -6 vvcurveto
          -18 29 -21 18 vhcurveto
          endchar
        </CharString>
        <CharString name="partialdiff">
          -100 -9 105 222 105 207 105 hstem
          14 120 135 128 vstem
          186 -9 rmoveto
          137 74 128 215 250 -88 151 -140 -86 -39 -37 -29 -20 28 -47 18 hvcurveto
          13 18 28 38 hhcurveto
          56 46 -75 -164 10 hvcurveto
          22 -26 -31 10 -31 hhcurveto
          -92 -77 -89 -141 -129 65 -73 107 hvcurveto
          6 105 rmoveto
          -38 -20 32 67 68 29 55 44 23 19 -13 -25 20 hvcurveto
          -91 -24 -93 -53 vhcurveto
          endchar
        </CharString>
        <CharString name="percent">
          175 62 callsubr
          hintmask 1011101111000000
          169 375 rmoveto
          -5 callgsubr
          72 -28 60 hvcurveto
          hintmask 0111011111000000
          -3 callgsubr
          hintmask 1011101111000000
          52 6 39 37 37 6 -39 -52 vhcurveto
          hintmask 0111011111000000
          -57 -7 -36 -36 vhcurveto
          hintmask 1011101111000000
          349 -455 rmoveto
          -5 callgsubr
          71 -28 61 hvcurveto
          73 vmoveto
          32 callgsubr
          endchar
        </CharString>
        <CharString name="period">
          -323 -2 140 hstem
          29 130 vstem
          80 -2 rmoveto
          1 callsubr
        </CharString>
        <CharString name="periodcentered">
          -297 296 127 hstem
          52 123 vstem
          113 296 21 callsubr
        </CharString>
        <CharString name="perthousand">
          475 62 callsubr
          35 89 87 89 hintmask 1011101111110000
          169 375 rmoveto
          -5 callgsubr
          72 -28 60 hvcurveto
          hintmask 0101011100000000
          -3 callgsubr
          hintmask 0000101100000000
          52 6 39 37 37 6 -39 -52 vhcurveto
          hintmask 0101011100000000
          -57 -7 -36 -36 vhcurveto
          hintmask 1010000011110000
          349 -455 rmoveto
          -5 callgsubr
          71 -28 61 hvcurveto
          300 hmoveto
          -5 callgsubr
          71 -28 61 hvcurveto
          -300 73 rmoveto
          32 callgsubr
          300 hmoveto
          32 callgsubr
          endchar
        </CharString>
        <CharString name="pi">
          -4 19 -21 424 101 hstem
          109 116 73.5 120.5 vstem
          108 -2 rmoveto
          8 hlineto
          31 24 9 19 7 hvcurveto
          24 91 19 180 4 125 rrcurveto
          75 hlineto
          -3 -294 rlineto
          -66 -1 2 -64 52 hhcurveto
          22 hlineto
          37 17 11 17 hvcurveto
          12 -7 38 78 vvcurveto
          268 36 vlineto
          19 9 8 21 2 hvcurveto
          2 15 2 17 13 vvcurveto
          18 -10 9 -20 vhcurveto
          -323 hlineto
          -65 -62 -9 -39 -12 0 -52 31 11 16 9 2 42 hvcurveto
          -5 -126 -23 -163 -27 -103 rrcurveto
          -1 -4 -1 -3 -3 vvcurveto
          -12 21 -10 35 vhcurveto
          endchar
        </CharString>
        <CharString name="plus">
          -62 20 -21 188 93 hstem
          175 97 vstem
          218 -1 rmoveto
          11 hlineto
          30 13 8 19 hvcurveto
          161 120 vlineto
          18 7 -46 callgsubr
          7 123 callgsubr
          -18 vhcurveto
          -120 163 hlineto
          19 -13 8 -30 vhcurveto
          -11 hlineto
          -30 -13 -8 -19 hvcurveto
          -163 -117 vlineto
          -18 -8 -14 -30 hvcurveto
          -7 vlineto
          -30 8 -12 18 vhcurveto
          117 -161 hlineto
          -19 13 -8 30 vhcurveto
          endchar
        </CharString>
        <CharString name="plusminus">
          -62 0 95 222 93 hstem
          174 98 vstem
          217 130 rmoveto
          12 hlineto
          31 12 9 21 hvcurveto
          157 121 vlineto
          17 6 14 29 hvcurveto
          7 vlineto
          30 -6 13 -17 vhcurveto
          -121 160 hlineto
          20 -12 10 -31 vhcurveto
          -12 hlineto
          -30 -13 -10 -20 hvcurveto
          -160 -118 vlineto
          -17 -7 -13 -30 hvcurveto
          -7 vlineto
          -29 7 -14 17 vhcurveto
          118 -157 hlineto
          -21 13 -9 30 vhcurveto
          -160 -130 rmoveto
          333 hlineto
          18 7 -46 callgsubr
          9 123 callgsubr
          -18 vhcurveto
          -333 hlineto
          -17 -7 -13 -30 hvcurveto
          -9 vlineto
          -30 7 -13 17 vhcurveto
          endchar
        </CharString>
        <CharString name="product">
          89 590 110 hstem
          99 124 154 123 vstem
          150 -104 rmoveto
          22 -68 callsubr
          665 154 -665 vlineto
          -19 14 -10 36 vhcurveto
          22 -68 callsubr
          665 64 vlineto
          19 7 -46 callgsubr
          24 108 callsubr
          -527 hlineto
          -17 57 callsubr
          -24 -34 callsubr
          17 vhcurveto
          62 -665 hlineto
          -45 callgsubr
          endchar
        </CharString>
        <CharString name="q">
          -30 106 callgsubr
          -5 -20 hstemhm
          39 129 129 127 hintmask 11011100
          349 -207 rmoveto
          22 -38 callgsubr
          674 129 callgsubr
          -10 hlineto
          -25 -16 -4 -17 -5 hvcurveto
          hintmask 11101100
          -3 -15 -4 -16 -3 -14 rrcurveto
          43 -23 -43 28 -47 hhcurveto
          -92 -63 -100 -169 -173 63 -95 105 42 28 17 20 20 hvcurveto
          -208 vlineto
          hintmask 11011100
          -19 16 -10 36 vhcurveto
          -109 302 rmoveto
          -49 -23 45 120 hvcurveto
          hintmask 11101100
          115 22 51 44 25 21 -19 -27 17 vhcurveto
          -260 vlineto
          hintmask 11011100
          -15 -14 -20 -10 -23 hhcurveto
          endchar
        </CharString>
        <CharString name="question">
          -120 -2 140 457 112 hstemhm
          92 133 23 135 hintmask 11100000
          147 215 rmoveto
          20 hlineto
          30 12 6 19 4 hvcurveto
          hintmask 11110000
          9 55 34 35 38 40 rrcurveto
          43 45 46 45 80 vvcurveto
          103 -78 64 -121 -70 -94 -27 -45 -19 31 -53 21 vhcurveto
          13 33 32 50 hhcurveto
          53 27 -25 -45 -40 -38 -39 -40 -47 hvcurveto
          -42 -51 -23 -52 -54 vvcurveto
          hintmask 11100000
          -19 12 -8 30 vhcurveto
          -2 -217 rmoveto
          26 hlineto
          38 -31 callsubr
          83 vlineto
          18 -16 10 -38 vhcurveto
          -26 50 callsubr
          -83 -16 callgsubr
          endchar
        </CharString>
        <CharString name="questiondown">
          -120 -184 112 457 140 hstemhm
          8 135 23 133 hintmask 11010000
          246 525 rmoveto
          -26 hlineto
          -38 -23 callgsubr
          -83 vlineto
          -18 16 -10 38 vhcurveto
          26 hlineto
          37 16 10 18 hvcurveto
          83 94 callgsubr
          -37 vhcurveto
          -2 -217 rmoveto
          -20 hlineto
          -30 -12 -6 -19 -4 hvcurveto
          hintmask 11110000
          -9 -55 -34 -35 -38 -40 rrcurveto
          -43 -45 -46 -45 -80 vvcurveto
          -103 78 -64 121 70 94 27 45 19 -31 53 -21 vhcurveto
          -13 -33 -32 -50 hhcurveto
          -53 -27 25 45 40 38 39 40 47 hvcurveto
          42 51 23 52 54 vvcurveto
          hintmask 11010000
          19 -12 8 -30 vhcurveto
          endchar
        </CharString>
        <CharString name="quotedbl">
          -202 467 235 hstemhm
          25 116 27 116 hintmask 00000000
          hintmask 11000000
          77 467 rmoveto
          -9 callsubr
          2 9 -7 19 hhcurveto
          hintmask 10100000
          143 hmoveto
          -9 callsubr
          2 9 -7 19 hhcurveto
          endchar
        </CharString>
        <CharString name="quotedblbase">
          -163 -122 260 hstem
          50 122 35 122 vstem
          46 -122 -16 callsubr
        </CharString>
        <CharString name="quotedblleft">
          -163 491 260 hstem
          15 122 36 122 vstem
          69 491 rmoveto
          -6 callgsubr
          158 hmoveto
          -6 callgsubr
          endchar
        </CharString>
        <CharString name="quotedblright">
          -163 756 -20 hstem
          63 122 35 122 vstem
          59 496 -16 callsubr
        </CharString>
        <CharString name="quoteleft">
          -301 491 260 hstem
          28 122 vstem
          82 491 rmoveto
          -6 callgsubr
          endchar
        </CharString>
        <CharString name="quoteright">
          -301 756 -20 hstem
          69 122 vstem
          65 496 26 callsubr
          endchar
        </CharString>
        <CharString name="quotesinglbase">
          -301 -122 260 hstem
          67 122 vstem
          63 -122 26 callsubr
          endchar
        </CharString>
        <CharString name="quotesingle">
          -347 702 -20 hstem
          26 116 vstem
          78 467 rmoveto
          -9 callsubr
          3 9 -7 18 hhcurveto
          endchar
        </CharString>
        <CharString name="quotesingle.loclGUA">
          -340 700 -20 hstem
          33 115 vstem
          74 386 rmoveto
          24 2 50 109 165 vvcurveto
          22 -15 16 -32 vhcurveto
          -15 hlineto
          -37 -16 -16 -24 hvcurveto
          1 -254 rlineto
          -15 24 -5 16 vhcurveto
          endchar
        </CharString>
        <CharString name="r">
          59 callgsubr
          hstemhm
          65 126 hintmask 10110000
          118 -2 rmoveto
          19 hlineto
          38 -31 callsubr
          hintmask 11010000
          -62 callgsubr
          hintmask 10110000
          -32 callsubr
          endchar
        </CharString>
        <CharString name="racute">
          59 callgsubr
          67 155 hstemhm
          65 126 hintmask 10111000
          163 577 rmoveto
          -106 callgsubr
          -45 -579 rmoveto
          19 hlineto
          38 -31 callsubr
          hintmask 11011000
          -62 callgsubr
          hintmask 10111000
          -32 callsubr
          endchar
        </CharString>
        <CharString name="radical">
          -16 -154 166 hstemhm
          19 487 hintmask 00000000
          hintmask 11000000
          260 -154 rmoveto
          23 hlineto
          29 16 9 19 4 hvcurveto
          174 912 rlineto
          10 vlineto
          10 -11 8 -26 vhcurveto
          -25 hlineto
          -29 -16 -10 -18 -3 hvcurveto
          -118 -675 rlineto
          -6 -28 -6 -64 -7 vvcurveto
          -4 hlineto
          7 -11 50 -10 43 vhcurveto
          -61 255 rlineto
          15 -3 -9 7 -11 hhcurveto
          -16 -60 -31 -21 -41 hvcurveto
          -15 -7 -6 -6 -12 vvcurveto
          -7 2 -6 11 -28 vhcurveto
          -14 6 7 -7 11 hhcurveto
          7 13 5 13 24 hvcurveto
          109 -395 rlineto
          -20 5 19 -7 27 hhcurveto
          endchar
        </CharString>
        <CharString name="rcaron">
          59 callgsubr
          65 144 hstemhm
          65 126 hintmask 10111000
          175 575 -105 callgsubr
          -57 -577 rmoveto
          19 hlineto
          38 -31 callsubr
          hintmask 11011000
          -62 callgsubr
          hintmask 10111000
          -32 callsubr
          endchar
        </CharString>
        <CharString name="rcommaaccent">
          59 callgsubr
          hstemhm
          65 126 -114 109 hintmask 10110000
          118 -2 rmoveto
          19 hlineto
          38 -31 callsubr
          hintmask 11010000
          -62 callgsubr
          hintmask 10110000
          -32 callsubr
          hintmask 10101000
          -19 -238 -83 callsubr
          endchar
        </CharString>
        <CharString name="registered">
          80 -7 59 264 64 109 63 98 59 hstem
          10 60 121 74 69 75 112 -9 callgsubr
          -76 100 rmoveto
          17 hlineto
          20 8 6 10 hvcurveto
          148 13 vlineto
          28 4 -11 -30 9 hvcurveto
          35 -112 rlineto
          -7 2 11 -4 14 hhcurveto
          21 hlineto
          18 9 4 7 2 0 3 -2 5 hvcurveto
          -38 121 -9 29 -14 21 -9 7 rlinecurve
          3 vlineto
          30 16 22 31 46 vvcurveto
          70 -32 35 -79 vhcurveto
          -88 hlineto
          -13 -6 -6 -15 hvcurveto
          -363 vlineto
          -10 9 -6 20 vhcurveto
          45 228 rmoveto
          109 36 vlineto
          20 13 -19 -33 -31 -15 -26 -15 hvcurveto
          endchar
        </CharString>
        <CharString name="ring">
          -255 555 53 82 53 hstem
          35 53 81 53 vstem
          128 555 rmoveto
          -67 callsubr
          endchar
        </CharString>
        <CharString name="s">
          85 callgsubr
          66 callgsubr
          164 -8 rmoveto
          -85 callgsubr
          -35 72 -29 68 hvcurveto
          endchar
        </CharString>
        <CharString name="sacute">
          85 callgsubr
          47 155 66 callgsubr
          162 578 rmoveto
          -106 callgsubr
          2 -586 rmoveto
          -85 callgsubr
          -35 72 -29 68 hvcurveto
          endchar
        </CharString>
        <CharString name="sacute.loclPLK">
          85 callgsubr
          47 155 66 callgsubr
          163 578 -82 callgsubr
          1 -586 rmoveto
          -85 callgsubr
          -35 72 -29 68 hvcurveto
          endchar
        </CharString>
        <CharString name="scaron">
          85 callgsubr
          45 144 66 callgsubr
          174 576 -105 callgsubr
          -10 -584 rmoveto
          -85 callgsubr
          -35 72 -29 68 hvcurveto
          endchar
        </CharString>
        <CharString name="scedilla">
          -158 -211 64 139 104 331 104 hstemhm
          33 127 18 84 -57 126 hintmask 11110100
          331 154 rmoveto
          82 -44 38 -52 29 vhcurveto
          -39 23 -36 17 40 vvcurveto
          30 21 14 29 vhcurveto
          35 25 -21 8 hhcurveto
          15 22 51 21 36 -72 17 -51 -93 -66 -59 -96 -85 48 -35 51 -27 hvcurveto
          42 -23 31 -19 -40 vvcurveto
          -33 -20 -18 -33 vhcurveto
          -43 -27 32 -10 hhcurveto
          -17 -31 -49 -23 hvcurveto
          hintmask 11111000
          -33 62 -27 64 -4 vhcurveto
          -17 -49 -5 -14 -8 100 callgsubr
          -56 callgsubr
          13 48 rlineto
          hintmask 11110100
          76 17 47 60 81 vvcurveto
          endchar
        </CharString>
        <CharString name="scircumflex">
          85 callgsubr
          42 145 66 callgsubr
          79 573 -107 callgsubr
          85 -581 rmoveto
          -85 callgsubr
          -35 72 -29 68 hvcurveto
          endchar
        </CharString>
        <CharString name="scommaaccent">
          -158 -217 -21 230 104 331 104 hstemhm
          33 127 -38 109 -26 126 hintmask 11101000
          164 -8 rmoveto
          hintmask 11110100
          -85 callgsubr
          hvcurveto
          hintmask 11101000
          -35 72 -29 68 vhcurveto
          -20 -230 -83 callsubr
          endchar
        </CharString>
        <CharString name="section">
          -156 -7 104 506 103 hstemhm
          22 110 -99 126 40 126 -99 109 hintmask 11100100
          164 -7 rmoveto
          hintmask 11101000
          94 67 57 90 45 -18 31 -23 23 hvcurveto
          hintmask 11010100
          32 26 19 39 48 vvcurveto
          87 -53 38 -50 25 vhcurveto
          -36 18 -37 13 33 vvcurveto
          24 20 13 30 vhcurveto
          35 25 -21 8 hhcurveto
          15 22 52 19 39 -79 14 -44 -90 -68 -51 -92 -46 18 -30 23 -23 hvcurveto
          hintmask 11101000
          -32 -25 -20 -38 -49 vvcurveto
          -86 50 -37 47 -25 vhcurveto
          45 -23 35 -12 -34 vvcurveto
          -24 -18 -14 -32 vhcurveto
          -39 -24 27 -9 hhcurveto
          -16 -27 -51 -21 hvcurveto
          hintmask 11100100
          -38 77 -21 53 vhcurveto
          36 301 rmoveto
          -37 14 -31 15 40 vvcurveto
          22 10 14 16 9 vhcurveto
          37 -14 31 -15 -39 vvcurveto
          -23 -11 -14 -15 -9 vhcurveto
          endchar
        </CharString>
        <CharString name="semicolon">
          -323 385 140 hstemhm
          29 130 -119 118 hintmask 11000000
          80 -3 callsubr
          -38 -507 rmoveto
          hintmask 10100000
          41 callgsubr
          hintmask 11000000
          -15 24 -5 14 vhcurveto
          endchar
        </CharString>
        <CharString name="seven">
          -52 19 -21 601 101 hstem
          30 402 vstem
          116 -2 rmoveto
          29 hlineto
          26 20 4 15 5 hvcurveto
          234 594 rlineto
          1 3 1 5 5 vvcurveto
          27 -17 49 -10 vhcurveto
          -348 hlineto
          -19 57 callsubr
          -15 -34 callsubr
          19 vhcurveto
          236 hlineto
          -223 -564 rlineto
          -2 -7 -3 -7 -5 vvcurveto
          -12 16 -6 35 vhcurveto
          endchar
        </CharString>
        <CharString name="six">
          -52 -7 101 225 101 283 -20 hstem
          29 128 154 121 vstem
          230 -7 rmoveto
          103 99 68 151 148 -91 60 -75 -31 -30 -7 -19 -31 hvcurveto
          28 103 67 77 107 39 rrcurveto
          10 4 1 4 10 vvcurveto
          17 -14 55 -30 -30 -284 -100 -353 -179 93 -78 108 vhcurveto
          2 101 rmoveto
          -38 -37 33 114 19 0 19 2 19 hvcurveto
          11 17 24 10 26 hhcurveto
          48 37 -39 -72 -72 -38 -42 -41 hvcurveto
          endchar
        </CharString>
        <CharString name="slash">
          -191 702 -20 hstem
          -17 342 vstem
          19 3 callgsubr
        </CharString>
        <CharString name="space">
          -374 endchar
        </CharString>
        <CharString name="sterling">
          -100 0 101 220 101 187 98 hstem
          90 123 vstem
          43 hmoveto
          323 77 callgsubr
          15 vlineto
          31 -8 12 -18 vhcurveto
          -199 hlineto
          26 23 20 37 89 vvcurveto
          71 86 vlineto
          18 -24 callgsubr
          -18 vhcurveto
          -86 84 hlineto
          72 25 31 52 vhcurveto
          23 29 -8 4 hhcurveto
          17 17 41 25 34 -64 6 -36 -130 -60 -73 -133 hvcurveto
          -79 -41 vlineto
          -19 57 callsubr
          -15 -34 callsubr
          19 vhcurveto
          41 -152 hlineto
          -74 -80 1 -41 vvcurveto
          -18 vlineto
          -26 10 -11 23 vhcurveto
          endchar
        </CharString>
        <CharString name="summation">
          -37 -102 114 578 110 hstem
          16 451 vstem
          49 -102 rmoveto
          393 hlineto
          17 -12 callsubr
          28 79 callgsubr
          -17 vhcurveto
          -257 hlineto
          -2 3 144 269 rlineto
          5 9 2 7 0 8 0 7 -3 8 8 flex1
          -138 256 1 3 rlineto
          239 hlineto
          18 7 14 29 hvcurveto
          24 123 callgsubr
          -18 vhcurveto
          -376 hlineto
          -24 -10 -11 -23 hvcurveto
          -27 vlineto
          -14 4 -11 6 -11 vhcurveto
          165 -301 -169 -306 rlineto
          -6 -11 -3 -11 -13 vvcurveto
          -26 vlineto
          -26 9 -11 24 vhcurveto
          endchar
        </CharString>
        <CharString name="t">
          -213 -7 97 callgsubr
          hintmask 01110000
          190 -7 rmoveto
          31 60 9 33 hvcurveto
          hintmask 10110000
          -75 callgsubr
          hintmask 01110000
          -106 55 -38 66 vhcurveto
          endchar
        </CharString>
        <CharString name="tbar">
          -227 -7 101 156 87 85 101 hstemhm
          69 141 callgsubr
          hintmask 11110000
          254 98 rmoveto
          9 callgsubr
          111 55 vlineto
          21 8 11 26 hvcurveto
          13 vlineto
          26 -8 11 -21 vhcurveto
          -55 85 47 hlineto
          -22 callgsubr
          -47 98 hlineto
          19 -13 10 -30 vhcurveto
          -24 hlineto
          -28 -16 -10 -19 -2 hvcurveto
          -13 -98 rlineto
          -18 hlineto
          -19 57 callsubr
          -15 -34 callsubr
          19 vhcurveto
          18 -85 -34 hlineto
          -20 -9 -11 -26 hvcurveto
          -13 vlineto
          -26 9 -11 20 vhcurveto
          34 -113 hlineto
          -106 55 -38 66 31 60 9 33 10 -10 53 -17 vhcurveto
          endchar
        </CharString>
        <CharString name="tcaron">
          -213 142 callsubr
          429 101 229 -20 hstemhm
          69 126 29 108 hintmask 00000000
          hintmask 01111100
          256 568 rmoveto
          -25 callsubr
          -15 23 -5 16 vhcurveto
          hintmask 01111000
          -66 -575 rmoveto
          31 60 9 33 hvcurveto
          hintmask 10111000
          -75 callgsubr
          hintmask 01111000
          -106 55 -38 66 vhcurveto
          endchar
        </CharString>
        <CharString name="thorn">
          -28 106 callgsubr
          223 -20 hstem
          60 126 128 129 vstem
          112 -207 rmoveto
          22 hlineto
          37 -47 callsubr
          207 vlineto
          -20 21 130 callsubr
          -63 100 -90 -43 -37 -22 -37 -24 hvcurveto
          254 vlineto
          18 -16 10 -37 vhcurveto
          -20 50 callsubr
          -903 vlineto
          -19 15 -10 37 vhcurveto
          130 302 rmoveto
          -23 -18 10 15 -15 hvcurveto
          256 vlineto
          30 16 23 20 25 hhcurveto
          43 21 -53 -112 -117 -24 -49 -48 hvcurveto
          endchar
        </CharString>
        <CharString name="three">
          -52 -7 101 224 101 186 102 hstemhm
          271 127 -105 128 hintmask 11101000
          211 -7 rmoveto
          121 89 76 134 92 -48 64 -71 25 hvcurveto
          4 vlineto
          hintmask 11110000
          55 24 41 49 73 vvcurveto
          107 -73 66 -117 -79 -90 -23 -43 -23 27 -44 17 vhcurveto
          14 23 31 64 hhcurveto
          63 24 -40 -46 -49 -34 -51 -73 hvcurveto
          -29 hlineto
          -19 -8 -12 -31 hvcurveto
          -15 -34 callsubr
          19 vhcurveto
          37 hlineto
          hintmask 11101000
          80 41 -34 -78 -79 -52 -33 -56 hvcurveto
          -68 -39 39 -16 hhcurveto
          -19 -25 -48 -19 -49 115 -24 78 hvcurveto
          endchar
        </CharString>
        <CharString name="threequarters">
          116 19 -21 22 -21 88 59 143 59 131 59 109 60 -6 -20 hstemhm
          167 74 -62 75 224 73 hintmask 0111110011000000
          131 289 27 callsubr
          hintmask 0111110101000000
          -44 callsubr
          hintmask 0111110011000000
          -25 callgsubr
          32 -290 rmoveto
          14 hlineto
          17 13 7 17 7 hvcurveto
          hintmask 0111101011000000
          282 655 rlineto
          3 64 callsubr
          -13 vhcurveto
          -14 hlineto
          -16 -14 -6 -17 -7 hvcurveto
          -282 -656 rlineto
          -2 -5 -3 -5 -3 vvcurveto
          hintmask 0111110011000000
          -7 7 -3 11 vhcurveto
          hintmask 1011110011000000
          -28 callsubr
        </CharString>
        <CharString name="tilde">
          -219 585 95 callgsubr
          -8 307 hintmask 00000000
          hintmask 01100000
          21 -2 callsubr
          hintmask 10100000
          -103 callgsubr
          hintmask 01100000
          -88 callgsubr
          endchar
        </CharString>
        <CharString name="tildecomb">
          -511 585 95 callgsubr
          -161 307 hintmask 00000000
          hintmask 01100000
          -132 -2 callsubr
          hintmask 10100000
          -103 callgsubr
          hintmask 01100000
          -88 callgsubr
          endchar
        </CharString>
        <CharString name="trademark">
          106 637 63 -63 64 hstemhm
          101 76 99 73 176 73 hintmask 10111000
          305 305 rmoveto
          15 hlineto
          20 9 5 11 hvcurveto
          226 4 vlineto
          59 -139 rlineto
          -7 2 8 -2 8 hhcurveto
          13 hlineto
          9 7 2 7 2 hvcurveto
          59 138 rlineto
          5 -225 hlineto
          -11 8 -5 21 vhcurveto
          14 hlineto
          21 9 5 11 hvcurveto
          hintmask 01111000
          364 vlineto
          11 -9 5 -21 vhcurveto
          -25 hlineto
          -12 -12 -3 -10 -5 hvcurveto
          -67 -159 -12 -32 -12 33 -64 158 rlineto
          10 -4 -11 3 -13 hhcurveto
          -26 hlineto
          -21 -8 -5 -11 hvcurveto
          -364 vlineto
          hintmask 10111000
          -11 8 -5 21 vhcurveto
          -176 hmoveto
          19 hlineto
          19 10 6 10 hvcurveto
          316 68 vlineto
          10 5 7 17 hvcurveto
          15 vlineto
          17 -5 7 -10 vhcurveto
          -213 hlineto
          -10 -5 -7 -17 hvcurveto
          -15 vlineto
          -17 5 -7 10 vhcurveto
          69 -316 hlineto
          -10 9 -6 19 vhcurveto
          endchar
        </CharString>
        <CharString name="two">
          -52 0 101 504 102 hstem
          293 128 vstem
          44 hmoveto
          354 hlineto
          -22 callgsubr
          -220 hlineto
          159 236 rlineto
          62 83 22 48 62 vvcurveto
          105 -74 72 -129 -83 -104 -33 -52 -23 24 -40 24 vhcurveto
          17 38 46 68 hhcurveto
          54 37 -27 -54 -34 -13 -28 -34 -51 hvcurveto
          -223 -323 rlineto
          -3 -3 -1 -5 -7 vvcurveto
          -26 11 -47 14 vhcurveto
          endchar
        </CharString>
        <CharString name="u">
          35 callgsubr
          10 callsubr
          hintmask 00000000
          hintmask 10111000
          175 -8 11 callgsubr
          hintmask 01111000
          -81 callgsubr
          hintmask 10111000
          -77 callsubr
        </CharString>
        <CharString name="uacute">
          35 callgsubr
          73 155 10 callsubr
          hintmask 01111100
          224 578 rmoveto
          -106 callgsubr
          hintmask 10111100
          -49 -586 -86 callgsubr
        </CharString>
        <CharString name="ubreve">
          35 callgsubr
          73 83 10 callsubr
          hintmask 01111100
          239 578 -103 callsubr
          hintmask 10111100
          -64 -586 -86 callgsubr
        </CharString>
        <CharString name="ucircumflex">
          35 callgsubr
          68 145 10 callsubr
          hintmask 01111100
          141 573 -107 callgsubr
          hintmask 10111100
          34 -581 -86 callgsubr
        </CharString>
        <CharString name="udieresis">
          35 callgsubr
          83 114 hstemhm
          54 127 -66 102 48 102 -72 127 hintmask 00000000
          hintmask 01110110
          167 588 -102 callsubr
          hintmask 10111001
          -141 -596 11 callgsubr
          hintmask 01111001
          -81 callgsubr
          hintmask 10111001
          -77 callsubr
        </CharString>
        <CharString name="ugrave">
          35 callgsubr
          73 155 10 callsubr
          hintmask 01111100
          258 578 -102 callgsubr
          hintmask 10111100
          -83 -586 -86 callgsubr
        </CharString>
        <CharString name="uhorn">
          33 callgsubr
          60 callsubr
          hintmask 00000000
          hintmask 01011010
          492 577 rmoveto
          -74 callgsubr
          -7 -12 27 -19 -26 vvcurveto
          -17 -10 -15 -32 vhcurveto
          hintmask 10011100
          -71 callgsubr
          hintmask 01101100
          -27 callgsubr
          hintmask 01011010
          81 callgsubr
        </CharString>
        <CharString name="uhungarumlaut">
          35 callgsubr
          73 155 10 callsubr
          hintmask 01111100
          139 578 -83 callgsubr
          hintmask 10111100
          -116 -586 -86 callgsubr
        </CharString>
        <CharString name="umacron">
          35 callgsubr
          97 87 10 callsubr
          hintmask 01111100
          145 602 -84 callsubr
          hintmask 10111100
          30 -610 -86 callgsubr
        </CharString>
        <CharString name="underscore">
          -84 -141 86 hstem
          -16 460 vstem
          9 -141 rmoveto
          409 hlineto
          18 8 12 27 hvcurveto
          8 vlineto
          27 -8 12 -18 vhcurveto
          -409 hlineto
          -17 -8 -12 -27 hvcurveto
          -8 vlineto
          -27 8 -12 17 vhcurveto
          endchar
        </CharString>
        <CharString name="uni00A0">
          -374 endchar
        </CharString>
        <CharString name="uni00AD">
          -255 218 94 hstem
          20 214 vstem
          46 218 rmoveto
          163 hlineto
          18 7 -46 callgsubr
          8 vlineto
          31 -7 12 -18 vhcurveto
          -163 51 callgsubr
        </CharString>
        <CharString name="uni00B2">
          -231 295 59 293 59 hstem
          176 75 vstem
          32 295 rmoveto
          205 hlineto
          14 callgsubr
          -128 hlineto
          -32 callgsubr
          -15 6 -27 9 vhcurveto
          endchar
        </CharString>
        <CharString name="uni00B3">
          -231 289 59 131 59 109 60 hstemhm
          167 74 -62 75 hintmask 11101000
          131 289 27 callsubr
          hintmask 11110000
          -44 callsubr
          hintmask 11101000
          -25 callgsubr
          endchar
        </CharString>
        <CharString name="uni00B5">
          -58 -41 callsubr
        </CharString>
        <CharString name="uni00B9">
          -231 703 -20 hstem
          110 74 vstem
          -61 callgsubr
          endchar
        </CharString>
        <CharString name="uni0162">
          -57 -211 64 166 137 callsubr
          -66 84 hintmask 11110000
          416 700 rmoveto
          -378 hlineto
          100 callsubr
          -26 22 callsubr
          122 -561 hlineto
          -17 12 -10 30 -2 vhcurveto
          -19 -54 -5 -14 -9 100 callgsubr
          hintmask 11101000
          -56 callgsubr
          hintmask 11110000
          14 51 rlineto
          24 2 11 10 16 vvcurveto
          561 122 vlineto
          19 8 -72 callsubr
          -8 13 -19 vhcurveto
          endchar
        </CharString>
        <CharString name="uni0163">
          -213 -211 64 162 -21 24 -21 425 101 hstemhm
          69 126 -14 84 hintmask 00000000
          hintmask 11011000
          281 35 rmoveto
          -75 callgsubr
          hintmask 10111000
          -86 36 -42 50 -12 vhcurveto
          hintmask 11010100
          -19 -53 -5 -15 -8 100 callgsubr
          -56 callgsubr
          hintmask 11011000
          12 46 rlineto
          32 3 39 11 27 vvcurveto
          endchar
        </CharString>
        <CharString name="uni018F">
          49 -4 104 182 90 230 105 hstem
          37 124 208 131 vstem
          260 -4 rmoveto
          152 88 96 242 253 -79 120 -170 -87 -117 -36 -45 -20 27 -47 18 hvcurveto
          17 52 43 82 hhcurveto
          76 46 -45 -185 4 hvcurveto
          -288 hlineto
          -12 -32 -38 -15 -200 56 -123 167 hvcurveto
          -1 104 rmoveto
          -76 -22 62 120 hvcurveto
          209 hlineto
          -137 -11 -34 -45 -66 hhcurveto
          endchar
        </CharString>
        <CharString name="uni01C4">
          573 49 callgsubr
          53 144 29 callsubr
          829 753 -105 callgsubr
          -731 -753 rmoveto
          -58 callsubr
          540 -49 callgsubr
          -439 21 callgsubr
        </CharString>
        <CharString name="uni01C5">
          138 callsubr
          53 144 -132 112 hstemhm
          64 135 198 136 hintmask 00000000
          hintmask 10110110
          756 576 -105 callgsubr
          -658 -576 rmoveto
          182 hlineto
          167 86 108 242 hvcurveto
          hintmask 10101110
          241 -86 109 -167 vhcurveto
          -182 -58 callgsubr
          hintmask 10110110
          -39 callsubr
          hintmask 01101110
          24 callsubr
          hintmask 10101110
          353 -112 rmoveto
          -97 callsubr
          endchar
        </CharString>
        <CharString name="uni01C6">
          375 -7 104 -97 101 321 101 -95 102 46 144 33 45 callsubr
          hintmask 00000000
          hintmask 10101111
          33 callsubr
          hintmask 01011111
          -62 callsubr
          hintmask 10101111
          110 callgsubr
          hintmask 01101111
          489 583 -105 callgsubr
          -148 -576 rmoveto
          -97 callsubr
          hintmask 10011111
          -301 97 -18 callgsubr
          endchar
        </CharString>
        <CharString name="uni01C7">
          134 -173 114 59 135 callgsubr
          21 -20 136 callgsubr
          263 134 hintmask 11011100
          415 -173 rmoveto
          126 53 83 132 hvcurveto
          631 vlineto
          19 -16 11 -35 vhcurveto
          -33 hlineto
          -35 -15 -11 -19 hvcurveto
          -622 vlineto
          -77 -18 -33 -47 vhcurveto
          -26 -15 7 -10 hhcurveto
          -19 -16 -52 -28 -25 57 -16 49 hvcurveto
          -317 173 rmoveto
          238 hlineto
          18 8 13 30 hvcurveto
          26 128 callgsubr
          -139 hlineto
          hintmask 11101100
          561 vlineto
          19 -14 10 -37 vhcurveto
          -31 hlineto
          -60 callgsubr
          hvcurveto
          -636 vlineto
          hintmask 11011100
          -39 callsubr
          endchar
        </CharString>
        <CharString name="uni01C8">
          146 -212 101 111 112 413 93 callgsubr
          133 275 110 callsubr
          hintmask 11111100
          98 hmoveto
          -66 callsubr
          hintmask 11111010
          439 -80 callgsubr
          -64 -800 rmoveto
          hintmask 11111100
          -76 callgsubr
          hvcurveto
          hintmask 11111010
          101 callsubr
        </CharString>
</ttFont>
